{
.appVersion = "1342";
copyright = "Copyright 2012 Google Inc. All Rights Reserved.";
customParameters = (
{
name = vendorID;
value = MONO;
},
{
name = panose;
value = (
2,
2,
6,
0,
6,
5,
0,
2,
2,
0
);
},
{
name = unicodeRanges;
value = (
0,
1,
2,
3,
4,
5,
6,
7,
9,
29,
30,
31,
32,
33,
34,
35,
36,
37,
38,
39,
43,
44,
45,
46,
60,
62,
64,
67,
69
);
},
{
name = glyphOrder;
value = (
.notdef,
CR,
space,
uni0000,
exclam,
quotedbl,
numbersign,
dollar,
percent,
ampersand,
quotesingle,
parenleft,
parenright,
asterisk,
plus,
comma,
hyphen,
period,
slash,
zero,
one,
two,
three,
four,
five,
six,
seven,
eight,
nine,
colon,
semicolon,
less,
equal,
greater,
question,
at,
A,
B,
C,
D,
E,
F,
G,
H,
I,
J,
K,
L,
M,
N,
O,
P,
Q,
R,
S,
T,
U,
V,
W,
X,
Y,
Z,
bracketleft,
backslash,
bracketright,
asciicircum,
underscore,
grave,
a,
b,
c,
d,
e,
f,
g,
h,
i,
j,
k,
l,
m,
n,
o,
p,
q,
r,
s,
t,
u,
v,
w,
x,
y,
z,
braceleft,
bar,
braceright,
asciitilde,
guillemotleft,
guillemotright,
uni1780,
uni1781,
uni1782,
uni1783,
uni1784,
uni1785,
uni1786,
uni1787,
uni1788,
uni1789,
uni178A,
uni178B,
uni178C,
uni178D,
uni178E,
uni178F,
uni1790,
uni1791,
uni1792,
uni1793,
uni1794,
uni1795,
uni1796,
uni1797,
uni1798,
uni1799,
uni179A,
uni179B,
uni179C,
uni179D,
uni179E,
uni179F,
uni17A0,
uni17A1,
uni17A2,
uni17A3,
uni17A4,
uni17A5,
uni17A6,
uni17A7,
uni17A8,
uni17A9,
uni17AA,
uni17AB,
uni17AC,
uni17AD,
uni17AE,
uni17AF,
uni17B0,
uni17B1,
uni17B2,
uni17B3,
uni17B4,
uni17B5,
uni17B6,
uni17B7,
uni17B8,
uni17B9,
uni17BA,
uni17BB,
uni17BC,
uni17BD,
uni17BE,
uni17BF,
uni17C0,
uni17C1,
uni17C2,
uni17C3,
uni17C4,
uni17C5,
uni17C6,
uni17C7,
uni17C8,
uni17C9,
uni17CA,
uni17CB,
uni17CC,
uni17CD,
uni17CE,
uni17CF,
uni17D0,
uni17D1,
uni17D2,
uni17D3,
uni17D4,
uni17D5,
uni17D6,
uni17D7,
uni17D8,
uni17D9,
uni17DA,
uni17DB,
uni17DC,
uni17DD,
uni17E0,
uni17E1,
uni17E2,
uni17E3,
uni17E4,
uni17E5,
uni17E6,
uni17E7,
uni17E8,
uni17E9,
ta.half,
cho.half,
ru.half,
ruu.half,
uni17D2_1780,
uni17D2_1781,
uni17D2_1782,
uni17D21783,

glyphs = (
{
glyphname = .notdef;
layers = (
{
layerId = "BB6B0684-34D4-4B80-99D1-F5F29B570554";
paths = (
{
closed = 1;
nodes = (
"922 1462 LINE",
"102 1462 LINE",
"102 0 LINE",
"922 0 LINE"
);
},
{
closed = 1;
nodes = (
"823 1364 LINE",
"823 98 LINE",
"201 98 LINE",
"201 1364 LINE"
);
}
);
userData = {
assembly = "NPUSHB[ ]	/* 39 values pushed */\0120 0 0 3 2 0 3 103 0 2 1 1 2 87 0 2 2 1 95 4 1 1 2 1 79 0 0 7 6 5 4 0 3 0 3 17 5 6 23 \012CALL[ ]	/* CallFunction */";
};
width = 1024;
}
);
note = .notdef;
},
{
glyphname = exclam;
layers = (
{
layerId = "BB6B0684-34D4-4B80-99D1-F5F29B570554";
paths = (
{
closed = 1;
nodes = (
"358 205 LINE",
"153 205 LINE",
"153 0 LINE",
"358 0 LINE"
);
},
{
closed = 1;
nodes = (
"341 1434 LINE",
"167 1434 LINE",
"167 426 LINE",
"341 426 LINE"
);
}
);
width = 512;
}
);
note = exclam;
unicode = 0021;
},
{
glyphname = quotedbl;
layers = (
{
layerId = "BB6B0684-34D4-4B80-99D1-F5F29B570554";
paths = (
{
closed = 1;
nodes = (
"307 1434 LINE",
"112 1434 LINE",
"112 1249 LINE",
"153 928 LINE",
"266 928 LINE",
"307 1249 LINE"
);
},
{
closed = 1;
nodes = (
"624 1434 LINE",
"429 1434 LINE",
"429 1249 LINE",
"470 928 LINE",
"583 928 LINE",
"624 1249 LINE"
);
}
);
width = 737;
}
);
note = quotedbl;
unicode = 0022;
},
{
glyphname = numbersign;
layers = (
{
layerId = "BB6B0684-34D4-4B80-99D1-F5F29B570554";
paths = (
{
closed = 1;
nodes = (
"380 522 LINE",
"417 932 LINE",
"581 932 LINE",
"544 522 LINE"
);
},
{
closed = 1;
nodes = (
"852 522 LINE",
"708 522 LINE",
"745 932 LINE",
"888 932 LINE",
"901 1085 LINE",
"757 1085 LINE",
"788 1434 LINE",
"624 1434 LINE",
"593 1085 LINE",
"430 1085 LINE",
"460 1434 LINE",
"297 1434 LINE",
"266 1085 LINE",
"122 1085 LINE",
"110 932 LINE",
"254 932 LINE",
"217 522 LINE",
"73 522 LINE",
"61 369 LINE",
"204 369 LINE",
"172 0 LINE",
"335 0 LINE",
"368 369 LINE",
"532 369 LINE",
"499 0 LINE",
"663 0 LINE",
"696 369 LINE",
"839 369 LINE"
);
}
);
width = 962;
}
);
note = numbersign;
unicode = 0023;
},
{
glyphname = dollar;
layers = (
{
layerId = "BB6B0684-34D4-4B80-99D1-F5F29B570554";
paths = (
{
closed = 1;
nodes = (
"566 6 LINE",
"622 20 OFFCURVE",
"706 76 OFFCURVE",
"763 168 OFFCURVE",
"794 303 OFFCURVE",
"794 397 QCURVE SMOOTH",
"794 496 OFFCURVE",
"755 637 OFFCURVE",
"679 733 OFFCURVE",
"566 791 OFFCURVE",
"493 805 QCURVE SMOOTH",
"409 821 OFFCURVE",
"349 932 OFFCURVE",
"349 1034 QCURVE SMOOTH",
"349 1092 OFFCURVE",
"376 1167 OFFCURVE",
"425 1214 OFFCURVE",
"491 1233 OFFCURVE",
"529 1233 QCURVE SMOOTH",
"583 1233 OFFCURVE",
"693 1214 OFFCURVE",
"747 1202 QCURVE",
"747 1352 LINE",
"706 1362 OFFCURVE",
"620 1380 OFFCURVE",
"566 1382 QCURVE",
"566 1597 LINE",
"392 1597 LINE",
"392 1364 LINE",
"286 1335 OFFCURVE",
"167 1169 OFFCURVE",
"167 1012 QCURVE SMOOTH",
"167 862 OFFCURVE",
"308 668 OFFCURVE",
"466 635 QCURVE SMOOTH",
"538 621 OFFCURVE",
"611 510 OFFCURVE",
"611 377 QCURVE SMOOTH",
"611 260 OFFCURVE",
"536 139 OFFCURVE",
"429 139 QCURVE SMOOTH",
"357 139 OFFCURVE",
"239 158 OFFCURVE",
"192 170 QCURVE",
"192 20 LINE",
"286 -6 OFFCURVE",
"392 -10 QCURVE",
"392 -225 LINE",
"566 -225 LINE"
);
}
);
width = 962;
}
);
note = dollar;
unicode = 0024;
},
{
glyphname = percent;
layers = (
{
layerId = "BB6B0684-34D4-4B80-99D1-F5F29B570554";
paths = (
{
closed = 1;
nodes = (
"532 705 OFFCURVE",
"455 705 QCURVE SMOOTH",
"377 705 OFFCURVE",
"315 850 OFFCURVE",
"315 1016 QCURVE SMOOTH",
"315 1182 OFFCURVE",
"377 1327 OFFCURVE",
"455 1327 QCURVE SMOOTH",
"532 1327 OFFCURVE",
"594 1182 OFFCURVE",
"594 1016 QCURVE SMOOTH",
"594 850 OFFCURVE"
);
},
{
closed = 1;
nodes = (
"715 1276 OFFCURVE",
"655 1386 OFFCURVE",
"545 1448 OFFCURVE",
"455 1448 QCURVE SMOOTH",
"367 1448 OFFCURVE",
"256 1386 OFFCURVE",
"194 1276 OFFCURVE",
"174 1120 OFFCURVE",
"174 1024 QCURVE SMOOTH",
"174 928 OFFCURVE",
"194 766 OFFCURVE",
"256 649 OFFCURVE",
"367 584 OFFCURVE",
"455 584 QCURVE SMOOTH",
"545 584 OFFCURVE",
"653 649 OFFCURVE",
"715 766 OFFCURVE",
"735 928 OFFCURVE",
"735 1024 QCURVE SMOOTH",
"735 1120 OFFCURVE"
);
},
{
closed = 1;
nodes = (
"1048 1434 LINE",
"547 0 LINE",
"706 0 LINE",
"1208 1434 LINE"
);
},
{
closed = 1;
nodes = (
"1376 106 OFFCURVE",
"1298 106 QCURVE SMOOTH",
"1221 106 OFFCURVE",
"1159 252 OFFCURVE",
"1159 418 QCURVE SMOOTH",
"1159 584 OFFCURVE",
"1221 729 OFFCURVE",
"1298 729 QCURVE SMOOTH",
"1376 729 OFFCURVE",
"1438 584 OFFCURVE",
"1438 418 QCURVE SMOOTH",
"1438 252 OFFCURVE"
);
},
{
closed = 1;
nodes = (
"1558 678 OFFCURVE",
"1499 788 OFFCURVE",
"1388 850 OFFCURVE",
"1298 850 QCURVE SMOOTH",
"1210 850 OFFCURVE",
"1100 788 OFFCURVE",
"1038 678 OFFCURVE",
"1018 522 OFFCURVE",
"1018 426 QCURVE SMOOTH",
"1018 330 OFFCURVE",
"1038 168 OFFCURVE",
"1100 51 OFFCURVE",
"1210 -14 OFFCURVE",
"1298 -14 QCURVE SMOOTH",
"1388 -14 OFFCURVE",
"1497 51 OFFCURVE",
"1558 168 OFFCURVE",
"1579 330 OFFCURVE",
"1579 426 QCURVE SMOOTH",
"1579 522 OFFCURVE"
);
}
);
width = 1753;
}
);
note = percent;
unicode = 0025;
},
{
glyphname = ampersand;
layers = (
{
layerId = "BB6B0684-34D4-4B80-99D1-F5F29B570554";
paths = (
{
closed = 1;
nodes = (
"313 -14 OFFCURVE",
"483 -14 QCURVE SMOOTH",
"579 -14 OFFCURVE",
"739 -2 OFFCURVE",
"817 10 QCURVE",
"817 752 LINE",
"987 752 LINE",
"987 901 LINE",
"506 901 LINE SMOOTH",
"407 901 OFFCURVE",
"334 1024 OFFCURVE",
"334 1114 QCURVE SMOOTH",
"334 1176 OFFCURVE",
"366 1247 OFFCURVE",
"420 1286 OFFCURVE",
"489 1298 OFFCURVE",
"528 1298 QCURVE SMOOTH",
"551 1298 OFFCURVE",
"616 1290 OFFCURVE",
"678 1280 OFFCURVE",
"729 1270 OFFCURVE",
"737 1268 QCURVE",
"737 1417 LINE",
"719 1423 OFFCURVE",
"610 1448 OFFCURVE",
"532 1448 QCURVE SMOOTH",
"452 1448 OFFCURVE",
"317 1423 OFFCURVE",
"217 1350 OFFCURVE",
"160 1210 OFFCURVE",
"160 1096 QCURVE SMOOTH",
"160 997 OFFCURVE",
"225 879 OFFCURVE",
"297 836 QCURVE",
"248 817 OFFCURVE",
"184 735 OFFCURVE",
"147 621 OFFCURVE",
"133 481 OFFCURVE",
"133 406 QCURVE SMOOTH",
"133 176 OFFCURVE"
);
},
{
closed = 1;
nodes = (
"309 266 OFFCURVE",
"309 385 QCURVE SMOOTH",
"309 455 OFFCURVE",
"319 588 OFFCURVE",
"354 690 OFFCURVE",
"420 752 OFFCURVE",
"475 752 QCURVE SMOOTH",
"655 752 LINE",
"655 152 LINE",
"633 147 OFFCURVE",
"549 135 OFFCURVE",
"485 135 QCURVE SMOOTH",
"407 135 OFFCURVE"
);
}
);
width = 1038;
}
);
note = ampersand;
unicode = 0026;
},
{
glyphname = quotesingle;
layers = (
{
layerId = "BB6B0684-34D4-4B80-99D1-F5F29B570554";
paths = (
{
closed = 1;
nodes = (
"307 1434 LINE",
"112 1434 LINE",
"112 1249 LINE",
"153 928 LINE",
"266 928 LINE",
"307 1249 LINE"
);
}
);
width = 419;
}
);
note = quotesingle;
unicode = 0027;
},
{
glyphname = parenleft;
layers = (
{
layerId = "BB6B0684-34D4-4B80-99D1-F5F29B570554";
paths = (
{
closed = 1;
nodes = (
"223 -37 OFFCURVE",
"362 -246 QCURVE",
"532 -246 LINE",
"468 -137 OFFCURVE",
"376 80 OFFCURVE",
"315 313 OFFCURVE",
"286 569 OFFCURVE",
"286 717 QCURVE SMOOTH",
"286 864 OFFCURVE",
"315 1120 OFFCURVE",
"376 1354 OFFCURVE",
"468 1571 OFFCURVE",
"532 1679 QCURVE",
"362 1679 LINE",
"223 1470 OFFCURVE",
"112 1004 OFFCURVE",
"112 717 QCURVE SMOOTH",
"112 430 OFFCURVE"
);
}
);
width = 655;
}
);
note = parenleft;
unicode = 0028;
},
{
glyphname = parenright;
layers = (
{
layerId = "BB6B0684-34D4-4B80-99D1-F5F29B570554";
paths = (
{
closed = 1;
nodes = (
"431 1470 OFFCURVE",
"292 1679 QCURVE",
"122 1679 LINE",
"185 1571 OFFCURVE",
"278 1354 OFFCURVE",
"339 1120 OFFCURVE",
"368 864 OFFCURVE",
"368 717 QCURVE SMOOTH",
"368 569 OFFCURVE",
"339 313 OFFCURVE",
"278 80 OFFCURVE",
"185 -137 OFFCURVE",
"122 -246 QCURVE",
"292 -246 LINE",
"431 -37 OFFCURVE",
"542 430 OFFCURVE",
"542 717 QCURVE SMOOTH",
"542 1004 OFFCURVE"
);
}
);
width = 655;
}
);
note = parenright;
unicode = 0029;
},
{
glyphname = asterisk;
layers = (
{
layerId = "BB6B0684-34D4-4B80-99D1-F5F29B570554";
paths = (
{
closed = 1;
nodes = (
"849 1280 LINE",
"556 1167 LINE",
"583 1479 LINE",
"398 1479 LINE",
"425 1167 LINE",
"136 1284 LINE",
"81 1120 LINE",
"378 1055 LINE",
"159 805 LINE",
"302 696 LINE",
"489 987 LINE",
"669 696 LINE",
"816 803 LINE",
"599 1055 LINE",
"900 1118 LINE"
);
}
);
width = 983;
}
);
note = asterisk;
unicode = 002A;
},
{
glyphname = plus;
layers = (
{
layerId = "BB6B0684-34D4-4B80-99D1-F5F29B570554";
paths = (
{
closed = 1;
nodes = (
"952 717 LINE",
"645 717 LINE",
"645 1040 LINE",
"481 1040 LINE",
"481 717 LINE",
"172 717 LINE",
"172 563 LINE",
"481 563 LINE",
"481 242 LINE",
"645 242 LINE",
"645 563 LINE",
"952 563 LINE"
);
}
);
width = 1126;
}
);
note = plus;
unicode = 002B;
},
{
glyphname = comma;
layers = (
{
layerId = "BB6B0684-34D4-4B80-99D1-F5F29B570554";
paths = (
{
closed = 1;
nodes = (
"338 205 LINE",
"133 205 LINE",
"133 0 LINE",
"51 -287 LINE",
"190 -287 LINE",
"338 0 LINE"
);
}
);
width = 471;
}
);
note = comma;
unicode = 002C;
},
{
glyphname = hyphen;
layers = (
{
layerId = "BB6B0684-34D4-4B80-99D1-F5F29B570554";
paths = (
{
closed = 1;
nodes = (
"840 717 LINE",
"174 717 LINE",
"174 563 LINE",
"840 563 LINE"
);
}
);
width = 1013;
}
);
note = hyphen;
unicode = 002D;
},
{
glyphname = period;
layers = (
{
layerId = "BB6B0684-34D4-4B80-99D1-F5F29B570554";
paths = (
{
closed = 1;
nodes = (
"338 205 LINE",
"133 205 LINE",
"133 0 LINE",
"338 0 LINE"
);
}
);
width = 471;
}
);
note = period;
unicode = 002E;
},
{
glyphname = slash;
layers = (
{
layerId = "BB6B0684-34D4-4B80-99D1-F5F29B570554";
paths = (
{
closed = 1;
nodes = (
"493 1659 LINE",
"10 -225 LINE",
"172 -225 LINE",
"655 1659 LINE"
);
}
);
width = 665;
}
);
note = slash;
unicode = 002F;
},
{
glyphname = zero;
layers = (
{
layerId = "BB6B0684-34D4-4B80-99D1-F5F29B570554";
paths = (
{
closed = 1;
nodes = (
"657 334 OFFCURVE",
"618 195 OFFCURVE",
"542 135 OFFCURVE",
"481 135 QCURVE SMOOTH",
"419 135 OFFCURVE",
"343 195 OFFCURVE",
"304 334 OFFCURVE",
"290 557 OFFCURVE",
"290 723 QCURVE SMOOTH",
"290 893 OFFCURVE",
"304 1114 OFFCURVE",
"345 1245 OFFCURVE",
"419 1298 OFFCURVE",
"481 1298 QCURVE SMOOTH",
"542 1298 OFFCURVE",
"616 1245 OFFCURVE",
"657 1114 OFFCURVE",
"671 893 OFFCURVE",
"671 723 QCURVE SMOOTH",
"671 557 OFFCURVE"
);
},
{
closed = 1;
nodes = (
"821 1182 OFFCURVE",
"745 1360 OFFCURVE",
"601 1448 OFFCURVE",
"481 1448 QCURVE SMOOTH",
"362 1448 OFFCURVE",
"218 1360 OFFCURVE",
"141 1182 OFFCURVE",
"116 913 OFFCURVE",
"116 733 QCURVE SMOOTH",
"116 545 OFFCURVE",
"141 264 OFFCURVE",
"218 78 OFFCURVE",
"362 -14 OFFCURVE",
"481 -14 QCURVE SMOOTH",
"599 -14 OFFCURVE",
"743 78 OFFCURVE",
"821 264 OFFCURVE",
"845 545 OFFCURVE",
"845 733 QCURVE SMOOTH",
"845 913 OFFCURVE"
);
}
);
width = 962;
}
);
note = zero;
unicode = 0030;
},
{
glyphname = one;
layers = (
{
layerId = "BB6B0684-34D4-4B80-99D1-F5F29B570554";
paths = (
{
closed = 1;
nodes = (
"808 154 LINE",
"605 154 LINE",
"605 1434 LINE",
"411 1434 LINE",
"163 1331 LINE",
"163 1165 LINE",
"431 1272 LINE",
"431 154 LINE",
"183 154 LINE",
"183 0 LINE",
"808 0 LINE"
);
}
);
width = 962;
}
);
note = one;
unicode = 0031;
},
{
glyphname = two;
layers = (
{
layerId = "BB6B0684-34D4-4B80-99D1-F5F29B570554";
paths = (
{
closed = 1;
nodes = (
"788 152 LINE",
"317 152 LINE",
"602 584 LINE SMOOTH",
"649 655 OFFCURVE",
"713 764 OFFCURVE",
"751 868 OFFCURVE",
"768 985 OFFCURVE",
"768 1065 QCURVE SMOOTH",
"768 1257 OFFCURVE",
"602 1448 OFFCURVE",
"420 1448 QCURVE SMOOTH",
"379 1448 OFFCURVE",
"297 1438 OFFCURVE",
"227 1425 OFFCURVE",
"178 1415 OFFCURVE",
"170 1413 QCURVE",
"170 1264 LINE",
"217 1274 OFFCURVE",
"354 1298 OFFCURVE",
"420 1298 QCURVE SMOOTH",
"516 1298 OFFCURVE",
"594 1178 OFFCURVE",
"594 1083 QCURVE SMOOTH",
"594 991 OFFCURVE",
"579 885 OFFCURVE",
"545 801 OFFCURVE",
"485 717 OFFCURVE",
"440 647 QCURVE SMOOTH",
"133 180 LINE",
"133 0 LINE",
"788 0 LINE"
);
}
);
width = 962;
}
);
note = two;
unicode = 0032;
},
{
glyphname = three;
layers = (
{
layerId = "BB6B0684-34D4-4B80-99D1-F5F29B570554";
paths = (
{
closed = 1;
nodes = (
"684 741 OFFCURVE",
"583 756 QCURVE",
"669 782 OFFCURVE",
"739 948 OFFCURVE",
"739 1053 QCURVE SMOOTH",
"739 1167 OFFCURVE",
"694 1319 OFFCURVE",
"610 1411 OFFCURVE",
"487 1448 OFFCURVE",
"407 1448 QCURVE SMOOTH",
"368 1448 OFFCURVE",
"286 1438 OFFCURVE",
"219 1425 OFFCURVE",
"167 1415 OFFCURVE",
"159 1413 QCURVE",
"159 1264 LINE",
"204 1274 OFFCURVE",
"344 1298 OFFCURVE",
"411 1298 QCURVE SMOOTH",
"489 1298 OFFCURVE",
"565 1194 OFFCURVE",
"565 1071 QCURVE SMOOTH",
"565 1040 OFFCURVE",
"557 954 OFFCURVE",
"524 874 OFFCURVE",
"452 819 OFFCURVE",
"391 819 QCURVE SMOOTH",
"243 819 LINE",
"243 670 LINE",
"411 670 LINE SMOOTH",
"520 670 OFFCURVE",
"587 528 OFFCURVE",
"587 385 QCURVE SMOOTH",
"587 266 OFFCURVE",
"493 141 OFFCURVE",
"415 141 QCURVE SMOOTH",
"382 141 OFFCURVE",
"305 150 OFFCURVE",
"231 160 OFFCURVE",
"167 170 OFFCURVE",
"149 174 QCURVE",
"149 20 LINE",
"155 18 OFFCURVE",
"212 8 OFFCURVE",
"292 -4 OFFCURVE",
"380 -14 OFFCURVE",
"417 -14 QCURVE SMOOTH",
"589 -14 OFFCURVE",
"763 176 OFFCURVE",
"763 406 QCURVE SMOOTH",
"763 557 OFFCURVE"
);
}
);
width = 962;
}
);
note = three;
unicode = 0033;
},
{
glyphname = four;
layers = (
{
layerId = "BB6B0684-34D4-4B80-99D1-F5F29B570554";
paths = (
{
closed = 1;
nodes = (
"864 469 LINE",
"721 469 LINE",
"721 936 LINE",
"561 936 LINE",
"547 469 LINE",
"315 469 LINE",
"510 1434 LINE",
"344 1434 LINE",
"141 496 LINE",
"141 319 LINE",
"547 319 LINE",
"547 0 LINE",
"721 0 LINE",
"721 319 LINE",
"864 319 LINE"
);
}
);
width = 962;
}
);
note = four;
unicode = 0034;
},
{
glyphname = five;
layers = (
{
layerId = "BB6B0684-34D4-4B80-99D1-F5F29B570554";
paths = (
{
closed = 1;
nodes = (
"737 1434 LINE",
"194 1434 LINE",
"194 713 LINE",
"420 713 LINE SMOOTH",
"471 713 OFFCURVE",
"541 686 OFFCURVE",
"584 618 OFFCURVE",
"602 502 OFFCURVE",
"602 414 QCURVE SMOOTH",
"602 283 OFFCURVE",
"530 135 OFFCURVE",
"438 135 QCURVE SMOOTH",
"352 135 OFFCURVE",
"203 164 OFFCURVE",
"174 170 QCURVE",
"174 20 LINE",
"221 10 OFFCURVE",
"352 -14 OFFCURVE",
"430 -14 QCURVE SMOOTH",
"514 -14 OFFCURVE",
"645 29 OFFCURVE",
"733 133 OFFCURVE",
"778 305 OFFCURVE",
"778 434 QCURVE SMOOTH",
"778 545 OFFCURVE",
"745 707 OFFCURVE",
"663 811 OFFCURVE",
"520 862 OFFCURVE",
"410 862 QCURVE SMOOTH",
"369 862 LINE",
"369 1284 LINE",
"737 1284 LINE"
);
}
);
width = 962;
}
);
note = five;
unicode = 0035;
},
{
glyphname = six;
layers = (
{
layerId = "BB6B0684-34D4-4B80-99D1-F5F29B570554";
paths = (
{
closed = 1;
nodes = (
"821 727 OFFCURVE",
"756 846 OFFCURVE",
"629 909 OFFCURVE",
"520 909 QCURVE SMOOTH",
"442 909 OFFCURVE",
"338 868 OFFCURVE",
"303 846 QCURVE",
"307 995 OFFCURVE",
"338 1176 OFFCURVE",
"395 1274 OFFCURVE",
"479 1305 OFFCURVE",
"535 1305 QCURVE SMOOTH",
"600 1305 OFFCURVE",
"711 1282 OFFCURVE",
"752 1272 QCURVE",
"752 1417 LINE",
"739 1421 OFFCURVE",
"692 1432 OFFCURVE",
"637 1442 OFFCURVE",
"580 1448 OFFCURVE",
"555 1448 QCURVE SMOOTH",
"459 1448 OFFCURVE",
"301 1397 OFFCURVE",
"190 1251 OFFCURVE",
"129 989 OFFCURVE",
"129 778 QCURVE SMOOTH",
"129 522 OFFCURVE",
"168 211 OFFCURVE",
"252 41 OFFCURVE",
"385 -14 OFFCURVE",
"479 -14 QCURVE SMOOTH",
"559 -14 OFFCURVE",
"692 33 OFFCURVE",
"788 141 OFFCURVE",
"842 319 OFFCURVE",
"842 451 QCURVE SMOOTH",
"842 557 OFFCURVE"
);
},
{
closed = 1;
nodes = (
"625 723 OFFCURVE",
"659 643 OFFCURVE",
"668 518 OFFCURVE",
"668 432 QCURVE SMOOTH",
"668 287 OFFCURVE",
"578 133 OFFCURVE",
"479 133 QCURVE SMOOTH",
"434 133 OFFCURVE",
"369 168 OFFCURVE",
"326 289 OFFCURVE",
"303 516 OFFCURVE",
"303 707 QCURVE",
"322 717 OFFCURVE",
"428 762 OFFCURVE",
"506 762 QCURVE SMOOTH",
"561 762 OFFCURVE"
);
}
);
width = 962;
}
);
note = six;
unicode = 0036;
},
{
glyphname = seven;
layers = (
{
layerId = "BB6B0684-34D4-4B80-99D1-F5F29B570554";
paths = (
{
closed = 1;
nodes = (
"747 1434 LINE",
"122 1434 LINE",
"122 1280 LINE",
"577 1280 LINE",
"235 0 LINE",
"417 0 LINE",
"747 1235 LINE"
);
}
);
width = 962;
}
);
note = seven;
unicode = 0037;
},
{
glyphname = eight;
layers = (
{
layerId = "BB6B0684-34D4-4B80-99D1-F5F29B570554";
paths = (
{
closed = 1;
nodes = (
"588 133 OFFCURVE",
"481 133 QCURVE SMOOTH",
"375 133 OFFCURVE",
"270 240 OFFCURVE",
"270 385 QCURVE SMOOTH",
"270 455 OFFCURVE",
"282 549 OFFCURVE",
"315 616 OFFCURVE",
"370 664 OFFCURVE",
"411 686 QCURVE",
"504 686 OFFCURVE",
"614 653 OFFCURVE",
"674 582 OFFCURVE",
"692 467 OFFCURVE",
"692 385 QCURVE SMOOTH",
"692 240 OFFCURVE"
);
},
{
closed = 1;
nodes = (
"614 842 OFFCURVE",
"540 811 QCURVE",
"467 811 OFFCURVE",
"370 840 OFFCURVE",
"315 901 OFFCURVE",
"295 1001 OFFCURVE",
"295 1071 QCURVE SMOOTH",
"295 1186 OFFCURVE",
"377 1300 OFFCURVE",
"481 1300 QCURVE SMOOTH",
"585 1300 OFFCURVE",
"667 1186 OFFCURVE",
"667 1071 QCURVE SMOOTH",
"667 983 OFFCURVE"
);
},
{
closed = 1;
nodes = (
"778 739 OFFCURVE",
"678 762 QCURVE",
"725 788 OFFCURVE",
"786 848 OFFCURVE",
"823 918 OFFCURVE",
"837 1001 OFFCURVE",
"837 1053 QCURVE SMOOTH",
"837 1167 OFFCURVE",
"786 1319 OFFCURVE",
"692 1411 OFFCURVE",
"561 1448 OFFCURVE",
"481 1448 QCURVE SMOOTH",
"401 1448 OFFCURVE",
"270 1411 OFFCURVE",
"176 1319 OFFCURVE",
"125 1167 OFFCURVE",
"125 1053 QCURVE SMOOTH",
"125 948 OFFCURVE",
"200 772 OFFCURVE",
"274 737 QCURVE",
"241 717 OFFCURVE",
"178 670 OFFCURVE",
"127 598 OFFCURVE",
"96 489 OFFCURVE",
"96 406 QCURVE SMOOTH",
"96 190 OFFCURVE",
"274 -14 OFFCURVE",
"481 -14 QCURVE SMOOTH",
"688 -14 OFFCURVE",
"866 190 OFFCURVE",
"866 406 QCURVE SMOOTH",
"866 557 OFFCURVE"
);
}
);
width = 962;
}
);
note = eight;
unicode = 0038;
},
{
glyphname = nine;
layers = (
{
layerId = "BB6B0684-34D4-4B80-99D1-F5F29B570554";
paths = (
{
closed = 1;
nodes = (
"137 715 OFFCURVE",
"204 588 OFFCURVE",
"331 524 OFFCURVE",
"436 524 QCURVE SMOOTH",
"511 524 OFFCURVE",
"618 565 OFFCURVE",
"651 586 QCURVE",
"649 438 OFFCURVE",
"622 258 OFFCURVE",
"573 164 OFFCURVE",
"495 133 OFFCURVE",
"442 133 QCURVE SMOOTH",
"376 133 OFFCURVE",
"266 156 OFFCURVE",
"225 166 QCURVE",
"225 16 LINE",
"237 12 OFFCURVE",
"284 2 OFFCURVE",
"339 -8 OFFCURVE",
"397 -14 OFFCURVE",
"421 -14 QCURVE SMOOTH",
"522 -14 OFFCURVE",
"673 29 OFFCURVE",
"776 180 OFFCURVE",
"827 469 OFFCURVE",
"827 717 QCURVE SMOOTH",
"827 940 OFFCURVE",
"792 1225 OFFCURVE",
"710 1386 OFFCURVE",
"575 1448 OFFCURVE",
"474 1448 QCURVE SMOOTH",
"399 1448 OFFCURVE",
"268 1403 OFFCURVE",
"169 1300 OFFCURVE",
"114 1137 OFFCURVE",
"114 1018 QCURVE SMOOTH",
"114 899 OFFCURVE"
);
},
{
closed = 1;
nodes = (
"331 711 OFFCURVE",
"296 791 OFFCURVE",
"288 915 OFFCURVE",
"288 1001 QCURVE SMOOTH",
"288 1147 OFFCURVE",
"374 1300 OFFCURVE",
"468 1300 QCURVE SMOOTH",
"517 1300 OFFCURVE",
"587 1266 OFFCURVE",
"630 1145 OFFCURVE",
"653 918 OFFCURVE",
"653 727 QCURVE",
"632 717 OFFCURVE",
"528 672 OFFCURVE",
"450 672 QCURVE SMOOTH",
"395 672 OFFCURVE"
);
}
);
width = 962;
}
);
note = nine;
unicode = 0039;
},
{
glyphname = colon;
layers = (
{
layerId = "BB6B0684-34D4-4B80-99D1-F5F29B570554";
paths = (
{
closed = 1;
nodes = (
"338 205 LINE",
"133 205 LINE",
"133 0 LINE",
"338 0 LINE"
);
},
{
closed = 1;
nodes = (
"338 1024 LINE",
"133 1024 LINE",
"133 819 LINE",
"338 819 LINE"
);
}
);
width = 471;
}
);
note = colon;
unicode = 003A;
},
{
glyphname = semicolon;
layers = (
{
layerId = "BB6B0684-34D4-4B80-99D1-F5F29B570554";
paths = (
{
closed = 1;
nodes = (
"338 205 LINE",
"133 205 LINE",
"133 0 LINE",
"51 -287 LINE",
"190 -287 LINE",
"338 0 LINE"
);
},
{
closed = 1;
nodes = (
"338 1024 LINE",
"133 1024 LINE",
"133 819 LINE",
"338 819 LINE"
);
}
);
width = 471;
}
);
note = semicolon;
unicode = 003B;
},
{
glyphname = less;
layers = (
{
layerId = "BB6B0684-34D4-4B80-99D1-F5F29B570554";
paths = (
{
closed = 1;
nodes = (
"952 408 LINE",
"317 688 LINE",
"952 967 LINE",
"952 1155 LINE",
"174 788 LINE",
"174 573 LINE",
"952 215 LINE"
);
}
);
width = 1126;
}
);
note = less;
unicode = 003C;
},
{
glyphname = equal;
layers = (
{
layerId = "BB6B0684-34D4-4B80-99D1-F5F29B570554";
paths = (
{
closed = 1;
nodes = (
"952 512 LINE",
"174 512 LINE",
"174 358 LINE",
"952 358 LINE"
);
},
{
closed = 1;
nodes = (
"952 922 LINE",
"174 922 LINE",
"174 768 LINE",
"952 768 LINE"
);
}
);
width = 1126;
}
);
note = equal;
unicode = 003D;
},
{
glyphname = greater;
layers = (
{
layerId = "BB6B0684-34D4-4B80-99D1-F5F29B570554";
paths = (
{
closed = 1;
nodes = (
"952 788 LINE",
"174 1155 LINE",
"174 967 LINE",
"821 688 LINE",
"174 408 LINE",
"174 215 LINE",
"952 573 LINE"
);
}
);
width = 1126;
}
);
note = greater;
unicode = 003E;
},
{
glyphname = question;
layers = (
{
layerId = "BB6B0684-34D4-4B80-99D1-F5F29B570554";
paths = (
{
closed = 1;
nodes = (
"417 205 LINE",
"212 205 LINE",
"212 0 LINE",
"417 0 LINE"
);
},
{
closed = 1;
nodes = (
"614 1348 OFFCURVE",
"520 1421 OFFCURVE",
"384 1448 OFFCURVE",
"300 1448 QCURVE SMOOTH",
"274 1448 OFFCURVE",
"208 1442 OFFCURVE",
"147 1432 OFFCURVE",
"91 1419 OFFCURVE",
"71 1415 QCURVE",
"71 1266 LINE",
"118 1276 OFFCURVE",
"257 1298 OFFCURVE",
"321 1298 QCURVE SMOOTH",
"399 1298 OFFCURVE",
"491 1225 OFFCURVE",
"491 1124 QCURVE SMOOTH",
"491 1075 OFFCURVE",
"485 1012 OFFCURVE",
"456 950 OFFCURVE",
"399 879 OFFCURVE",
"350 819 QCURVE SMOOTH",
"227 674 LINE",
"227 426 LINE",
"401 426 LINE",
"401 623 LINE",
"511 754 LINE SMOOTH",
"563 815 OFFCURVE",
"624 895 OFFCURVE",
"655 967 OFFCURVE",
"665 1047 OFFCURVE",
"665 1106 QCURVE SMOOTH",
"665 1214 OFFCURVE"
);
}
);
width = 737;
}
);
note = question;
unicode = 003F;
},
{
glyphname = at;
layers = (
{
layerId = "BB6B0684-34D4-4B80-99D1-F5F29B570554";
paths = (
{
closed = 1;
nodes = (
"967 553 OFFCURVE",
"950 504 OFFCURVE",
"913 465 OFFCURVE",
"852 438 OFFCURVE",
"807 438 QCURVE SMOOTH",
"772 438 OFFCURVE",
"715 457 OFFCURVE",
"676 510 OFFCURVE",
"653 612 OFFCURVE",
"653 694 QCURVE SMOOTH",
"653 784 OFFCURVE",
"692 895 OFFCURVE",
"758 956 OFFCURVE",
"844 977 OFFCURVE",
"891 977 QCURVE SMOOTH",
"913 977 OFFCURVE",
"954 971 OFFCURVE",
"967 967 QCURVE",
"967 575 LINE SMOOTH"
);
},
{
closed = 1;
nodes = (
"1423 1262 OFFCURVE",
"1268 1399 OFFCURVE",
"1016 1448 OFFCURVE",
"836 1448 QCURVE SMOOTH",
"653 1448 OFFCURVE",
"401 1378 OFFCURVE",
"244 1208 OFFCURVE",
"174 924 OFFCURVE",
"174 707 QCURVE SMOOTH",
"174 510 OFFCURVE",
"229 236 OFFCURVE",
"377 63 OFFCURVE",
"631 -14 OFFCURVE",
"827 -14 QCURVE SMOOTH",
"864 -14 OFFCURVE",
"954 -10 OFFCURVE",
"1042 -2 OFFCURVE",
"1122 6 OFFCURVE",
"1149 10 QCURVE",
"1149 156 LINE",
"1128 154 OFFCURVE",
"1051 145 OFFCURVE",
"958 137 OFFCURVE",
"864 131 OFFCURVE",
"827 131 QCURVE SMOOTH",
"670 131 OFFCURVE",
"479 193 OFFCURVE",
"377 330 OFFCURVE",
"344 549 OFFCURVE",
"344 707 QCURVE SMOOTH",
"344 883 OFFCURVE",
"383 1112 OFFCURVE",
"489 1247 OFFCURVE",
"682 1303 OFFCURVE",
"836 1303 QCURVE SMOOTH",
"993 1303 OFFCURVE",
"1186 1266 OFFCURVE",
"1290 1161 OFFCURVE",
"1325 973 OFFCURVE",
"1325 821 QCURVE SMOOTH",
"1325 717 OFFCURVE",
"1317 551 OFFCURVE",
"1290 434 OFFCURVE",
"1243 371 OFFCURVE",
"1202 371 QCURVE SMOOTH",
"1165 371 OFFCURVE",
"1126 422 OFFCURVE",
"1126 453 QCURVE SMOOTH",
"1126 1085 LINE",
"1079 1096 OFFCURVE",
"965 1114 OFFCURVE",
"917 1114 QCURVE SMOOTH",
"829 1114 OFFCURVE",
"672 1079 OFFCURVE",
"557 985 OFFCURVE",
"489 819 OFFCURVE",
"489 686 QCURVE SMOOTH",
"489 561 OFFCURVE",
"539 408 OFFCURVE",
"618 324 OFFCURVE",
"715 295 OFFCURVE",
"764 295 QCURVE SMOOTH",
"850 295 OFFCURVE",
"977 350 OFFCURVE",
"1005 391 QCURVE",
"1014 348 OFFCURVE",
"1057 289 OFFCURVE",
"1112 254 OFFCURVE",
"1173 238 OFFCURVE",
"1198 238 QCURVE SMOOTH",
"1296 238 OFFCURVE",
"1413 332 OFFCURVE",
"1474 494 OFFCURVE",
"1495 705 OFFCURVE",
"1495 821 QCURVE SMOOTH",
"1495 1018 OFFCURVE"
);
}
);
width = 1669;
}
);
note = at;
unicode = 0040;
},
{
glyphname = A;
layers = (
{
layerId = "BB6B0684-34D4-4B80-99D1-F5F29B570554";
paths = (
{
closed = 1;
nodes = (
"346 516 LINE",
"512 1298 LINE",
"680 516 LINE"
);
},
{
closed = 1;
nodes = (
"633 1434 LINE",
"397 1434 LINE",
"51 0 LINE",
"233 0 LINE",
"313 362 LINE",
"713 362 LINE",
"790 0 LINE",
"973 0 LINE"
);
}
);
width = 1024;
}
);
note = A;
unicode = 0041;
},
{
glyphname = B;
layers = (
{
layerId = "BB6B0684-34D4-4B80-99D1-F5F29B570554";
paths = (
{
closed = 1;
nodes = (
"711 217 OFFCURVE",
"655 156 OFFCURVE",
"582 135 OFFCURVE",
"541 135 QCURVE SMOOTH",
"508 135 OFFCURVE",
"442 139 OFFCURVE",
"414 141 QCURVE SMOOTH",
"381 143 OFFCURVE",
"352 145 QCURVE",
"352 680 LINE",
"543 680 LINE SMOOTH",
"655 680 OFFCURVE",
"743 553 OFFCURVE",
"743 418 QCURVE SMOOTH",
"743 328 OFFCURVE"
);
},
{
closed = 1;
nodes = (
"676 885 OFFCURVE",
"620 840 OFFCURVE",
"553 827 OFFCURVE",
"522 827 QCURVE SMOOTH",
"352 827 LINE",
"352 1288 LINE",
"375 1290 OFFCURVE",
"401 1294 QCURVE SMOOTH",
"448 1300 OFFCURVE",
"522 1300 QCURVE SMOOTH",
"637 1300 OFFCURVE",
"713 1186 OFFCURVE",
"713 1059 QCURVE SMOOTH",
"713 977 OFFCURVE"
);
},
{
closed = 1;
nodes = (
"887 635 OFFCURVE",
"827 711 OFFCURVE",
"758 754 OFFCURVE",
"727 764 QCURVE",
"788 791 OFFCURVE",
"891 944 OFFCURVE",
"891 1073 QCURVE SMOOTH",
"891 1176 OFFCURVE",
"838 1319 OFFCURVE",
"735 1409 OFFCURVE",
"590 1448 OFFCURVE",
"498 1448 QCURVE SMOOTH",
"448 1448 OFFCURVE",
"334 1446 OFFCURVE",
"287 1442 QCURVE SMOOTH",
"231 1438 OFFCURVE",
"174 1434 QCURVE",
"174 0 LINE",
"227 -4 OFFCURVE",
"285 -8 QCURVE SMOOTH",
"334 -12 OFFCURVE",
"457 -14 OFFCURVE",
"522 -14 QCURVE SMOOTH",
"614 -14 OFFCURVE",
"764 29 OFFCURVE",
"868 133 OFFCURVE",
"926 303 OFFCURVE",
"926 432 QCURVE SMOOTH",
"926 518 OFFCURVE"
);
}
);
width = 1048;
}
);
note = B;
unicode = 0042;
},
{
glyphname = C;
layers = (
{
layerId = "BB6B0684-34D4-4B80-99D1-F5F29B570554";
paths = (
{
closed = 1;
nodes = (
"735 160 OFFCURVE",
"600 139 OFFCURVE",
"536 139 QCURVE SMOOTH",
"481 139 OFFCURVE",
"399 178 OFFCURVE",
"344 301 OFFCURVE",
"315 532 OFFCURVE",
"315 725 QCURVE SMOOTH",
"315 911 OFFCURVE",
"342 1135 OFFCURVE",
"395 1255 OFFCURVE",
"479 1294 OFFCURVE",
"534 1294 QCURVE SMOOTH",
"594 1294 OFFCURVE",
"723 1280 OFFCURVE",
"774 1268 QCURVE",
"774 1419 LINE",
"733 1430 OFFCURVE",
"620 1448 OFFCURVE",
"571 1448 QCURVE SMOOTH",
"459 1448 OFFCURVE",
"295 1397 OFFCURVE",
"186 1243 OFFCURVE",
"133 967 OFFCURVE",
"133 739 QCURVE SMOOTH",
"133 510 OFFCURVE",
"180 217 OFFCURVE",
"280 49 OFFCURVE",
"436 -14 OFFCURVE",
"547 -14 QCURVE SMOOTH",
"571 -14 OFFCURVE",
"637 -6 OFFCURVE",
"700 4 OFFCURVE",
"758 16 OFFCURVE",
"774 20 QCURVE",
"774 170 LINE"
);
}
);
width = 866;
}
);
note = C;
unicode = 0043;
},
{
glyphname = D;
layers = (
{
layerId = "BB6B0684-34D4-4B80-99D1-F5F29B570554";
paths = (
{
closed = 1;
nodes = (
"731 330 OFFCURVE",
"676 193 OFFCURVE",
"596 135 OFFCURVE",
"549 135 QCURVE SMOOTH",
"516 135 OFFCURVE",
"446 137 OFFCURVE",
"418 139 QCURVE SMOOTH",
"383 141 OFFCURVE",
"352 143 QCURVE",
"352 1290 LINE",
"387 1292 OFFCURVE",
"424 1294 QCURVE SMOOTH",
"455 1296 OFFCURVE",
"522 1298 OFFCURVE",
"551 1298 QCURVE SMOOTH",
"598 1298 OFFCURVE",
"674 1257 OFFCURVE",
"731 1135 OFFCURVE",
"762 909 OFFCURVE",
"762 725 QCURVE SMOOTH",
"762 557 OFFCURVE"
);
},
{
closed = 1;
nodes = (
"889 1243 OFFCURVE",
"778 1397 OFFCURVE",
"614 1448 OFFCURVE",
"506 1448 QCURVE SMOOTH",
"453 1448 OFFCURVE",
"336 1446 OFFCURVE",
"287 1442 QCURVE SMOOTH",
"229 1438 OFFCURVE",
"174 1434 QCURVE",
"174 0 LINE",
"231 -4 OFFCURVE",
"293 -8 QCURVE SMOOTH",
"346 -12 OFFCURVE",
"471 -14 OFFCURVE",
"530 -14 QCURVE SMOOTH",
"633 -14 OFFCURVE",
"788 49 OFFCURVE",
"893 217 OFFCURVE",
"944 510 OFFCURVE",
"944 739 QCURVE SMOOTH",
"944 967 OFFCURVE"
);
}
);
width = 1077;
}
);
note = D;
unicode = 0044;
},
{
glyphname = E;
layers = (
{
layerId = "BB6B0684-34D4-4B80-99D1-F5F29B570554";
paths = (
{
closed = 1;
nodes = (
"846 150 LINE",
"352 150 LINE",
"352 666 LINE",
"795 666 LINE",
"795 815 LINE",
"352 815 LINE",
"352 1284 LINE",
"846 1284 LINE",
"846 1434 LINE",
"174 1434 LINE",
"174 0 LINE",
"846 0 LINE"
);
}
);
width = 968;
}
);
note = E;
unicode = 0045;
},
{
glyphname = F;
layers = (
{
layerId = "BB6B0684-34D4-4B80-99D1-F5F29B570554";
paths = (
{
closed = 1;
nodes = (
"846 1434 LINE",
"174 1434 LINE",
"174 0 LINE",
"352 0 LINE",
"352 645 LINE",
"795 645 LINE",
"795 795 LINE",
"352 795 LINE",
"352 1284 LINE",
"846 1284 LINE"
);
}
);
width = 937;
}
);
note = F;
unicode = 0046;
},
{
glyphname = G;
layers = (
{
layerId = "BB6B0684-34D4-4B80-99D1-F5F29B570554";
paths = (
{
closed = 1;
nodes = (
"528 754 LINE",
"528 604 LINE",
"711 604 LINE",
"711 150 LINE",
"670 143 OFFCURVE",
"584 135 OFFCURVE",
"549 135 QCURVE SMOOTH",
"487 135 OFFCURVE",
"399 174 OFFCURVE",
"342 299 OFFCURVE",
"315 532 OFFCURVE",
"315 725 QCURVE SMOOTH",
"315 911 OFFCURVE",
"346 1137 OFFCURVE",
"409 1260 OFFCURVE",
"506 1298 OFFCURVE",
"571 1298 QCURVE SMOOTH",
"637 1298 OFFCURVE",
"772 1284 OFFCURVE",
"838 1272 QCURVE",
"838 1419 LINE",
"799 1430 OFFCURVE",
"661 1448 OFFCURVE",
"608 1448 QCURVE SMOOTH",
"487 1448 OFFCURVE",
"307 1397 OFFCURVE",
"190 1243 OFFCURVE",
"133 967 OFFCURVE",
"133 739 QCURVE SMOOTH",
"133 510 OFFCURVE",
"178 217 OFFCURVE",
"278 49 OFFCURVE",
"442 -14 OFFCURVE",
"559 -14 QCURVE SMOOTH",
"643 -14 OFFCURVE",
"799 4 OFFCURVE",
"881 20 QCURVE",
"881 754 LINE"
);
}
);
width = 1024;
}
);
note = G;
unicode = 0047;
},
{
glyphname = H;
layers = (
{
layerId = "BB6B0684-34D4-4B80-99D1-F5F29B570554";
paths = (
{
closed = 1;
nodes = (
"952 1434 LINE",
"774 1434 LINE",
"774 811 LINE",
"352 811 LINE",
"352 1434 LINE",
"174 1434 LINE",
"174 0 LINE",
"352 0 LINE",
"352 659 LINE",
"774 659 LINE",
"774 0 LINE",
"952 0 LINE"
);
}
);
width = 1126;
}
);
note = H;
unicode = 0048;
},
{
glyphname = I;
layers = (
{
layerId = "BB6B0684-34D4-4B80-99D1-F5F29B570554";
paths = (
{
closed = 1;
nodes = (
"557 150 LINE",
"414 150 LINE",
"414 1284 LINE",
"557 1284 LINE",
"557 1434 LINE",
"92 1434 LINE",
"92 1284 LINE",
"235 1284 LINE",
"235 150 LINE",
"92 150 LINE",
"92 0 LINE",
"557 0 LINE"
);
}
);
width = 649;
}
);
note = I;
unicode = 0049;
},
{
glyphname = J;
layers = (
{
layerId = "BB6B0684-34D4-4B80-99D1-F5F29B570554";
paths = (
{
closed = 1;
nodes = (
"655 1434 LINE",
"147 1434 LINE",
"147 1284 LINE",
"477 1284 LINE",
"477 500 LINE SMOOTH",
"477 383 OFFCURVE",
"456 240 OFFCURVE",
"409 164 OFFCURVE",
"333 139 OFFCURVE",
"278 139 QCURVE SMOOTH",
"266 139 OFFCURVE",
"214 141 OFFCURVE",
"155 147 OFFCURVE",
"94 154 OFFCURVE",
"71 158 QCURVE",
"71 6 LINE",
"96 2 OFFCURVE",
"157 -4 OFFCURVE",
"218 -10 OFFCURVE",
"272 -14 OFFCURVE",
"290 -14 QCURVE SMOOTH",
"388 -14 OFFCURVE",
"526 27 OFFCURVE",
"614 141 OFFCURVE",
"655 348 OFFCURVE",
"655 514 QCURVE",
"655 514 LINE"
);
}
);
width = 819;
}
);
note = J;
unicode = 004A;
},
{
glyphname = K;
layers = (
{
layerId = "BB6B0684-34D4-4B80-99D1-F5F29B570554";
paths = (
{
closed = 1;
nodes = (
"536 807 LINE",
"926 1434 LINE",
"735 1434 LINE",
"352 805 LINE",
"352 1434 LINE",
"174 1434 LINE",
"174 0 LINE",
"352 0 LINE",
"352 535 LINE",
"426 657 LINE",
"745 0 LINE",
"946 0 LINE"
);
}
);
width = 1007;
}
);
note = K;
unicode = 004B;
},
{
glyphname = L;
layers = (
{
layerId = "BB6B0684-34D4-4B80-99D1-F5F29B570554";
paths = (
{
closed = 1;
nodes = (
"809 156 LINE",
"352 156 LINE",
"352 1434 LINE",
"174 1434 LINE",
"174 0 LINE",
"809 0 LINE"
);
}
);
width = 839;
}
);
note = L;
unicode = 004C;
},
{
glyphname = M;
layers = (
{
layerId = "BB6B0684-34D4-4B80-99D1-F5F29B570554";
paths = (
{
closed = 1;
nodes = (
"1116 1434 LINE",
"833 1434 LINE",
"649 700 LINE",
"463 1434 LINE",
"174 1434 LINE",
"174 0 LINE",
"338 0 LINE",
"338 1286 LINE",
"557 481 LINE",
"727 481 LINE",
"946 1286 LINE",
"946 0 LINE",
"1116 0 LINE"
);
}
);
width = 1290;
}
);
note = M;
unicode = 004D;
},
{
glyphname = N;
layers = (
{
layerId = "BB6B0684-34D4-4B80-99D1-F5F29B570554";
paths = (
{
closed = 1;
nodes = (
"946 1434 LINE",
"780 1434 LINE",
"780 152 LINE",
"465 1434 LINE",
"174 1434 LINE",
"174 0 LINE",
"340 0 LINE",
"340 1282 LINE",
"653 0 LINE",
"946 0 LINE"
);
}
);
width = 1120;
}
);
note = N;
unicode = 004E;
},
{
glyphname = O;
layers = (
{
layerId = "BB6B0684-34D4-4B80-99D1-F5F29B570554";
paths = (
{
closed = 1;
nodes = (
"782 334 OFFCURVE",
"725 195 OFFCURVE",
"631 135 OFFCURVE",
"561 135 QCURVE SMOOTH",
"491 135 OFFCURVE",
"397 195 OFFCURVE",
"340 334 OFFCURVE",
"315 557 OFFCURVE",
"315 723 QCURVE SMOOTH",
"315 893 OFFCURVE",
"340 1114 OFFCURVE",
"397 1245 OFFCURVE",
"491 1298 OFFCURVE",
"561 1298 QCURVE SMOOTH",
"631 1298 OFFCURVE",
"725 1245 OFFCURVE",
"782 1114 OFFCURVE",
"807 893 OFFCURVE",
"807 723 QCURVE SMOOTH",
"807 557 OFFCURVE"
);
},
{
closed = 1;
nodes = (
"950 1182 OFFCURVE",
"854 1360 OFFCURVE",
"688 1448 OFFCURVE",
"561 1448 QCURVE SMOOTH",
"434 1448 OFFCURVE",
"268 1360 OFFCURVE",
"172 1182 OFFCURVE",
"133 913 OFFCURVE",
"133 733 QCURVE SMOOTH",
"133 545 OFFCURVE",
"172 264 OFFCURVE",
"268 78 OFFCURVE",
"434 -14 OFFCURVE",
"561 -14 QCURVE SMOOTH",
"688 -14 OFFCURVE",
"854 78 OFFCURVE",
"950 264 OFFCURVE",
"989 545 OFFCURVE",
"989 733 QCURVE SMOOTH",
"989 913 OFFCURVE"
);
}
);
width = 1122;
}
);
note = O;
unicode = 004F;
},
{
glyphname = P;
layers = (
{
layerId = "BB6B0684-34D4-4B80-99D1-F5F29B570554";
paths = (
{
closed = 1;
nodes = (
"711 791 OFFCURVE",
"659 721 OFFCURVE",
"588 690 OFFCURVE",
"545 690 QCURVE SMOOTH",
"352 690 LINE",
"352 1288 LINE",
"375 1290 OFFCURVE",
"405 1294 QCURVE SMOOTH",
"459 1300 OFFCURVE",
"545 1300 QCURVE SMOOTH",
"655 1300 OFFCURVE",
"739 1143 OFFCURVE",
"739 989 QCURVE SMOOTH",
"739 905 OFFCURVE"
);
},
{
closed = 1;
nodes = (
"885 1260 OFFCURVE",
"792 1380 OFFCURVE",
"637 1448 OFFCURVE",
"520 1448 QCURVE SMOOTH",
"457 1448 OFFCURVE",
"332 1446 OFFCURVE",
"283 1442 QCURVE SMOOTH",
"225 1438 OFFCURVE",
"174 1434 QCURVE",
"174 0 LINE",
"352 0 LINE",
"352 541 LINE",
"524 541 LINE SMOOTH",
"633 541 OFFCURVE",
"784 598 OFFCURVE",
"879 713 OFFCURVE",
"922 887 OFFCURVE",
"922 1004 QCURVE SMOOTH",
"922 1098 OFFCURVE"
);
}
);
width = 1024;
}
);
note = P;
unicode = 0050;
},
{
glyphname = Q;
layers = (
{
layerId = "BB6B0684-34D4-4B80-99D1-F5F29B570554";
paths = (
{
closed = 1;
nodes = (
"1030 0 LINE",
"786 47 LINE",
"903 125 OFFCURVE",
"989 475 OFFCURVE",
"989 733 QCURVE SMOOTH",
"989 913 OFFCURVE",
"950 1182 OFFCURVE",
"854 1360 OFFCURVE",
"688 1448 OFFCURVE",
"561 1448 QCURVE SMOOTH",
"434 1448 OFFCURVE",
"268 1360 OFFCURVE",
"172 1182 OFFCURVE",
"133 913 OFFCURVE",
"133 733 QCURVE SMOOTH",
"133 545 OFFCURVE",
"172 264 OFFCURVE",
"268 78 OFFCURVE",
"434 -14 OFFCURVE",
"561 -14 QCURVE",
"1030 -172 LINE"
);
},
{
closed = 1;
nodes = (
"782 334 OFFCURVE",
"725 195 OFFCURVE",
"631 135 OFFCURVE",
"561 135 QCURVE SMOOTH",
"491 135 OFFCURVE",
"397 195 OFFCURVE",
"340 334 OFFCURVE",
"315 557 OFFCURVE",
"315 723 QCURVE SMOOTH",
"315 893 OFFCURVE",
"340 1114 OFFCURVE",
"397 1245 OFFCURVE",
"491 1298 OFFCURVE",
"561 1298 QCURVE SMOOTH",
"631 1298 OFFCURVE",
"725 1245 OFFCURVE",
"782 1114 OFFCURVE",
"807 893 OFFCURVE",
"807 723 QCURVE SMOOTH",
"807 557 OFFCURVE"
);
}
);
width = 1122;
}
);
note = Q;
unicode = 0051;
},
{
glyphname = R;
layers = (
{
layerId = "BB6B0684-34D4-4B80-99D1-F5F29B570554";
paths = (
{
closed = 1;
nodes = (
"881 1278 OFFCURVE",
"790 1389 OFFCURVE",
"637 1448 OFFCURVE",
"520 1448 QCURVE SMOOTH",
"457 1448 OFFCURVE",
"332 1446 OFFCURVE",
"283 1442 QCURVE SMOOTH",
"225 1438 OFFCURVE",
"174 1434 QCURVE",
"174 0 LINE",
"352 0 LINE",
"352 594 LINE",
"534 594 LINE",
"797 0 LINE",
"993 0 LINE",
"713 623 LINE",
"823 666 OFFCURVE",
"917 870 OFFCURVE",
"917 1030 QCURVE SMOOTH",
"917 1124 OFFCURVE"
);
},
{
closed = 1;
nodes = (
"709 825 OFFCURVE",
"657 766 OFFCURVE",
"588 743 OFFCURVE",
"545 743 QCURVE SMOOTH",
"352 743 LINE",
"352 1288 LINE",
"375 1290 OFFCURVE",
"405 1294 QCURVE SMOOTH",
"459 1300 OFFCURVE",
"545 1300 QCURVE SMOOTH",
"653 1300 OFFCURVE",
"735 1165 OFFCURVE",
"735 1016 QCURVE SMOOTH",
"735 932 OFFCURVE"
);
}
);
width = 1054;
}
);
note = R;
unicode = 0052;
},
{
glyphname = S;
layers = (
{
layerId = "BB6B0684-34D4-4B80-99D1-F5F29B570554";
paths = (
{
closed = 1;
nodes = (
"734 672 OFFCURVE",
"650 768 OFFCURVE",
"532 821 OFFCURVE",
"458 836 QCURVE SMOOTH",
"409 846 OFFCURVE",
"347 877 OFFCURVE",
"313 930 OFFCURVE",
"300 1014 OFFCURVE",
"300 1075 QCURVE SMOOTH",
"300 1137 OFFCURVE",
"335 1221 OFFCURVE",
"390 1274 OFFCURVE",
"462 1298 OFFCURVE",
"501 1298 QCURVE SMOOTH",
"554 1298 OFFCURVE",
"685 1280 OFFCURVE",
"739 1268 QCURVE",
"739 1417 LINE",
"693 1430 OFFCURVE",
"573 1448 OFFCURVE",
"521 1448 QCURVE SMOOTH",
"433 1448 OFFCURVE",
"286 1407 OFFCURVE",
"177 1313 OFFCURVE",
"118 1163 OFFCURVE",
"118 1053 QCURVE SMOOTH",
"118 963 OFFCURVE",
"153 831 OFFCURVE",
"227 741 OFFCURVE",
"345 684 OFFCURVE",
"431 666 QCURVE SMOOTH",
"472 657 OFFCURVE",
"536 625 OFFCURVE",
"577 561 OFFCURVE",
"597 461 OFFCURVE",
"597 387 QCURVE SMOOTH",
"597 258 OFFCURVE",
"501 135 OFFCURVE",
"394 135 QCURVE SMOOTH",
"311 135 OFFCURVE",
"184 154 OFFCURVE",
"136 166 QCURVE",
"136 16 LINE",
"190 2 OFFCURVE",
"325 -14 OFFCURVE",
"374 -14 QCURVE SMOOTH",
"466 -14 OFFCURVE",
"616 23 OFFCURVE",
"722 117 OFFCURVE",
"780 281 OFFCURVE",
"780 408 QCURVE SMOOTH",
"780 520 OFFCURVE"
);
}
);
width = 888;
}
);
note = S;
unicode = 0053;
},
{
glyphname = T;
layers = (
{
layerId = "BB6B0684-34D4-4B80-99D1-F5F29B570554";
paths = (
{
closed = 1;
nodes = (
"839 1434 LINE",
"30 1434 LINE",
"30 1278 LINE",
"345 1278 LINE",
"345 0 LINE",
"524 0 LINE",
"524 1278 LINE",
"839 1278 LINE"
);
}
);
width = 870;
}
);
note = T;
unicode = 0054;
},
{
glyphname = U;
layers = (
{
layerId = "BB6B0684-34D4-4B80-99D1-F5F29B570554";
paths = (
{
closed = 1;
nodes = (
"753 1434 LINE",
"753 340 LINE SMOOTH",
"753 231 OFFCURVE",
"640 135 OFFCURVE",
"548 135 QCURVE SMOOTH",
"456 135 OFFCURVE",
"341 231 OFFCURVE",
"341 340 QCURVE SMOOTH",
"341 1434 LINE",
"163 1434 LINE",
"163 379 LINE SMOOTH",
"163 172 OFFCURVE",
"372 -14 OFFCURVE",
"548 -14 QCURVE SMOOTH",
"724 -14 OFFCURVE",
"931 172 OFFCURVE",
"931 379 QCURVE SMOOTH",
"931 1434 LINE"
);
}
);
width = 1095;
}
);
note = U;
unicode = 0055;
},
{
glyphname = V;
layers = (
{
layerId = "BB6B0684-34D4-4B80-99D1-F5F29B570554";
paths = (
{
closed = 1;
nodes = (
"720 1434 LINE",
"477 180 LINE",
"251 1434 LINE",
"71 1434 LINE",
"352 0 LINE",
"595 0 LINE",
"896 1434 LINE"
);
}
);
width = 968;
}
);
note = V;
unicode = 0056;
},
{
glyphname = W;
layers = (
{
layerId = "BB6B0684-34D4-4B80-99D1-F5F29B570554";
paths = (
{
closed = 1;
nodes = (
"954 1434 LINE",
"891 113 LINE",
"704 829 LINE",
"536 829 LINE",
"352 113 LINE",
"291 1434 LINE",
"133 1434 LINE",
"203 0 LINE",
"469 0 LINE",
"618 623 LINE",
"756 0 LINE",
"1034 0 LINE",
"1104 1434 LINE"
);
}
);
width = 1206;
}
);
note = W;
unicode = 0057;
},
{
glyphname = X;
layers = (
{
layerId = "BB6B0684-34D4-4B80-99D1-F5F29B570554";
paths = (
{
closed = 1;
nodes = (
"599 743 LINE",
"923 1434 LINE",
"733 1434 LINE",
"511 940 LINE",
"296 1434 LINE",
"102 1434 LINE",
"419 741 LINE",
"71 0 LINE",
"264 0 LINE",
"509 549 LINE",
"743 0 LINE",
"943 0 LINE"
);
}
);
width = 1015;
}
);
note = X;
unicode = 0058;
},
{
glyphname = Y;
layers = (
{
layerId = "BB6B0684-34D4-4B80-99D1-F5F29B570554";
paths = (
{
closed = 1;
nodes = (
"777 1434 LINE",
"507 838 LINE",
"237 1434 LINE",
"40 1434 LINE",
"407 666 LINE",
"407 0 LINE",
"591 0 LINE",
"591 666 LINE",
"964 1434 LINE"
);
}
);
width = 1005;
}
);
note = Y;
unicode = 0059;
},
{
glyphname = Z;
layers = (
{
layerId = "BB6B0684-34D4-4B80-99D1-F5F29B570554";
paths = (
{
closed = 1;
nodes = (
"801 1434 LINE",
"139 1434 LINE",
"139 1282 LINE",
"620 1282 LINE",
"92 180 LINE",
"92 0 LINE",
"780 0 LINE",
"780 152 LINE",
"274 152 LINE",
"801 1253 LINE"
);
}
);
width = 892;
}
);
note = Z;
unicode = 005A;
},
{
glyphname = bracketleft;
layers = (
{
layerId = "BB6B0684-34D4-4B80-99D1-F5F29B570554";
paths = (
{
closed = 1;
nodes = (
"563 -92 LINE",
"338 -92 LINE",
"338 1526 LINE",
"563 1526 LINE",
"563 1679 LINE",
"174 1679 LINE",
"174 -246 LINE",
"563 -246 LINE"
);
}
);
width = 665;
}
);
note = bracketleft;
unicode = 005B;
},
{
glyphname = backslash;
layers = (
{
layerId = "BB6B0684-34D4-4B80-99D1-F5F29B570554";
paths = (
{
closed = 1;
nodes = (
"655 -225 LINE",
"172 1659 LINE",
"10 1659 LINE",
"493 -225 LINE"
);
}
);
width = 665;
}
);
note = backslash;
unicode = 005C;
},
{
glyphname = bracketright;
layers = (
{
layerId = "BB6B0684-34D4-4B80-99D1-F5F29B570554";
paths = (
{
closed = 1;
nodes = (
"491 1679 LINE",
"102 1679 LINE",
"102 1526 LINE",
"327 1526 LINE",
"327 -92 LINE",
"102 -92 LINE",
"102 -246 LINE",
"491 -246 LINE"
);
}
);
width = 665;
}
);
note = bracketright;
unicode = 005D;
},
{
glyphname = asciicircum;
layers = (
{
layerId = "BB6B0684-34D4-4B80-99D1-F5F29B570554";
paths = (
{
closed = 1;
nodes = (
"620 1556 LINE",
"387 1556 LINE",
"92 860 LINE",
"272 860 LINE",
"506 1434 LINE",
"719 860 LINE",
"905 860 LINE"
);
}
);
width = 997;
}
);
note = asciicircum;
unicode = 005E;
},
{
glyphname = underscore;
layers = (
{
layerId = "BB6B0684-34D4-4B80-99D1-F5F29B570554";
paths = (
{
closed = 1;
nodes = (
"1038 -195 LINE",
"6 -195 LINE",
"6 -348 LINE",
"1038 -348 LINE"
);
}
);
width = 1044;
}
);
note = underscore;
unicode = 005F;
},
{
glyphname = grave;
layers = (
{
layerId = "BB6B0684-34D4-4B80-99D1-F5F29B570554";
paths = (
{
closed = 1;
nodes = (
"319 1464 LINE",
"96 1464 LINE",
"366 1188 LINE",
"532 1188 LINE"
);
}
);
width = 620;
}
);
note = grave;
unicode = 0060;
},
{
glyphname = a;
layers = (
{
layerId = "BB6B0684-34D4-4B80-99D1-F5F29B570554";
paths = (
{
closed = 1;
nodes = (
"893 143 LINE",
"843 143 OFFCURVE",
"802 178 OFFCURVE",
"802 209 QCURVE SMOOTH",
"802 700 LINE SMOOTH",
"802 788 OFFCURVE",
"768 915 OFFCURVE",
"688 999 OFFCURVE",
"555 1038 OFFCURVE",
"454 1038 QCURVE SMOOTH",
"378 1038 OFFCURVE",
"235 1014 OFFCURVE",
"178 997 QCURVE",
"178 848 LINE",
"256 870 OFFCURVE",
"387 891 OFFCURVE",
"475 891 QCURVE SMOOTH",
"553 891 OFFCURVE",
"628 807 OFFCURVE",
"628 741 QCURVE SMOOTH",
"628 631 LINE",
"467 631 LINE SMOOTH",
"295 631 OFFCURVE",
"102 455 OFFCURVE",
"102 289 QCURVE SMOOTH",
"102 195 OFFCURVE",
"155 76 OFFCURVE",
"241 8 OFFCURVE",
"352 -14 OFFCURVE",
"407 -14 QCURVE SMOOTH",
"512 -14 OFFCURVE",
"639 45 OFFCURVE",
"677 100 QCURVE",
"690 70 OFFCURVE",
"729 29 OFFCURVE",
"774 8 OFFCURVE",
"817 0 OFFCURVE",
"831 0 QCURVE SMOOTH",
"893 0 LINE"
);
},
{
closed = 1;
nodes = (
"280 205 OFFCURVE",
"280 301 QCURVE SMOOTH",
"280 352 OFFCURVE",
"311 424 OFFCURVE",
"360 471 OFFCURVE",
"424 492 OFFCURVE",
"456 492 QCURVE SMOOTH",
"628 492 LINE",
"628 276 LINE SMOOTH",
"628 262 OFFCURVE",
"612 213 OFFCURVE",
"571 166 OFFCURVE",
"501 133 OFFCURVE",
"448 133 QCURVE SMOOTH",
"366 133 OFFCURVE"
);
}
);
width = 985;
}
);
note = a;
unicode = 0061;
},
{
glyphname = b;
layers = (
{
layerId = "BB6B0684-34D4-4B80-99D1-F5F29B570554";
paths = (
{
closed = 1;
nodes = (
"745 1038 OFFCURVE",
"564 1038 QCURVE SMOOTH",
"433 1038 OFFCURVE",
"337 948 QCURVE",
"337 1434 LINE",
"163 1434 LINE",
"163 10 LINE",
"192 6 OFFCURVE",
"247 -2 OFFCURVE",
"315 -10 OFFCURVE",
"396 -14 OFFCURVE",
"452 -14 QCURVE SMOOTH",
"575 -14 OFFCURVE",
"741 45 OFFCURVE",
"843 182 OFFCURVE",
"888 410 OFFCURVE",
"888 578 QCURVE SMOOTH",
"888 807 OFFCURVE"
);
},
{
closed = 1;
nodes = (
"648 860 OFFCURVE",
"691 782 OFFCURVE",
"710 655 OFFCURVE",
"710 557 QCURVE SMOOTH",
"710 451 OFFCURVE",
"689 293 OFFCURVE",
"638 186 OFFCURVE",
"546 133 OFFCURVE",
"472 133 QCURVE SMOOTH",
"425 133 OFFCURVE",
"360 137 OFFCURVE",
"337 141 QCURVE",
"337 717 LINE SMOOTH",
"337 745 OFFCURVE",
"366 805 OFFCURVE",
"417 858 OFFCURVE",
"489 891 OFFCURVE",
"532 891 QCURVE SMOOTH",
"581 891 OFFCURVE"
);
}
);
width = 1021;
}
);
note = b;
unicode = 0062;
},
{
glyphname = c;
layers = (
{
layerId = "BB6B0684-34D4-4B80-99D1-F5F29B570554";
paths = (
{
closed = 1;
nodes = (
"670 160 OFFCURVE",
"561 139 OFFCURVE",
"477 139 QCURVE SMOOTH",
"438 139 OFFCURVE",
"377 164 OFFCURVE",
"334 238 OFFCURVE",
"311 377 OFFCURVE",
"311 492 QCURVE SMOOTH",
"311 606 OFFCURVE",
"330 756 OFFCURVE",
"371 848 OFFCURVE",
"432 885 OFFCURVE",
"477 885 QCURVE SMOOTH",
"555 885 OFFCURVE",
"657 868 OFFCURVE",
"715 856 QCURVE",
"715 1008 LINE",
"670 1018 OFFCURVE",
"541 1038 OFFCURVE",
"489 1038 QCURVE SMOOTH",
"397 1038 OFFCURVE",
"262 983 OFFCURVE",
"176 862 OFFCURVE",
"133 670 OFFCURVE",
"133 532 QCURVE SMOOTH",
"133 356 OFFCURVE",
"178 141 OFFCURVE",
"268 25 OFFCURVE",
"403 -14 OFFCURVE",
"491 -14 QCURVE SMOOTH",
"547 -14 OFFCURVE",
"665 4 OFFCURVE",
"715 18 QCURVE",
"715 170 LINE"
);
}
);
width = 827;
}
);
note = c;
unicode = 0063;
},
{
glyphname = d;
layers = (
{
layerId = "BB6B0684-34D4-4B80-99D1-F5F29B570554";
paths = (
{
closed = 1;
nodes = (
"868 1434 LINE",
"694 1434 LINE",
"694 1030 LINE",
"672 1034 OFFCURVE",
"614 1038 OFFCURVE",
"579 1038 QCURVE SMOOTH",
"344 1038 OFFCURVE",
"133 770 OFFCURVE",
"133 467 QCURVE SMOOTH",
"133 348 OFFCURVE",
"164 166 OFFCURVE",
"242 47 OFFCURVE",
"369 -14 OFFCURVE",
"467 -14 QCURVE SMOOTH",
"545 -14 OFFCURVE",
"663 39 OFFCURVE",
"711 86 QCURVE",
"725 0 LINE",
"868 0 LINE"
);
},
{
closed = 1;
nodes = (
"379 162 OFFCURVE",
"334 233 OFFCURVE",
"311 354 OFFCURVE",
"311 446 QCURVE SMOOTH",
"311 553 OFFCURVE",
"334 719 OFFCURVE",
"391 831 OFFCURVE",
"485 891 OFFCURVE",
"559 891 QCURVE SMOOTH",
"606 891 OFFCURVE",
"672 887 OFFCURVE",
"694 883 QCURVE",
"694 307 LINE SMOOTH",
"694 281 OFFCURVE",
"670 219 OFFCURVE",
"620 166 OFFCURVE",
"547 133 OFFCURVE",
"500 133 QCURVE SMOOTH",
"450 133 OFFCURVE"
);
}
);
width = 1032;
}
);
note = d;
unicode = 0064;
},
{
glyphname = e;
layers = (
{
layerId = "BB6B0684-34D4-4B80-99D1-F5F29B570554";
paths = (
{
closed = 1;
nodes = (
"835 604 LINE SMOOTH",
"835 807 OFFCURVE",
"682 1038 OFFCURVE",
"506 1038 QCURVE SMOOTH",
"414 1038 OFFCURVE",
"274 981 OFFCURVE",
"180 854 OFFCURVE",
"133 653 OFFCURVE",
"133 512 QCURVE SMOOTH",
"133 340 OFFCURVE",
"182 133 OFFCURVE",
"276 23 OFFCURVE",
"414 -14 OFFCURVE",
"502 -14 QCURVE SMOOTH",
"557 -14 OFFCURVE",
"706 4 OFFCURVE",
"756 18 QCURVE",
"756 166 LINE",
"708 156 OFFCURVE",
"567 133 OFFCURVE",
"481 133 QCURVE SMOOTH",
"442 133 OFFCURVE",
"381 156 OFFCURVE",
"336 225 OFFCURVE",
"309 350 OFFCURVE",
"307 451 QCURVE",
"835 451 LINE"
);
},
{
closed = 1;
nodes = (
"665 762 OFFCURVE",
"665 645 QCURVE SMOOTH",
"665 590 LINE",
"309 590 LINE",
"313 678 OFFCURVE",
"338 795 OFFCURVE",
"383 864 OFFCURVE",
"452 893 OFFCURVE",
"502 893 QCURVE SMOOTH",
"594 893 OFFCURVE"
);
}
);
width = 958;
}
);
note = e;
unicode = 0065;
},
{
glyphname = f;
layers = (
{
layerId = "BB6B0684-34D4-4B80-99D1-F5F29B570554";
paths = (
{
closed = 1;
nodes = (
"616 1024 LINE",
"368 1024 LINE",
"368 1198 LINE SMOOTH",
"368 1243 OFFCURVE",
"426 1300 OFFCURVE",
"481 1300 QCURVE SMOOTH",
"536 1300 OFFCURVE",
"614 1286 OFFCURVE",
"647 1278 QCURVE",
"647 1423 LINE",
"616 1430 OFFCURVE",
"520 1448 OFFCURVE",
"454 1448 QCURVE SMOOTH",
"337 1448 OFFCURVE",
"194 1317 OFFCURVE",
"194 1184 QCURVE SMOOTH",
"194 1024 LINE",
"61 1024 LINE",
"61 874 LINE",
"194 874 LINE",
"194 0 LINE",
"368 0 LINE",
"368 874 LINE",
"616 874 LINE"
);
}
);
width = 636;
}
);
note = f;
unicode = 0066;
},
{
glyphname = g;
layers = (
{
layerId = "BB6B0684-34D4-4B80-99D1-F5F29B570554";
paths = (
{
closed = 1;
nodes = (
"863 877 QCURVE",
"1005 870 LINE",
"1005 1024 LINE",
"708 1010 LINE",
"638 1038 OFFCURVE",
"548 1038 QCURVE SMOOTH",
"462 1038 OFFCURVE",
"308 1010 OFFCURVE",
"192 932 OFFCURVE",
"122 793 OFFCURVE",
"122 682 QCURVE SMOOTH",
"122 582 OFFCURVE",
"169 438 OFFCURVE",
"228 393 QCURVE",
"202 365 OFFCURVE",
"173 283 OFFCURVE",
"173 221 QCURVE SMOOTH",
"173 174 OFFCURVE",
"224 61 OFFCURVE",
"259 29 QCURVE",
"290 33 OFFCURVE",
"382 41 OFFCURVE",
"478 47 OFFCURVE",
"568 51 OFFCURVE",
"597 51 QCURVE SMOOTH",
"697 51 OFFCURVE",
"769 -23 OFFCURVE",
"769 -100 QCURVE SMOOTH",
"769 -160 OFFCURVE",
"681 -240 OFFCURVE",
"577 -240 QCURVE SMOOTH",
"528 -240 OFFCURVE",
"417 -233 OFFCURVE",
"308 -225 OFFCURVE",
"208 -211 OFFCURVE",
"169 -205 QCURVE",
"169 -352 LINE",
"198 -358 OFFCURVE",
"298 -371 OFFCURVE",
"411 -381 OFFCURVE",
"521 -389 OFFCURVE",
"560 -389 QCURVE SMOOTH",
"642 -389 OFFCURVE",
"784 -356 OFFCURVE",
"888 -287 OFFCURVE",
"947 -178 OFFCURVE",
"947 -100 QCURVE SMOOTH",
"947 -6 OFFCURVE",
"896 113 OFFCURVE",
"806 180 OFFCURVE",
"681 205 OFFCURVE",
"607 205 QCURVE SMOOTH",
"556 205 OFFCURVE",
"421 195 OFFCURVE",
"351 188 QCURVE",
"341 219 OFFCURVE",
"341 246 QCURVE SMOOTH",
"341 289 OFFCURVE",
"362 334 QCURVE",
"421 322 OFFCURVE",
"497 322 QCURVE SMOOTH",
"708 322 OFFCURVE",
"910 492 OFFCURVE",
"910 666 QCURVE SMOOTH",
"910 788 OFFCURVE"
);
},
{
closed = 1;
nodes = (
"700 526 OFFCURVE",
"636 479 OFFCURVE",
"548 463 OFFCURVE",
"497 463 QCURVE SMOOTH",
"437 463 OFFCURVE",
"360 494 OFFCURVE",
"315 547 OFFCURVE",
"296 623 OFFCURVE",
"296 666 QCURVE SMOOTH",
"296 784 OFFCURVE",
"394 893 OFFCURVE",
"528 893 QCURVE SMOOTH",
"589 893 OFFCURVE",
"669 858 OFFCURVE",
"718 801 OFFCURVE",
"736 725 OFFCURVE",
"736 682 QCURVE SMOOTH",
"736 612 OFFCURVE"
);
}
);
width = 1067;
}
);
note = g;
unicode = 0067;
},
{
glyphname = h;
layers = (
{
layerId = "BB6B0684-34D4-4B80-99D1-F5F29B570554";
paths = (
{
closed = 1;
nodes = (
"337 717 LINE SMOOTH",
"337 745 OFFCURVE",
"368 805 OFFCURVE",
"423 858 OFFCURVE",
"499 891 OFFCURVE",
"542 891 QCURVE SMOOTH",
"644 891 OFFCURVE",
"708 793 OFFCURVE",
"708 696 QCURVE SMOOTH",
"708 0 LINE",
"882 0 LINE",
"882 676 LINE SMOOTH",
"882 770 OFFCURVE",
"851 907 OFFCURVE",
"779 995 OFFCURVE",
"661 1038 OFFCURVE",
"573 1038 QCURVE SMOOTH",
"501 1038 OFFCURVE",
"384 991 OFFCURVE",
"337 948 QCURVE",
"337 1434 LINE",
"163 1434 LINE",
"163 0 LINE",
"337 0 LINE"
);
}
);
width = 1036;
}
);
note = h;
unicode = 0068;
},
{
glyphname = i;
layers = (
{
layerId = "BB6B0684-34D4-4B80-99D1-F5F29B570554";
paths = (
{
closed = 1;
nodes = (
"348 1434 LINE",
"153 1434 LINE",
"153 1249 LINE",
"348 1249 LINE"
);
},
{
closed = 1;
nodes = (
"337 1024 LINE",
"163 1024 LINE",
"163 0 LINE",
"337 0 LINE"
);
}
);
width = 501;
}
);
note = i;
unicode = 0069;
},
{
glyphname = j;
layers = (
{
layerId = "BB6B0684-34D4-4B80-99D1-F5F29B570554";
paths = (
{
closed = 1;
nodes = (
"164 1024 LINE",
"164 -98 LINE SMOOTH",
"164 -211 OFFCURVE",
"58 -211 QCURVE SMOOTH",
"33 -211 OFFCURVE",
"-61 -207 OFFCURVE",
"-94 -203 QCURVE",
"-94 -348 LINE",
"-53 -352 OFFCURVE",
"35 -358 OFFCURVE",
"84 -358 QCURVE SMOOTH",
"211 -358 OFFCURVE",
"338 -203 OFFCURVE",
"338 -88 QCURVE SMOOTH",
"338 1024 LINE"
);
},
{
closed = 1;
nodes = (
"348 1434 LINE",
"154 1434 LINE",
"154 1249 LINE",
"348 1249 LINE"
);
}
);
width = 501;
}
);
note = j;
unicode = 006A;
},
{
glyphname = k;
layers = (
{
layerId = "BB6B0684-34D4-4B80-99D1-F5F29B570554";
paths = (
{
closed = 1;
nodes = (
"517 629 LINE",
"863 1024 LINE",
"650 1024 LINE",
"337 655 LINE",
"337 1434 LINE",
"163 1434 LINE",
"163 0 LINE",
"337 0 LINE",
"337 438 LINE",
"399 510 LINE",
"675 0 LINE",
"878 0 LINE"
);
}
);
width = 950;
}
);
note = k;
unicode = 006B;
},
{
glyphname = l;
layers = (
{
layerId = "BB6B0684-34D4-4B80-99D1-F5F29B570554";
paths = (
{
closed = 1;
nodes = (
"452 152 OFFCURVE",
"421 143 OFFCURVE",
"405 143 QCURVE SMOOTH",
"364 143 OFFCURVE",
"337 186 OFFCURVE",
"337 240 QCURVE SMOOTH",
"337 1434 LINE",
"163 1434 LINE",
"163 229 LINE SMOOTH",
"163 160 OFFCURVE",
"196 68 OFFCURVE",
"245 14 OFFCURVE",
"306 -6 OFFCURVE",
"337 -6 QCURVE SMOOTH",
"378 -6 OFFCURVE",
"437 6 OFFCURVE",
"460 10 QCURVE",
"460 154 LINE"
);
}
);
width = 542;
}
);
note = l;
unicode = 006C;
},
{
glyphname = m;
layers = (
{
layerId = "BB6B0684-34D4-4B80-99D1-F5F29B570554";
paths = (
{
closed = 1;
nodes = (
"337 717 LINE SMOOTH",
"337 745 OFFCURVE",
"364 805 OFFCURVE",
"413 858 OFFCURVE",
"480 891 OFFCURVE",
"521 891 QCURVE SMOOTH",
"609 891 OFFCURVE",
"665 795 OFFCURVE",
"665 696 QCURVE SMOOTH",
"665 0 LINE",
"839 0 LINE",
"839 717 LINE SMOOTH",
"839 745 OFFCURVE",
"865 805 OFFCURVE",
"915 858 OFFCURVE",
"982 891 OFFCURVE",
"1023 891 QCURVE SMOOTH",
"1111 891 OFFCURVE",
"1167 795 OFFCURVE",
"1167 696 QCURVE SMOOTH",
"1167 0 LINE",
"1341 0 LINE",
"1341 676 LINE SMOOTH",
"1341 864 OFFCURVE",
"1212 1038 OFFCURVE",
"1054 1038 QCURVE SMOOTH",
"894 1038 OFFCURVE",
"796 909 QCURVE",
"763 967 OFFCURVE",
"648 1038 OFFCURVE",
"552 1038 QCURVE SMOOTH",
"415 1038 OFFCURVE",
"321 934 QCURVE",
"306 1024 LINE",
"163 1024 LINE",
"163 0 LINE",
"337 0 LINE"
);
}
);
width = 1495;
}
);
note = m;
unicode = 006D;
},
{
glyphname = n;
layers = (
{
layerId = "BB6B0684-34D4-4B80-99D1-F5F29B570554";
paths = (
{
closed = 1;
nodes = (
"337 717 LINE SMOOTH",
"337 745 OFFCURVE",
"368 805 OFFCURVE",
"423 858 OFFCURVE",
"499 891 OFFCURVE",
"542 891 QCURVE SMOOTH",
"644 891 OFFCURVE",
"708 793 OFFCURVE",
"708 696 QCURVE SMOOTH",
"708 0 LINE",
"882 0 LINE",
"882 676 LINE SMOOTH",
"882 770 OFFCURVE",
"851 907 OFFCURVE",
"779 995 OFFCURVE",
"661 1038 OFFCURVE",
"573 1038 QCURVE SMOOTH",
"421 1038 OFFCURVE",
"321 932 QCURVE",
"306 1024 LINE",
"163 1024 LINE",
"163 0 LINE",
"337 0 LINE"
);
}
);
width = 1036;
}
);
note = n;
unicode = 006E;
},
{
glyphname = o;
layers = (
{
layerId = "BB6B0684-34D4-4B80-99D1-F5F29B570554";
paths = (
{
closed = 1;
nodes = (
"723 1038 OFFCURVE",
"522 1038 QCURVE SMOOTH",
"321 1038 OFFCURVE",
"133 795 OFFCURVE",
"133 532 QCURVE SMOOTH",
"133 371 OFFCURVE",
"184 160 OFFCURVE",
"283 35 OFFCURVE",
"428 -14 OFFCURVE",
"522 -14 QCURVE SMOOTH",
"618 -14 OFFCURVE",
"764 35 OFFCURVE",
"862 160 OFFCURVE",
"911 371 OFFCURVE",
"911 532 QCURVE SMOOTH",
"911 795 OFFCURVE"
);
},
{
closed = 1;
nodes = (
"639 129 OFFCURVE",
"522 129 QCURVE SMOOTH",
"405 129 OFFCURVE",
"311 301 OFFCURVE",
"311 502 QCURVE SMOOTH",
"311 610 OFFCURVE",
"332 762 OFFCURVE",
"379 854 OFFCURVE",
"461 895 OFFCURVE",
"522 895 QCURVE SMOOTH",
"584 895 OFFCURVE",
"665 854 OFFCURVE",
"713 762 OFFCURVE",
"733 610 OFFCURVE",
"733 502 QCURVE SMOOTH",
"733 301 OFFCURVE"
);
}
);
width = 1044;
}
);
note = o;
unicode = 006F;
},
{
glyphname = p;
layers = (
{
layerId = "BB6B0684-34D4-4B80-99D1-F5F29B570554";
paths = (
{
closed = 1;
nodes = (
"337 -6 LINE",
"360 -10 OFFCURVE",
"417 -14 OFFCURVE",
"452 -14 QCURVE SMOOTH",
"575 -14 OFFCURVE",
"741 45 OFFCURVE",
"843 182 OFFCURVE",
"888 410 OFFCURVE",
"888 578 QCURVE SMOOTH",
"888 807 OFFCURVE",
"745 1038 OFFCURVE",
"564 1038 QCURVE SMOOTH",
"421 1038 OFFCURVE",
"323 936 QCURVE",
"306 1024 LINE",
"163 1024 LINE",
"163 -348 LINE",
"337 -348 LINE"
);
},
{
closed = 1;
nodes = (
"648 860 OFFCURVE",
"691 782 OFFCURVE",
"710 655 OFFCURVE",
"710 557 QCURVE SMOOTH",
"710 451 OFFCURVE",
"689 293 OFFCURVE",
"638 186 OFFCURVE",
"546 133 OFFCURVE",
"472 133 QCURVE SMOOTH",
"425 133 OFFCURVE",
"360 137 OFFCURVE",
"337 141 QCURVE",
"337 717 LINE SMOOTH",
"337 745 OFFCURVE",
"366 805 OFFCURVE",
"417 858 OFFCURVE",
"489 891 OFFCURVE",
"532 891 QCURVE SMOOTH",
"581 891 OFFCURVE"
);
}
);
width = 1021;
}
);
note = p;
unicode = 0070;
},
{
glyphname = q;
layers = (
{
layerId = "BB6B0684-34D4-4B80-99D1-F5F29B570554";
paths = (
{
closed = 1;
nodes = (
"868 1014 LINE",
"840 1018 OFFCURVE",
"784 1026 OFFCURVE",
"717 1034 OFFCURVE",
"635 1038 OFFCURVE",
"579 1038 QCURVE SMOOTH",
"344 1038 OFFCURVE",
"133 770 OFFCURVE",
"133 467 QCURVE SMOOTH",
"133 348 OFFCURVE",
"164 166 OFFCURVE",
"242 47 OFFCURVE",
"369 -14 OFFCURVE",
"467 -14 QCURVE SMOOTH",
"539 -14 OFFCURVE",
"649 29 OFFCURVE",
"694 70 QCURVE",
"694 -348 LINE",
"868 -348 LINE"
);
},
{
closed = 1;
nodes = (
"379 162 OFFCURVE",
"334 233 OFFCURVE",
"311 354 OFFCURVE",
"311 446 QCURVE SMOOTH",
"311 553 OFFCURVE",
"334 719 OFFCURVE",
"391 831 OFFCURVE",
"485 891 OFFCURVE",
"559 891 QCURVE SMOOTH",
"606 891 OFFCURVE",
"672 887 OFFCURVE",
"694 883 QCURVE",
"694 307 LINE SMOOTH",
"694 281 OFFCURVE",
"670 219 OFFCURVE",
"620 166 OFFCURVE",
"547 133 OFFCURVE",
"500 133 QCURVE SMOOTH",
"450 133 OFFCURVE"
);
}
);
width = 1032;
}
);
note = q;
unicode = 0071;
},
{
glyphname = r;
layers = (
{
layerId = "BB6B0684-34D4-4B80-99D1-F5F29B570554";
paths = (
{
closed = 1;
nodes = (
"337 631 LINE SMOOTH",
"337 672 OFFCURVE",
"356 756 OFFCURVE",
"399 823 OFFCURVE",
"466 864 OFFCURVE",
"517 864 QCURVE SMOOTH",
"546 864 OFFCURVE",
"614 852 OFFCURVE",
"640 846 QCURVE",
"640 1028 LINE",
"622 1032 OFFCURVE",
"569 1038 OFFCURVE",
"532 1038 QCURVE SMOOTH",
"456 1038 OFFCURVE",
"353 973 OFFCURVE",
"319 920 QCURVE",
"306 1024 LINE",
"163 1024 LINE",
"163 0 LINE",
"337 0 LINE"
);
}
);
width = 692;
}
);
note = r;
unicode = 0072;
},
{
glyphname = s;
layers = (
{
layerId = "BB6B0684-34D4-4B80-99D1-F5F29B570554";
paths = (
{
closed = 1;
nodes = (
"591 580 OFFCURVE",
"431 606 QCURVE SMOOTH",
"300 627 OFFCURVE",
"300 739 QCURVE SMOOTH",
"300 768 OFFCURVE",
"310 821 OFFCURVE",
"343 864 OFFCURVE",
"403 891 OFFCURVE",
"450 891 QCURVE SMOOTH",
"534 891 OFFCURVE",
"632 866 OFFCURVE",
"685 854 QCURVE",
"685 1004 LINE",
"654 1012 OFFCURVE",
"546 1038 OFFCURVE",
"466 1038 QCURVE SMOOTH",
"392 1038 OFFCURVE",
"267 1004 OFFCURVE",
"175 930 OFFCURVE",
"122 813 OFFCURVE",
"122 729 QCURVE SMOOTH",
"122 614 OFFCURVE",
"251 473 OFFCURVE",
"409 444 QCURVE SMOOTH",
"487 430 OFFCURVE",
"538 360 OFFCURVE",
"538 287 QCURVE SMOOTH",
"538 260 OFFCURVE",
"521 205 OFFCURVE",
"487 162 OFFCURVE",
"431 135 OFFCURVE",
"390 135 QCURVE SMOOTH",
"353 135 OFFCURVE",
"278 143 OFFCURVE",
"208 154 OFFCURVE",
"149 164 OFFCURVE",
"130 168 QCURVE",
"130 18 LINE",
"165 8 OFFCURVE",
"288 -14 OFFCURVE",
"376 -14 QCURVE SMOOTH",
"534 -14 OFFCURVE",
"720 127 OFFCURVE",
"720 297 QCURVE SMOOTH",
"720 432 OFFCURVE"
);
}
);
width = 823;
}
);
note = s;
unicode = 0073;
},
{
glyphname = t;
layers = (
{
layerId = "BB6B0684-34D4-4B80-99D1-F5F29B570554";
paths = (
{
closed = 1;
nodes = (
"596 1024 LINE",
"358 1024 LINE",
"358 1270 LINE",
"184 1270 LINE",
"184 1024 LINE",
"51 1024 LINE",
"51 870 LINE",
"184 870 LINE",
"184 256 LINE SMOOTH",
"184 199 OFFCURVE",
"211 100 OFFCURVE",
"268 27 OFFCURVE",
"358 -14 OFFCURVE",
"420 -14 QCURVE SMOOTH",
"475 -14 OFFCURVE",
"575 4 OFFCURVE",
"596 10 QCURVE",
"596 154 LINE",
"573 147 OFFCURVE",
"508 133 OFFCURVE",
"461 133 QCURVE SMOOTH",
"428 133 OFFCURVE",
"389 158 OFFCURVE",
"366 193 OFFCURVE",
"358 231 OFFCURVE",
"358 246 QCURVE SMOOTH",
"358 870 LINE",
"596 870 LINE"
);
}
);
width = 657;
}
);
note = t;
unicode = 0074;
},
{
glyphname = u;
layers = (
{
layerId = "BB6B0684-34D4-4B80-99D1-F5F29B570554";
paths = (
{
closed = 1;
nodes = (
"841 1024 LINE",
"667 1024 LINE",
"667 301 LINE",
"665 274 OFFCURVE",
"636 215 OFFCURVE",
"587 166 OFFCURVE",
"518 133 OFFCURVE",
"475 133 QCURVE SMOOTH",
"427 133 OFFCURVE",
"370 160 OFFCURVE",
"337 213 OFFCURVE",
"327 287 OFFCURVE",
"327 336 QCURVE SMOOTH",
"327 1024 LINE",
"153 1024 LINE",
"153 356 LINE SMOOTH",
"153 262 OFFCURVE",
"182 123 OFFCURVE",
"249 31 OFFCURVE",
"362 -14 OFFCURVE",
"448 -14 QCURVE SMOOTH",
"526 -14 OFFCURVE",
"640 37 OFFCURVE",
"683 84 QCURVE",
"698 0 LINE",
"841 0 LINE"
);
}
);
width = 1005;
}
);
note = u;
unicode = 0075;
},
{
glyphname = v;
layers = (
{
layerId = "BB6B0684-34D4-4B80-99D1-F5F29B570554";
paths = (
{
closed = 1;
nodes = (
"694 1024 LINE",
"479 145 LINE",
"257 1024 LINE",
"71 1024 LINE",
"347 0 LINE",
"599 0 LINE",
"874 1024 LINE"
);
}
);
width = 946;
}
);
note = v;
unicode = 0076;
},
{
glyphname = w;
layers = (
{
layerId = "BB6B0684-34D4-4B80-99D1-F5F29B570554";
paths = (
{
closed = 1;
nodes = (
"1119 1024 LINE",
"953 131 LINE",
"783 840 LINE",
"609 840 LINE",
"427 131 LINE",
"261 1024 LINE",
"81 1024 LINE",
"286 0 LINE",
"548 0 LINE",
"689 555 LINE",
"818 0 LINE",
"1087 0 LINE",
"1289 1024 LINE"
);
}
);
width = 1372;
}
);
note = w;
unicode = 0077;
},
{
glyphname = x;
layers = (
{
layerId = "BB6B0684-34D4-4B80-99D1-F5F29B570554";
paths = (
{
closed = 1;
nodes = (
"575 537 LINE",
"851 1024 LINE",
"661 1024 LINE",
"482 686 LINE",
"306 1024 LINE",
"106 1024 LINE",
"378 528 LINE",
"81 0 LINE",
"274 0 LINE",
"478 379 LINE",
"673 0 LINE",
"878 0 LINE"
);
}
);
width = 950;
}
);
note = x;
unicode = 0078;
},
{
glyphname = y;
layers = (
{
layerId = "BB6B0684-34D4-4B80-99D1-F5F29B570554";
paths = (
{
closed = 1;
nodes = (
"698 1024 LINE",
"497 178 LINE",
"259 1024 LINE",
"71 1024 LINE",
"388 0 LINE",
"429 0 LINE",
"397 -113 LINE SMOOTH",
"372 -205 OFFCURVE",
"315 -205 QCURVE SMOOTH",
"284 -205 OFFCURVE",
"231 -201 OFFCURVE",
"208 -197 QCURVE",
"208 -346 LINE",
"227 -350 OFFCURVE",
"292 -358 OFFCURVE",
"325 -358 QCURVE SMOOTH",
"386 -358 OFFCURVE",
"470 -319 OFFCURVE",
"526 -250 OFFCURVE",
"563 -150 OFFCURVE",
"579 -90 QCURVE SMOOTH",
"876 1024 LINE"
);
}
);
width = 948;
}
);
note = y;
unicode = 0079;
},
{
glyphname = z;
layers = (
{
layerId = "BB6B0684-34D4-4B80-99D1-F5F29B570554";
paths = (
{
closed = 1;
nodes = (
"723 1024 LINE",
"133 1024 LINE",
"133 872 LINE",
"536 872 LINE",
"92 164 LINE",
"92 0 LINE",
"702 0 LINE",
"702 152 LINE",
"280 152 LINE",
"723 842 LINE"
);
}
);
width = 825;
}
);
note = z;
unicode = 007A;
},
{
glyphname = braceleft;
layers = (
{
layerId = "BB6B0684-34D4-4B80-99D1-F5F29B570554";
paths = (
{
closed = 1;
nodes = (
"100 604 OFFCURVE",
"159 592 OFFCURVE",
"206 551 OFFCURVE",
"237 475 OFFCURVE",
"237 412 QCURVE SMOOTH",
"237 4 LINE SMOOTH",
"237 -133 OFFCURVE",
"337 -256 OFFCURVE",
"460 -256 QCURVE SMOOTH",
"481 -256 OFFCURVE",
"536 -250 OFFCURVE",
"552 -246 QCURVE",
"552 -106 LINE",
"542 -109 OFFCURVE",
"509 -113 OFFCURVE",
"489 -113 QCURVE SMOOTH",
"442 -113 OFFCURVE",
"397 -74 OFFCURVE",
"397 -27 QCURVE SMOOTH",
"397 473 LINE SMOOTH",
"397 532 OFFCURVE",
"356 621 OFFCURVE",
"292 680 OFFCURVE",
"216 711 OFFCURVE",
"182 715 QCURVE",
"216 721 OFFCURVE",
"292 754 OFFCURVE",
"356 813 OFFCURVE",
"397 901 OFFCURVE",
"397 961 QCURVE SMOOTH",
"397 1460 LINE SMOOTH",
"397 1507 OFFCURVE",
"442 1546 OFFCURVE",
"489 1546 QCURVE SMOOTH",
"509 1546 OFFCURVE",
"542 1542 OFFCURVE",
"552 1540 QCURVE",
"552 1679 LINE",
"536 1683 OFFCURVE",
"481 1690 OFFCURVE",
"460 1690 QCURVE SMOOTH",
"337 1690 OFFCURVE",
"237 1567 OFFCURVE",
"237 1430 QCURVE SMOOTH",
"237 1022 LINE SMOOTH",
"237 958 OFFCURVE",
"206 883 OFFCURVE",
"159 842 OFFCURVE",
"100 829 OFFCURVE",
"71 829 QCURVE",
"71 604 LINE"
);
}
);
width = 665;
}
);
note = braceleft;
unicode = 007B;
},
{
glyphname = bar;
layers = (
{
layerId = "BB6B0684-34D4-4B80-99D1-F5F29B570554";
paths = (
{
closed = 1;
nodes = (
"379 1659 LINE",
"215 1659 LINE",
"215 -225 LINE",
"379 -225 LINE"
);
}
);
width = 593;
}
);
note = bar;
unicode = 007C;
},
{
glyphname = braceright;
layers = (
{
layerId = "BB6B0684-34D4-4B80-99D1-F5F29B570554";
paths = (
{
closed = 1;
nodes = (
"565 829 OFFCURVE",
"505 842 OFFCURVE",
"458 883 OFFCURVE",
"427 958 OFFCURVE",
"427 1022 QCURVE SMOOTH",
"427 1430 LINE SMOOTH",
"427 1567 OFFCURVE",
"327 1690 OFFCURVE",
"204 1690 QCURVE SMOOTH",
"184 1690 OFFCURVE",
"128 1683 OFFCURVE",
"112 1679 QCURVE",
"112 1540 LINE",
"122 1542 OFFCURVE",
"155 1546 OFFCURVE",
"175 1546 QCURVE SMOOTH",
"223 1546 OFFCURVE",
"268 1507 OFFCURVE",
"268 1460 QCURVE SMOOTH",
"268 961 LINE SMOOTH",
"268 901 OFFCURVE",
"309 813 OFFCURVE",
"372 754 OFFCURVE",
"448 721 OFFCURVE",
"483 715 QCURVE",
"448 711 OFFCURVE",
"372 680 OFFCURVE",
"309 621 OFFCURVE",
"268 532 OFFCURVE",
"268 473 QCURVE SMOOTH",
"268 -27 LINE SMOOTH",
"268 -74 OFFCURVE",
"223 -113 OFFCURVE",
"175 -113 QCURVE SMOOTH",
"155 -113 OFFCURVE",
"122 -109 OFFCURVE",
"112 -106 QCURVE",
"112 -246 LINE",
"128 -250 OFFCURVE",
"184 -256 OFFCURVE",
"204 -256 QCURVE SMOOTH",
"327 -256 OFFCURVE",
"427 -133 OFFCURVE",
"427 4 QCURVE SMOOTH",
"427 412 LINE SMOOTH",
"427 475 OFFCURVE",
"458 551 OFFCURVE",
"505 592 OFFCURVE",
"565 604 OFFCURVE",
"593 604 QCURVE",
"593 829 LINE"
);
}
);
width = 665;
}
);
note = braceright;
unicode = 007D;
},
{
glyphname = asciitilde;
layers = (
{
layerId = "BB6B0684-34D4-4B80-99D1-F5F29B570554";
paths = (
{
closed = 1;
nodes = (
"217 573 OFFCURVE",
"311 618 OFFCURVE",
"364 618 QCURVE SMOOTH",
"407 618 OFFCURVE",
"479 594 OFFCURVE",
"547 563 OFFCURVE",
"618 539 OFFCURVE",
"661 539 QCURVE SMOOTH",
"719 539 OFFCURVE",
"823 575 OFFCURVE",
"870 606 QCURVE",
"870 766 LINE",
"827 737 OFFCURVE",
"733 692 OFFCURVE",
"680 692 QCURVE SMOOTH",
"641 692 OFFCURVE",
"569 717 OFFCURVE",
"498 748 OFFCURVE",
"424 772 OFFCURVE",
"383 772 QCURVE SMOOTH",
"338 772 OFFCURVE",
"246 748 OFFCURVE",
"174 705 QCURVE",
"174 545 LINE"
);
}
);
width = 1044;
}
);
note = asciitilde;
unicode = 007E;
},
{
glyphname = guillemotleft;
layers = (
{
layerId = "BB6B0684-34D4-4B80-99D1-F5F29B570554";
paths = (
{
closed = 1;
nodes = (
"341 612 LINE",
"470 1036 LINE",
"335 1036 LINE",
"153 612 LINE",
"335 188 LINE",
"470 188 LINE"
);
},
{
closed = 1;
nodes = (
"669 612 LINE",
"798 1036 LINE",
"663 1036 LINE",
"481 612 LINE",
"663 188 LINE",
"798 188 LINE"
);
}
);
width = 952;
}
);
note = guillemotleft;
unicode = 00AB;
},
{
glyphname = guillemotright;
layers = (
{
layerId = "BB6B0684-34D4-4B80-99D1-F5F29B570554";
paths = (
{
closed = 1;
nodes = (
"798 612 LINE",
"616 1036 LINE",
"481 1036 LINE",
"610 612 LINE",
"481 188 LINE",
"616 188 LINE"
);
},
{
closed = 1;
nodes = (
"470 612 LINE",
"288 1036 LINE",
"153 1036 LINE",
"282 612 LINE",
"153 188 LINE",
"288 188 LINE"
);
}
);
width = 952;
}
);
note = guillemotright;
unicode = 00BB;
},
{
glyphname = uni1780;
layers = (
{
layerId = "BB6B0684-34D4-4B80-99D1-F5F29B570554";
paths = (
{
closed = 1;
nodes = (
"394 1011 LINE",
"562 1089 LINE",
"509 1149 LINE",
"861 1300 LINE",
"1345 1091 LINE",
"1832 1297 LINE",
"2229 1120 OFFCURVE",
"2353 1110 QCURVE SMOOTH",
"2359 1109 OFFCURVE",
"2365 1109 QCURVE SMOOTH",
"2477 1109 OFFCURVE",
"2500 1280 QCURVE",
"2210 1339 OFFCURVE",
"1898 1500 OFFCURVE",
"1838 1500 QCURVE SMOOTH",
"1776 1500 OFFCURVE",
"1345 1314 QCURVE",
"919 1500 OFFCURVE",
"859 1500 QCURVE SMOOTH",
"799 1500 OFFCURVE",
"200 1230 QCURVE",
"200 1175 LINE"
);
},
{
closed = 1;
nodes = (
"2400 856 OFFCURVE",
"2319 895 QCURVE SMOOTH",
"1820 1130 LINE",
"1350 906 LINE",
"870 1130 LINE",
"371 895 LINE",
"300 856 OFFCURVE",
"300 778 QCURVE SMOOTH",
"300 290 LINE SMOOTH",
"300 150 OFFCURVE",
"437 0 OFFCURVE",
"532 0 QCURVE SMOOTH",
"627 0 OFFCURVE",
"667 133 QCURVE SMOOTH",
"678 170 OFFCURVE",
"678 203 QCURVE SMOOTH",
"678 290 OFFCURVE",
"604 353 QCURVE SMOOTH",
"500 440 OFFCURVE",
"500 480 QCURVE SMOOTH",
"500 728 LINE",
"870 927 LINE",
"1250 728 LINE",
"1250 500 LINE SMOOTH",
"1250 420 OFFCURVE",
"1100 276 OFFCURVE",
"1100 193 QCURVE SMOOTH",
"1100 110 OFFCURVE",
"1287 0 OFFCURVE",
"1369 0 QCURVE SMOOTH",
"1450 0 OFFCURVE",
"1450 100 QCURVE SMOOTH",
"1450 728 LINE",
"1820 927 LINE",
"2200 728 LINE",
"2200 500 LINE SMOOTH",
"2200 420 OFFCURVE",
"2050 276 OFFCURVE",
"2050 193 QCURVE SMOOTH",
"2050 110 OFFCURVE",
"2237 0 OFFCURVE",
"2319 0 QCURVE SMOOTH",
"2400 0 OFFCURVE",
"2400 100 QCURVE SMOOTH",
"2400 778 LINE SMOOTH"
);
}
);
width = 2700;
}
);
note = uni1780;
unicode = 1780;
},
{
glyphname = uni1781;
layers = (
{
layerId = "BB6B0684-34D4-4B80-99D1-F5F29B570554";
paths = (
{
closed = 1;
nodes = (
"596 800 QCURVE SMOOTH",
"745 800 OFFCURVE",
"811 876 QCURVE SMOOTH",
"853 925 OFFCURVE",
"853 982 QCURVE SMOOTH",
"853 1012 OFFCURVE",
"842 1045 QCURVE SMOOTH",
"813 1122 OFFCURVE",
"735 1122 QCURVE SMOOTH",
"719 1122 OFFCURVE",
"702 1119 QCURVE SMOOTH",
"596 1100 OFFCURVE",
"596 980 QCURVE",
"500 980 OFFCURVE",
"500 1110 QCURVE SMOOTH",
"500 1300 OFFCURVE",
"900 1300 QCURVE SMOOTH",
"1300 1300 OFFCURVE",
"1300 1060 QCURVE SMOOTH",
"1300 803 OFFCURVE",
"659 496 QCURVE",
"586 450 OFFCURVE",
"586 382 QCURVE SMOOTH",
"586 304 OFFCURVE",
"681 199 QCURVE SMOOTH",
"858 0 OFFCURVE",
"947 0 QCURVE SMOOTH",
"1037 4 OFFCURVE",
"1224 270 QCURVE SMOOTH",
"1393 510 OFFCURVE",
"1393 669 QCURVE SMOOTH",
"1393 686 OFFCURVE",
"1391 702 QCURVE",
"930 245 LINE",
"836 356 LINE",
"1500 703 OFFCURVE",
"1500 1060 QCURVE SMOOTH",
"1500 1330 OFFCURVE",
"1147 1500 OFFCURVE",
"900 1500 QCURVE SMOOTH",
"653 1500 OFFCURVE",
"300 1320 OFFCURVE",
"300 1110 QCURVE SMOOTH",
"300 800 OFFCURVE"
);
}
);
width = 1800;
}
);
note = uni1781;
unicode = 1781;
},
{
glyphname = uni1782;
layers = (
{
layerId = "BB6B0684-34D4-4B80-99D1-F5F29B570554";
paths = (
{
closed = 1;
nodes = (
"373 1051 LINE",
"487 1109 LINE",
"437 1189 LINE",
"589 1290 LINE",
"897 1181 LINE",
"1163 1307 LINE",
"1311 1209 OFFCURVE",
"1402 1179 QCURVE SMOOTH",
"1416 1174 OFFCURVE",
"1430 1174 QCURVE SMOOTH",
"1508 1174 OFFCURVE",
"1600 1320 QCURVE",
"1424 1379 OFFCURVE",
"1209 1500 OFFCURVE",
"1173 1500 QCURVE SMOOTH",
"1135 1500 OFFCURVE",
"897 1394 QCURVE",
"607 1500 OFFCURVE",
"570 1500 QCURVE SMOOTH",
"534 1500 OFFCURVE",
"450 1440 QCURVE SMOOTH",
"200 1270 LINE",
"200 1215 LINE"
);
},
{
closed = 1;
nodes = (
"300 150 OFFCURVE",
"437 0 OFFCURVE",
"532 0 QCURVE SMOOTH",
"627 0 OFFCURVE",
"667 133 QCURVE SMOOTH",
"678 170 OFFCURVE",
"678 203 QCURVE SMOOTH",
"678 290 OFFCURVE",
"604 353 QCURVE SMOOTH",
"500 440 OFFCURVE",
"500 480 QCURVE SMOOTH",
"500 738 LINE",
"900 937 LINE",
"1300 738 LINE",
"1300 500 LINE SMOOTH",
"1300 420 OFFCURVE",
"1150 276 OFFCURVE",
"1150 193 QCURVE SMOOTH",
"1150 110 OFFCURVE",
"1337 0 OFFCURVE",
"1419 0 QCURVE SMOOTH",
"1500 0 OFFCURVE",
"1500 100 QCURVE SMOOTH",
"1500 788 LINE SMOOTH",
"1500 866 OFFCURVE",
"1425 905 QCURVE SMOOTH",
"900 1160 LINE",
"375 905 LINE SMOOTH",
"300 866 OFFCURVE",
"300 788 QCURVE SMOOTH",
"300 290 LINE SMOOTH"
);
}
);
width = 1800;
}
);
note = uni1782;
unicode = 1782;
},
{
glyphname = uni1783;
layers = (
{
layerId = "BB6B0684-34D4-4B80-99D1-F5F29B570554";
paths = (
{
closed = 1;
nodes = (
"1724 0 QCURVE SMOOTH",
"2030 0 LINE",
"2410 100 OFFCURVE",
"2450 500 QCURVE",
"2450 896 LINE",
"2430 1072 OFFCURVE",
"2251 1154 QCURVE",
"2329 1249 LINE",
"2470 1171 OFFCURVE",
"2538 1171 QCURVE SMOOTH",
"2555 1171 OFFCURVE",
"2568 1176 QCURVE SMOOTH",
"2630 1200 OFFCURVE",
"2650 1343 QCURVE",
"2637 1337 OFFCURVE",
"2620 1337 QCURVE SMOOTH",
"2529 1337 OFFCURVE",
"2316 1500 QCURVE",
"1990 1052 LINE",
"2210 1012 OFFCURVE",
"2250 876 QCURVE",
"2250 500 LINE",
"2200 280 OFFCURVE",
"2000 200 QCURVE",
"1764 200 LINE",
"1620 281 OFFCURVE",
"1531 393 QCURVE",
"1544 443 OFFCURVE",
"1550 500 QCURVE",
"1550 896 LINE",
"1530 1072 OFFCURVE",
"1351 1154 QCURVE",
"1429 1249 LINE",
"1570 1171 OFFCURVE",
"1638 1171 QCURVE SMOOTH",
"1655 1171 OFFCURVE",
"1668 1176 QCURVE SMOOTH",
"1730 1200 OFFCURVE",
"1750 1343 QCURVE",
"1737 1337 OFFCURVE",
"1720 1337 QCURVE SMOOTH",
"1629 1337 OFFCURVE",
"1416 1500 QCURVE",
"1090 1052 LINE",
"1310 1012 OFFCURVE",
"1350 876 QCURVE",
"1350 500 LINE",
"1300 280 OFFCURVE",
"1100 200 QCURVE",
"714 200 LINE",
"540 297 OFFCURVE",
"461 429 QCURVE",
"740 809 OFFCURVE",
"740 884 QCURVE SMOOTH",
"740 977 LINE SMOOTH",
"740 1069 OFFCURVE",
"613 1309 QCURVE SMOOTH",
"509 1500 OFFCURVE",
"461 1500 QCURVE SMOOTH",
"413 1500 OFFCURVE",
"200 1254 OFFCURVE",
"200 1111 QCURVE SMOOTH",
"200 968 OFFCURVE",
"306 961 QCURVE SMOOTH",
"315 960 OFFCURVE",
"323 960 QCURVE SMOOTH",
"414 960 OFFCURVE",
"433 1029 QCURVE SMOOTH",
"439 1051 OFFCURVE",
"439 1071 QCURVE SMOOTH",
"439 1116 OFFCURVE",
"405 1145 QCURVE SMOOTH",
"375 1170 OFFCURVE",
"375 1187 QCURVE SMOOTH",
"375 1197 OFFCURVE",
"386 1204 QCURVE SMOOTH",
"394 1208 OFFCURVE",
"401 1208 QCURVE SMOOTH",
"425 1208 OFFCURVE",
"450 1170 QCURVE SMOOTH",
"543 1028 OFFCURVE",
"543 960 QCURVE SMOOTH",
"543 955 OFFCURVE",
"542 950 QCURVE SMOOTH",
"533 882 LINE",
"200 476 LINE",
"230 310 OFFCURVE",
"594 0 OFFCURVE",
"714 0 QCURVE SMOOTH",
"1100 0 LINE",
"1314 52 OFFCURVE",
"1427 186 QCURVE",
"1598 0 OFFCURVE"
);
}
);
width = 2750;
}
);
note = uni1783;
unicode = 1783;
},
{
glyphname = uni1784;
layers = (
{
layerId = "BB6B0684-34D4-4B80-99D1-F5F29B570554";
paths = (
{
closed = 1;
nodes = (
"448 1899 OFFCURVE",
"441 1806 QCURVE",
"441 1686 OFFCURVE",
"681 1556 OFFCURVE",
"821 1556 QCURVE SMOOTH",
"1020 1556 OFFCURVE",
"1271 1801 OFFCURVE",
"1360 2118 OFFCURVE",
"1360 2225 QCURVE SMOOTH",
"1360 2332 OFFCURVE",
"1305 2332 QCURVE SMOOTH",
"1250 2332 OFFCURVE",
"1210 2156 OFFCURVE",
"1131 1972 OFFCURVE",
"959 1746 OFFCURVE",
"821 1746 QCURVE SMOOTH",
"710 1746 OFFCURVE",
"631 1788 OFFCURVE",
"631 1836 QCURVE SMOOTH",
"631 1840 LINE SMOOTH",
"631 1888 OFFCURVE",
"542 1899 QCURVE",
"525 1899 LINE SMOOTH"
);
},
{
closed = 1;
nodes = (
"756 1300 QCURVE SMOOTH",
"971 1300 LINE SMOOTH",
"1104 1300 OFFCURVE",
"1202 1234 QCURVE SMOOTH",
"1301 1167 OFFCURVE",
"1303 1119 QCURVE SMOOTH",
"1303 1118 LINE SMOOTH",
"1303 1070 OFFCURVE",
"1230 1070 QCURVE SMOOTH",
"1160 1070 OFFCURVE",
"1160 980 QCURVE SMOOTH",
"1160 970 LINE SMOOTH",
"1164 870 OFFCURVE",
"1332 870 QCURVE SMOOTH",
"1500 870 OFFCURVE",
"1500 1119 QCURVE SMOOTH",
"1500 1288 OFFCURVE",
"1344 1394 QCURVE SMOOTH",
"1187 1500 OFFCURVE",
"971 1500 QCURVE SMOOTH",
"756 1500 LINE SMOOTH",
"506 1500 OFFCURVE",
"287 1205 QCURVE SMOOTH",
"200 1089 OFFCURVE",
"200 1006 QCURVE",
"363 937 OFFCURVE",
"458 752 QCURVE",
"200 517 LINE",
"200 349 OFFCURVE",
"504 0 OFFCURVE",
"624 0 QCURVE",
"909 226 LINE",
"1099 0 OFFCURVE",
"1165 0 QCURVE SMOOTH",
"1287 0 OFFCURVE",
"1500 328 OFFCURVE",
"1500 414 QCURVE SMOOTH",
"1500 500 OFFCURVE",
"1457 500 QCURVE SMOOTH",
"1413 500 OFFCURVE",
"1307 374 OFFCURVE",
"1204 240 OFFCURVE",
"1163 240 QCURVE",
"923 499 LINE",
"590 235 LINE",
"490 297 OFFCURVE",
"439 453 QCURVE",
"595 617 LINE",
"670 689 OFFCURVE",
"670 764 QCURVE SMOOTH",
"670 839 OFFCURVE",
"522 1023 OFFCURVE",
"444 1071 QCURVE",
"604 1300 OFFCURVE"
);
}
);
width = 1800;
}
);
note = uni1784;
unicode = 1784;
},
{
glyphname = uni1785;
layers = (
{
layerId = "BB6B0684-34D4-4B80-99D1-F5F29B570554";
paths = (
{
closed = 1;
nodes = (
"1500 790 OFFCURVE",
"1260 790 QCURVE SMOOTH",
"1100 790 OFFCURVE",
"1100 630 QCURVE SMOOTH",
"1100 560 OFFCURVE",
"1190 530 QCURVE",
"1230 590 OFFCURVE",
"1260 590 QCURVE SMOOTH",
"1300 590 OFFCURVE",
"1300 490 QCURVE",
"1301 481 OFFCURVE",
"1301 472 QCURVE SMOOTH",
"1301 404 OFFCURVE",
"1256 327 QCURVE SMOOTH",
"1204 240 OFFCURVE",
"1073 200 QCURVE",
"700 200 LINE",
"532 279 OFFCURVE",
"449 473 QCURVE",
"612 645 LINE SMOOTH",
"670 709 OFFCURVE",
"670 784 QCURVE SMOOTH",
"670 859 OFFCURVE",
"596 941 QCURVE SMOOTH",
"522 1023 OFFCURVE",
"420 1104 QCURVE",
"621 1270 LINE",
"878 1031 LINE",
"1115 1264 LINE",
"1232 1133 OFFCURVE",
"1322 1077 QCURVE SMOOTH",
"1382 1040 OFFCURVE",
"1421 1040 QCURVE SMOOTH",
"1441 1040 OFFCURVE",
"1456 1049 QCURVE SMOOTH",
"1500 1077 OFFCURVE",
"1500 1133 QCURVE SMOOTH",
"1500 1189 OFFCURVE",
"1419 1256 QCURVE",
"1158 1500 OFFCURVE",
"1124 1500 QCURVE SMOOTH",
"1089 1500 OFFCURVE",
"878 1284 QCURVE",
"638 1500 OFFCURVE",
"604 1500 QCURVE SMOOTH",
"570 1500 OFFCURVE",
"293 1249 QCURVE SMOOTH",
"200 1165 OFFCURVE",
"200 1126 QCURVE SMOOTH",
"200 1085 OFFCURVE",
"275 1000 QCURVE",
"458 772 LINE",
"200 517 LINE",
"200 399 OFFCURVE",
"504 0 OFFCURVE",
"674 0 QCURVE SMOOTH",
"1115 0 LINE SMOOTH",
"1257 0 OFFCURVE",
"1500 308 OFFCURVE",
"1500 490 QCURVE SMOOTH"
);
}
);
width = 1800;
}
);
note = uni1785;
unicode = 1785;
},
{
glyphname = uni1786;
layers = (
{
layerId = "BB6B0684-34D4-4B80-99D1-F5F29B570554";
paths = (
{
closed = 1;
nodes = (
"1500 700 OFFCURVE",
"1240 700 QCURVE SMOOTH",
"1050 700 OFFCURVE",
"1050 540 QCURVE SMOOTH",
"1050 470 OFFCURVE",
"1140 440 QCURVE",
"1180 500 OFFCURVE",
"1240 500 QCURVE SMOOTH",
"1300 500 OFFCURVE",
"1300 400 QCURVE SMOOTH",
"1300 200 OFFCURVE",
"1111 200 QCURVE SMOOTH",
"1011 200 OFFCURVE",
"974 263 QCURVE SMOOTH",
"863 450 OFFCURVE",
"663 450 QCURVE SMOOTH",
"550 450 LINE",
"550 900 LINE SMOOTH",
"550 1047 OFFCURVE",
"446 1148 QCURVE",
"621 1279 LINE",
"878 1099 LINE",
"1115 1290 LINE",
"1232 1183 OFFCURVE",
"1317 1147 QCURVE SMOOTH",
"1405 1105 OFFCURVE",
"1451 1105 QCURVE SMOOTH",
"1500 1105 OFFCURVE",
"1500 1153 QCURVE SMOOTH",
"1500 1245 OFFCURVE",
"1419 1300 QCURVE",
"1158 1500 OFFCURVE",
"1124 1500 QCURVE SMOOTH",
"1089 1500 OFFCURVE",
"878 1323 QCURVE",
"638 1500 OFFCURVE",
"604 1500 QCURVE SMOOTH",
"570 1500 OFFCURVE",
"293 1294 QCURVE SMOOTH",
"200 1225 OFFCURVE",
"200 1193 QCURVE SMOOTH",
"200 1160 OFFCURVE",
"275 1090 QCURVE SMOOTH",
"350 1019 OFFCURVE",
"350 900 QCURVE SMOOTH",
"350 450 LINE",
"200 450 OFFCURVE",
"200 330 QCURVE SMOOTH",
"200 209 OFFCURVE",
"350 0 OFFCURVE",
"450 0 QCURVE SMOOTH",
"550 0 OFFCURVE",
"550 125 QCURVE SMOOTH",
"550 250 LINE",
"666 250 LINE SMOOTH",
"781 250 OFFCURVE",
"841 156 QCURVE SMOOTH",
"942 0 OFFCURVE",
"1113 0 QCURVE SMOOTH",
"1500 0 OFFCURVE",
"1500 400 QCURVE SMOOTH"
);
}
);
width = 1800;
}
);
note = uni1786;
unicode = 1786;
},
{
glyphname = uni1787;
layers = (
{
layerId = "BB6B0684-34D4-4B80-99D1-F5F29B570554";
paths = (
{
closed = 1;
nodes = (
"1344 1394 QCURVE SMOOTH",
"1187 1500 OFFCURVE",
"971 1500 QCURVE SMOOTH",
"756 1500 LINE SMOOTH",
"506 1500 OFFCURVE",
"287 1205 QCURVE SMOOTH",
"200 1089 OFFCURVE",
"200 1006 QCURVE",
"363 937 OFFCURVE",
"458 752 QCURVE",
"200 517 LINE",
"200 349 OFFCURVE",
"504 0 OFFCURVE",
"624 0 QCURVE",
"909 226 LINE",
"1099 0 OFFCURVE",
"1165 0 QCURVE SMOOTH",
"1287 0 OFFCURVE",
"1500 328 OFFCURVE",
"1500 414 QCURVE SMOOTH",
"1500 500 OFFCURVE",
"1457 500 QCURVE SMOOTH",
"1413 500 OFFCURVE",
"1307 374 OFFCURVE",
"1204 240 OFFCURVE",
"1163 240 QCURVE",
"923 499 LINE",
"590 235 LINE",
"490 297 OFFCURVE",
"439 453 QCURVE",
"595 617 LINE",
"670 689 OFFCURVE",
"670 764 QCURVE SMOOTH",
"670 839 OFFCURVE",
"522 1023 OFFCURVE",
"444 1071 QCURVE",
"604 1300 OFFCURVE",
"756 1300 QCURVE SMOOTH",
"971 1300 LINE SMOOTH",
"1104 1300 OFFCURVE",
"1202 1234 QCURVE SMOOTH",
"1301 1167 OFFCURVE",
"1303 1119 QCURVE SMOOTH",
"1303 1118 LINE SMOOTH",
"1303 1070 OFFCURVE",
"1230 1070 QCURVE SMOOTH",
"1160 1070 OFFCURVE",
"1160 980 QCURVE SMOOTH",
"1160 970 LINE SMOOTH",
"1164 870 OFFCURVE",
"1332 870 QCURVE SMOOTH",
"1495 870 OFFCURVE",
"1500 1103 QCURVE",
"1508 1121 OFFCURVE",
"1514 1140 QCURVE SMOOTH",
"1550 1246 OFFCURVE",
"1550 1350 QCURVE SMOOTH",
"1550 1409 OFFCURVE",
"1539 1468 QCURVE SMOOTH",
"1506 1629 OFFCURVE",
"1458 1725 QCURVE SMOOTH",
"1419 1800 OFFCURVE",
"1380 1800 QCURVE SMOOTH",
"1370 1800 OFFCURVE",
"1360 1795 QCURVE SMOOTH",
"1326 1778 OFFCURVE",
"1326 1731 QCURVE SMOOTH",
"1326 1710 OFFCURVE",
"1333 1683 QCURVE SMOOTH",
"1355 1595 OFFCURVE",
"1362 1495 QCURVE SMOOTH",
"1363 1476 OFFCURVE",
"1363 1455 QCURVE SMOOTH",
"1363 1421 OFFCURVE",
"1360 1383 QCURVE",
"1352 1389 OFFCURVE"
);
}
);
width = 1800;
}
);
note = uni1787;
unicode = 1787;
},
{
glyphname = uni1788;
layers = (
{
layerId = "BB6B0684-34D4-4B80-99D1-F5F29B570554";
paths = (
{
closed = 1;
nodes = (
"2164 52 OFFCURVE",
"2277 186 QCURVE",
"2448 0 OFFCURVE",
"2574 0 QCURVE SMOOTH",
"2880 0 LINE",
"3260 100 OFFCURVE",
"3300 500 QCURVE",
"3300 896 LINE",
"3280 1072 OFFCURVE",
"3101 1154 QCURVE",
"3179 1249 LINE",
"3320 1171 OFFCURVE",
"3388 1171 QCURVE SMOOTH",
"3405 1171 OFFCURVE",
"3418 1176 QCURVE SMOOTH",
"3480 1200 OFFCURVE",
"3500 1343 QCURVE",
"3487 1337 OFFCURVE",
"3470 1337 QCURVE SMOOTH",
"3379 1337 OFFCURVE",
"3166 1500 QCURVE",
"2840 1052 LINE",
"3060 1012 OFFCURVE",
"3100 876 QCURVE",
"3100 500 LINE",
"3050 280 OFFCURVE",
"2850 200 QCURVE",
"2614 200 LINE",
"2470 281 OFFCURVE",
"2381 393 QCURVE",
"2394 443 OFFCURVE",
"2400 500 QCURVE",
"2400 896 LINE",
"2380 1072 OFFCURVE",
"2201 1154 QCURVE",
"2279 1249 LINE",
"2420 1171 OFFCURVE",
"2488 1171 QCURVE SMOOTH",
"2505 1171 OFFCURVE",
"2518 1176 QCURVE SMOOTH",
"2580 1200 OFFCURVE",
"2600 1343 QCURVE",
"2587 1337 OFFCURVE",
"2570 1337 QCURVE SMOOTH",
"2479 1337 OFFCURVE",
"2266 1500 QCURVE",
"1940 1052 LINE",
"2160 1012 OFFCURVE",
"2200 876 QCURVE",
"2200 500 LINE",
"2150 280 OFFCURVE",
"1950 200 QCURVE",
"1624 200 LINE",
"1452 317 OFFCURVE",
"1363 481 QCURVE",
"1528 654 LINE SMOOTH",
"1600 729 OFFCURVE",
"1600 824 QCURVE SMOOTH",
"1600 882 OFFCURVE",
"1493 1038 OFFCURVE",
"1425 1094 QCURVE",
"900 1500 LINE",
"375 1094 LINE",
"300 1032 OFFCURVE",
"300 908 QCURVE SMOOTH",
"300 290 LINE SMOOTH",
"300 150 OFFCURVE",
"437 0 OFFCURVE",
"532 0 QCURVE SMOOTH",
"627 0 OFFCURVE",
"667 133 QCURVE SMOOTH",
"678 170 OFFCURVE",
"678 203 QCURVE SMOOTH",
"678 290 OFFCURVE",
"604 353 QCURVE SMOOTH",
"500 440 OFFCURVE",
"500 480 QCURVE SMOOTH",
"500 948 LINE",
"900 1265 LINE",
"1300 948 LINE SMOOTH",
"1388 880 OFFCURVE",
"1388 813 QCURVE SMOOTH",
"1388 812 LINE",
"1102 528 LINE",
"1132 362 OFFCURVE",
"1444 0 OFFCURVE",
"1624 0 QCURVE SMOOTH",
"1950 0 LINE"
);
}
);
width = 3600;
}
);
note = uni1788;
unicode = 1788;
},
{
glyphname = uni1789;
layers = (
{
layerId = "BB6B0684-34D4-4B80-99D1-F5F29B570554";
paths = (
{
closed = 1;
nodes = (
"1493 -600 QCURVE SMOOTH",
"1169 -600 OFFCURVE",
"756 -421 OFFCURVE",
"536 -207 QCURVE",
"493 -150 OFFCURVE",
"397 -150 QCURVE SMOOTH",
"300 -150 OFFCURVE",
"300 -207 QCURVE SMOOTH",
"300 -266 OFFCURVE",
"357 -324 QCURVE",
"581 -580 OFFCURVE",
"1105 -800 OFFCURVE",
"1493 -800 QCURVE SMOOTH",
"2037 -800 OFFCURVE",
"2450 -546 OFFCURVE",
"2450 -372 QCURVE SMOOTH",
"2450 -100 OFFCURVE",
"2152 -100 QCURVE SMOOTH",
"2066 -100 OFFCURVE",
"2066 -200 QCURVE SMOOTH",
"2066 -300 OFFCURVE",
"2152 -300 QCURVE SMOOTH",
"2250 -300 OFFCURVE",
"2250 -372 QCURVE SMOOTH",
"2250 -449 OFFCURVE",
"1941 -600 OFFCURVE"
);
},
{
closed = 1;
nodes = (
"607 480 QCURVE SMOOTH",
"670 480 OFFCURVE",
"670 400 QCURVE SMOOTH",
"670 344 OFFCURVE",
"623 200 OFFCURVE",
"587 200 QCURVE",
"520 230 OFFCURVE",
"500 370 QCURVE",
"500 480 OFFCURVE"
);
},
{
closed = 1;
nodes = (
"2250 1032 LINE",
"2250 500 LINE SMOOTH",
"2250 420 OFFCURVE",
"2100 276 OFFCURVE",
"2100 193 QCURVE SMOOTH",
"2100 110 OFFCURVE",
"2287 0 OFFCURVE",
"2369 0 QCURVE SMOOTH",
"2450 0 OFFCURVE",
"2450 100 QCURVE SMOOTH",
"2450 1140 LINE",
"1884 1500 OFFCURVE",
"1825 1500 QCURVE SMOOTH",
"1772 1500 OFFCURVE",
"1456 1241 QCURVE",
"1438 1263 OFFCURVE",
"1411 1285 QCURVE SMOOTH",
"1152 1500 LINE",
"899 1322 LINE",
"645 1500 LINE",
"387 1285 LINE SMOOTH",
"300 1211 OFFCURVE",
"300 1135 QCURVE SMOOTH",
"300 370 LINE SMOOTH",
"300 245 OFFCURVE",
"490 0 OFFCURVE",
"587 0 QCURVE SMOOTH",
"693 0 OFFCURVE",
"870 245 OFFCURVE",
"870 400 QCURVE SMOOTH",
"870 670 OFFCURVE",
"607 670 QCURVE SMOOTH",
"531 670 OFFCURVE",
"500 626 QCURVE",
"500 1103 LINE",
"659 1235 LINE",
"899 1070 LINE",
"1139 1235 LINE",
"1300 1103 LINE",
"1300 500 LINE SMOOTH",
"1300 420 OFFCURVE",
"1150 276 OFFCURVE",
"1150 193 QCURVE SMOOTH",
"1150 110 OFFCURVE",
"1337 0 OFFCURVE",
"1419 0 QCURVE SMOOTH",
"1500 0 OFFCURVE",
"1500 100 QCURVE SMOOTH",
"1500 1000 LINE",
"1819 1277 LINE"
);
}
);
width = 2750;
}
);
note = uni1789;
unicode = 1789;
},
{
glyphname = uni178A;
layers = (
{
layerId = "BB6B0684-34D4-4B80-99D1-F5F29B570554";
paths = (
{
closed = 1;
nodes = (
"828 1100 OFFCURVE",
"1110 1100 QCURVE SMOOTH",
"1500 1100 OFFCURVE",
"1500 1486 QCURVE SMOOTH",
"1500 1750 OFFCURVE",
"1310 1750 QCURVE SMOOTH",
"1234 1750 OFFCURVE",
"1234 1712 QCURVE SMOOTH",
"1234 1695 OFFCURVE",
"1250 1670 QCURVE SMOOTH",
"1300 1590 OFFCURVE",
"1300 1486 QCURVE SMOOTH",
"1300 1300 OFFCURVE",
"1110 1300 QCURVE SMOOTH",
"881 1300 OFFCURVE",
"758 1400 QCURVE SMOOTH",
"634 1500 OFFCURVE",
"602 1500 QCURVE SMOOTH",
"570 1500 OFFCURVE",
"501 1437 QCURVE SMOOTH",
"337 1289 LINE SMOOTH",
"316 1270 OFFCURVE",
"293 1249 QCURVE SMOOTH",
"200 1165 OFFCURVE",
"200 1126 QCURVE SMOOTH",
"200 1085 OFFCURVE",
"275 1000 QCURVE",
"458 772 LINE",
"200 517 LINE",
"200 399 OFFCURVE",
"504 0 OFFCURVE",
"624 0 QCURVE",
"889 206 LINE",
"1099 0 OFFCURVE",
"1165 0 QCURVE SMOOTH",
"1287 0 OFFCURVE",
"1500 308 OFFCURVE",
"1500 414 QCURVE SMOOTH",
"1500 500 OFFCURVE",
"1457 500 QCURVE SMOOTH",
"1413 500 OFFCURVE",
"1307 414 OFFCURVE",
"1204 240 OFFCURVE",
"1163 240 QCURVE",
"923 499 LINE",
"620 265 LINE",
"500 327 OFFCURVE",
"449 473 QCURVE",
"612 645 LINE SMOOTH",
"670 709 OFFCURVE",
"670 784 QCURVE SMOOTH",
"670 859 OFFCURVE",
"596 941 QCURVE SMOOTH",
"441 1104 LINE",
"610 1250 LINE"
);
}
);
width = 1800;
}
);
note = uni178A;
unicode = 178A;
},
{
glyphname = uni178B;
layers = (
{
layerId = "BB6B0684-34D4-4B80-99D1-F5F29B570554";
paths = (
{
closed = 1;
nodes = (
"1550 1062 OFFCURVE",
"1401 1134 QCURVE",
"1459 1219 LINE",
"1562 1156 OFFCURVE",
"1633 1156 QCURVE SMOOTH",
"1683 1156 OFFCURVE",
"1718 1188 QCURVE SMOOTH",
"1800 1265 OFFCURVE",
"1800 1435 QCURVE SMOOTH",
"1800 1605 OFFCURVE",
"1673 1689 QCURVE",
"1686 1579 OFFCURVE",
"1686 1505 QCURVE SMOOTH",
"1686 1360 OFFCURVE",
"1634 1360 QCURVE SMOOTH",
"1629 1360 OFFCURVE",
"1624 1362 QCURVE",
"1533 1383 OFFCURVE",
"1436 1500 QCURVE",
"1150 1052 LINE",
"1350 1012 OFFCURVE",
"1350 876 QCURVE SMOOTH",
"1350 500 LINE",
"1300 280 OFFCURVE",
"1100 200 QCURVE",
"714 200 LINE",
"540 297 OFFCURVE",
"461 429 QCURVE",
"740 809 OFFCURVE",
"740 884 QCURVE SMOOTH",
"740 977 LINE SMOOTH",
"740 1069 OFFCURVE",
"613 1309 QCURVE SMOOTH",
"509 1500 OFFCURVE",
"461 1500 QCURVE SMOOTH",
"413 1500 OFFCURVE",
"200 1254 OFFCURVE",
"200 1111 QCURVE SMOOTH",
"200 968 OFFCURVE",
"306 961 QCURVE SMOOTH",
"315 960 OFFCURVE",
"323 960 QCURVE SMOOTH",
"414 960 OFFCURVE",
"433 1029 QCURVE SMOOTH",
"439 1051 OFFCURVE",
"439 1071 QCURVE SMOOTH",
"439 1116 OFFCURVE",
"405 1145 QCURVE SMOOTH",
"375 1170 OFFCURVE",
"375 1187 QCURVE SMOOTH",
"375 1197 OFFCURVE",
"386 1204 QCURVE SMOOTH",
"394 1208 OFFCURVE",
"401 1208 QCURVE SMOOTH",
"425 1208 OFFCURVE",
"450 1170 QCURVE SMOOTH",
"543 1028 OFFCURVE",
"543 960 QCURVE SMOOTH",
"543 955 OFFCURVE",
"542 950 QCURVE SMOOTH",
"533 882 LINE",
"200 476 LINE",
"230 310 OFFCURVE",
"594 0 OFFCURVE",
"714 0 QCURVE SMOOTH",
"1130 0 LINE",
"1510 100 OFFCURVE",
"1550 500 QCURVE",
"1550 946 LINE SMOOTH"
);
}
);
width = 1850;
}
);
note = uni178B;
unicode = 178B;
},
{
glyphname = uni178C;
layers = (
{
layerId = "BB6B0684-34D4-4B80-99D1-F5F29B570554";
paths = (
{
closed = 1;
nodes = (
"659 1235 LINE",
"899 1070 LINE",
"1139 1235 LINE",
"1300 1103 LINE",
"1300 915 OFFCURVE",
"1122 802 QCURVE SMOOTH",
"583 463 LINE SMOOTH",
"498 410 OFFCURVE",
"498 341 QCURVE SMOOTH",
"498 289 OFFCURVE",
"548 227 QCURVE",
"649 114 LINE SMOOTH",
"749 0 OFFCURVE",
"779 0 QCURVE SMOOTH",
"808 0 OFFCURVE",
"898 58 QCURVE SMOOTH",
"1300 314 LINE",
"1300 100 LINE SMOOTH",
"1300 0 OFFCURVE",
"1400 0 QCURVE SMOOTH",
"1500 0 OFFCURVE",
"1500 100 QCURVE SMOOTH",
"1500 482 LINE SMOOTH",
"1500 567 OFFCURVE",
"1396 567 QCURVE SMOOTH",
"1356 567 OFFCURVE",
"1300 554 QCURVE",
"1156 463 LINE",
"799 235 LINE",
"726 317 LINE",
"1237 642 LINE SMOOTH",
"1500 807 OFFCURVE",
"1500 1103 QCURVE SMOOTH",
"1500 1135 LINE SMOOTH",
"1500 1211 OFFCURVE",
"1411 1285 QCURVE SMOOTH",
"1152 1500 LINE",
"899 1322 LINE",
"645 1500 LINE",
"387 1285 LINE SMOOTH",
"300 1211 OFFCURVE",
"300 1135 QCURVE SMOOTH",
"300 873 LINE SMOOTH",
"300 800 OFFCURVE",
"419 650 OFFCURVE",
"500 650 QCURVE SMOOTH",
"545 650 OFFCURVE",
"736 800 OFFCURVE",
"736 891 QCURVE SMOOTH",
"736 1045 OFFCURVE",
"627 1046 QCURVE SMOOTH",
"625 1046 LINE SMOOTH",
"558 1046 OFFCURVE",
"541 966 QCURVE",
"566 945 OFFCURVE",
"566 916 QCURVE SMOOTH",
"566 911 OFFCURVE",
"565 907 QCURVE SMOOTH",
"561 872 OFFCURVE",
"500 850 QCURVE",
"500 1103 LINE"
);
}
);
width = 1800;
}
);
note = uni178C;
unicode = 178C;
},
{
glyphname = uni178D;
layers = (
{
layerId = "BB6B0684-34D4-4B80-99D1-F5F29B570554";
paths = (
{
closed = 1;
nodes = (
"607 480 QCURVE SMOOTH",
"670 480 OFFCURVE",
"670 400 QCURVE SMOOTH",
"670 344 OFFCURVE",
"623 200 OFFCURVE",
"587 200 QCURVE",
"520 230 OFFCURVE",
"500 370 QCURVE",
"500 480 OFFCURVE"
);
},
{
closed = 1;
nodes = (
"1150 450 OFFCURVE",
"1150 330 QCURVE SMOOTH",
"1150 209 OFFCURVE",
"1300 0 OFFCURVE",
"1400 0 QCURVE SMOOTH",
"1500 0 OFFCURVE",
"1500 125 QCURVE SMOOTH",
"1500 250 LINE",
"1616 250 LINE SMOOTH",
"1731 250 OFFCURVE",
"1791 156 QCURVE SMOOTH",
"1892 0 OFFCURVE",
"2063 0 QCURVE SMOOTH",
"2450 0 OFFCURVE",
"2450 400 QCURVE SMOOTH",
"2450 896 LINE",
"2430 1072 OFFCURVE",
"2251 1154 QCURVE",
"2329 1249 LINE",
"2470 1171 OFFCURVE",
"2538 1171 QCURVE SMOOTH",
"2555 1171 OFFCURVE",
"2568 1176 QCURVE SMOOTH",
"2630 1200 OFFCURVE",
"2650 1343 QCURVE",
"2637 1337 OFFCURVE",
"2620 1337 QCURVE SMOOTH",
"2529 1337 OFFCURVE",
"2316 1500 QCURVE",
"1990 1052 LINE",
"2210 1012 OFFCURVE",
"2250 876 QCURVE",
"2250 400 LINE SMOOTH",
"2250 200 OFFCURVE",
"2061 200 QCURVE SMOOTH",
"1961 200 OFFCURVE",
"1924 263 QCURVE SMOOTH",
"1813 450 OFFCURVE",
"1613 450 QCURVE SMOOTH",
"1500 450 LINE",
"1500 1135 LINE SMOOTH",
"1500 1211 OFFCURVE",
"1411 1285 QCURVE SMOOTH",
"1152 1500 LINE",
"899 1322 LINE",
"645 1500 LINE",
"387 1285 LINE SMOOTH",
"300 1211 OFFCURVE",
"300 1135 QCURVE SMOOTH",
"300 370 LINE SMOOTH",
"300 245 OFFCURVE",
"490 0 OFFCURVE",
"587 0 QCURVE SMOOTH",
"693 0 OFFCURVE",
"870 245 OFFCURVE",
"870 400 QCURVE SMOOTH",
"870 670 OFFCURVE",
"607 670 QCURVE SMOOTH",
"531 670 OFFCURVE",
"500 626 QCURVE",
"500 1103 LINE",
"659 1235 LINE",
"899 1070 LINE",
"1139 1235 LINE",
"1300 1103 LINE",
"1300 450 LINE"
);
}
);
width = 2750;
}
);
note = uni178D;
unicode = 178D;
},
{
glyphname = uni178E;
layers = (
{
layerId = "BB6B0684-34D4-4B80-99D1-F5F29B570554";
paths = (
{
closed = 1;
nodes = (
"3599 992 OFFCURVE",
"3589 1017 QCURVE SMOOTH",
"3557 1092 OFFCURVE",
"3395 1194 QCURVE SMOOTH",
"2908 1500 LINE",
"2420 1187 LINE SMOOTH",
"2262 1085 OFFCURVE",
"2224 925 QCURVE",
"2446 656 LINE",
"2431 444 OFFCURVE",
"2224 200 OFFCURVE",
"2183 200 QCURVE SMOOTH",
"2117 200 OFFCURVE",
"1893 509 QCURVE",
"1560 235 LINE",
"1460 297 OFFCURVE",
"1369 453 QCURVE",
"1600 795 LINE",
"1643 866 OFFCURVE",
"1643 923 QCURVE SMOOTH",
"1643 951 OFFCURVE",
"1632 977 QCURVE SMOOTH",
"1600 1052 OFFCURVE",
"951 1500 QCURVE",
"463 1187 LINE SMOOTH",
"300 1082 OFFCURVE",
"300 990 QCURVE SMOOTH",
"300 290 LINE SMOOTH",
"300 150 OFFCURVE",
"437 0 OFFCURVE",
"532 0 QCURVE SMOOTH",
"627 0 OFFCURVE",
"667 133 QCURVE SMOOTH",
"678 170 OFFCURVE",
"678 203 QCURVE SMOOTH",
"678 290 OFFCURVE",
"604 353 QCURVE SMOOTH",
"500 440 OFFCURVE",
"500 480 QCURVE SMOOTH",
"500 959 LINE",
"931 1244 LINE",
"1395 909 LINE",
"1130 517 LINE",
"1130 359 OFFCURVE",
"1474 0 OFFCURVE",
"1594 0 QCURVE",
"1849 226 LINE",
"2069 0 OFFCURVE",
"2185 0 QCURVE SMOOTH",
"2307 0 OFFCURVE",
"2567 259 OFFCURVE",
"2631 464 QCURVE SMOOTH",
"2656 546 OFFCURVE",
"2656 613 QCURVE SMOOTH",
"2656 711 OFFCURVE",
"2601 774 QCURVE",
"2457 959 LINE",
"2908 1254 LINE",
"3400 922 LINE",
"3400 500 LINE SMOOTH",
"3400 420 OFFCURVE",
"3250 276 OFFCURVE",
"3250 193 QCURVE SMOOTH",
"3250 110 OFFCURVE",
"3437 0 OFFCURVE",
"3519 0 QCURVE SMOOTH",
"3600 0 OFFCURVE",
"3600 100 QCURVE SMOOTH",
"3600 964 LINE SMOOTH"
);
}
);
width = 3900;
}
);
note = uni178E;
unicode = 178E;
},
{
glyphname = uni178F;
layers = (
{
layerId = "BB6B0684-34D4-4B80-99D1-F5F29B570554";
paths = (
{
closed = 1;
nodes = (
"373 1051 LINE",
"487 1109 LINE",
"437 1189 LINE",
"589 1290 LINE",
"897 1181 LINE",
"1163 1307 LINE",
"1311 1209 OFFCURVE",
"1402 1179 QCURVE SMOOTH",
"1416 1174 OFFCURVE",
"1430 1174 QCURVE SMOOTH",
"1508 1174 OFFCURVE",
"1600 1320 QCURVE",
"1424 1379 OFFCURVE",
"1209 1500 OFFCURVE",
"1173 1500 QCURVE SMOOTH",
"1135 1500 OFFCURVE",
"897 1394 QCURVE",
"607 1500 OFFCURVE",
"570 1500 QCURVE SMOOTH",
"534 1500 OFFCURVE",
"450 1440 QCURVE SMOOTH",
"200 1270 LINE",
"200 1215 LINE"
);
},
{
closed = 1;
nodes = (
"607 440 QCURVE SMOOTH",
"670 440 OFFCURVE",
"670 360 QCURVE SMOOTH",
"670 304 OFFCURVE",
"623 200 OFFCURVE",
"587 200 QCURVE",
"520 230 OFFCURVE",
"500 330 QCURVE",
"500 440 OFFCURVE"
);
},
{
closed = 1;
nodes = (
"900 937 LINE",
"1300 738 LINE",
"1300 500 LINE SMOOTH",
"1300 420 OFFCURVE",
"1150 276 OFFCURVE",
"1150 193 QCURVE SMOOTH",
"1150 110 OFFCURVE",
"1337 0 OFFCURVE",
"1419 0 QCURVE SMOOTH",
"1500 0 OFFCURVE",
"1500 100 QCURVE SMOOTH",
"1500 788 LINE SMOOTH",
"1500 866 OFFCURVE",
"1425 905 QCURVE SMOOTH",
"900 1160 LINE",
"375 905 LINE SMOOTH",
"300 866 OFFCURVE",
"300 788 QCURVE SMOOTH",
"300 330 LINE SMOOTH",
"300 245 OFFCURVE",
"490 0 OFFCURVE",
"587 0 QCURVE SMOOTH",
"693 0 OFFCURVE",
"870 245 OFFCURVE",
"870 360 QCURVE SMOOTH",
"870 630 OFFCURVE",
"607 630 QCURVE SMOOTH",
"531 630 OFFCURVE",
"500 586 QCURVE",
"500 738 LINE"
);
}
);
width = 1800;
}
);
note = uni178F;
unicode = 178F;
},
{
glyphname = uni1790;
layers = (
{
layerId = "BB6B0684-34D4-4B80-99D1-F5F29B570554";
paths = (
{
closed = 1;
nodes = (
"1500 790 OFFCURVE",
"1260 790 QCURVE SMOOTH",
"1100 790 OFFCURVE",
"1100 630 QCURVE SMOOTH",
"1100 560 OFFCURVE",
"1190 530 QCURVE",
"1230 590 OFFCURVE",
"1260 590 QCURVE SMOOTH",
"1300 590 OFFCURVE",
"1300 490 QCURVE",
"1301 481 OFFCURVE",
"1301 472 QCURVE SMOOTH",
"1301 404 OFFCURVE",
"1256 327 QCURVE SMOOTH",
"1204 240 OFFCURVE",
"1073 200 QCURVE",
"700 200 LINE",
"532 279 OFFCURVE",
"449 473 QCURVE",
"612 645 LINE SMOOTH",
"670 709 OFFCURVE",
"670 784 QCURVE SMOOTH",
"670 859 OFFCURVE",
"596 941 QCURVE SMOOTH",
"450 1104 LINE",
"610 1250 LINE",
"828 1100 OFFCURVE",
"1110 1100 QCURVE SMOOTH",
"1500 1100 OFFCURVE",
"1500 1486 QCURVE SMOOTH",
"1500 1750 OFFCURVE",
"1310 1750 QCURVE SMOOTH",
"1234 1750 OFFCURVE",
"1234 1712 QCURVE SMOOTH",
"1234 1695 OFFCURVE",
"1250 1670 QCURVE SMOOTH",
"1300 1590 OFFCURVE",
"1300 1486 QCURVE SMOOTH",
"1300 1300 OFFCURVE",
"1110 1300 QCURVE SMOOTH",
"881 1300 OFFCURVE",
"758 1400 QCURVE SMOOTH",
"634 1500 OFFCURVE",
"602 1500 QCURVE SMOOTH",
"570 1500 OFFCURVE",
"501 1437 QCURVE SMOOTH",
"293 1249 LINE SMOOTH",
"200 1165 OFFCURVE",
"200 1126 QCURVE SMOOTH",
"200 1085 OFFCURVE",
"275 1000 QCURVE",
"458 772 LINE",
"200 517 LINE",
"200 399 OFFCURVE",
"504 0 OFFCURVE",
"674 0 QCURVE SMOOTH",
"1115 0 LINE SMOOTH",
"1257 0 OFFCURVE",
"1500 308 OFFCURVE",
"1500 490 QCURVE SMOOTH"
);
}
);
width = 1800;
}
);
note = uni1790;
unicode = 1790;
},
{
glyphname = uni1791;
layers = (
{
layerId = "BB6B0684-34D4-4B80-99D1-F5F29B570554";
paths = (
{
closed = 1;
nodes = (
"362 155 QCURVE",
"544 0 OFFCURVE",
"664 0 QCURVE",
"951 225 LINE SMOOTH",
"1047 300 OFFCURVE",
"1164 300 QCURVE SMOOTH",
"1300 300 OFFCURVE",
"1300 200 QCURVE SMOOTH",
"1300 150 OFFCURVE",
"1233 94 QCURVE",
"1247 3 OFFCURVE",
"1374 3 QCURVE SMOOTH",
"1500 3 OFFCURVE",
"1500 200 QCURVE SMOOTH",
"1500 320 OFFCURVE",
"1309 500 OFFCURVE",
"1164 500 QCURVE SMOOTH",
"1018 500 OFFCURVE",
"852 385 QCURVE SMOOTH",
"630 235 LINE",
"490 297 OFFCURVE",
"439 453 QCURVE",
"595 617 LINE",
"670 689 OFFCURVE",
"670 764 QCURVE SMOOTH",
"670 839 OFFCURVE",
"522 1023 OFFCURVE",
"444 1071 QCURVE",
"604 1300 OFFCURVE",
"756 1300 QCURVE SMOOTH",
"971 1300 LINE SMOOTH",
"1104 1300 OFFCURVE",
"1202 1234 QCURVE SMOOTH",
"1301 1167 OFFCURVE",
"1303 1119 QCURVE SMOOTH",
"1303 1118 LINE SMOOTH",
"1303 1070 OFFCURVE",
"1230 1070 QCURVE SMOOTH",
"1160 1070 OFFCURVE",
"1160 980 QCURVE SMOOTH",
"1160 970 LINE SMOOTH",
"1164 870 OFFCURVE",
"1332 870 QCURVE SMOOTH",
"1500 870 OFFCURVE",
"1500 1119 QCURVE SMOOTH",
"1500 1288 OFFCURVE",
"1344 1394 QCURVE SMOOTH",
"1187 1500 OFFCURVE",
"971 1500 QCURVE SMOOTH",
"756 1500 LINE SMOOTH",
"506 1500 OFFCURVE",
"287 1205 QCURVE SMOOTH",
"200 1089 OFFCURVE",
"200 1006 QCURVE",
"363 937 OFFCURVE",
"458 752 QCURVE",
"200 517 LINE",
"200 349 OFFCURVE"
);
}
);
width = 1800;
}
);
note = uni1791;
unicode = 1791;
},
{
glyphname = uni1792;
layers = (
{
layerId = "BB6B0684-34D4-4B80-99D1-F5F29B570554";
paths = (
{
closed = 1;
nodes = (
"878 1031 LINE",
"1115 1264 LINE",
"1232 1133 OFFCURVE",
"1322 1077 QCURVE SMOOTH",
"1382 1040 OFFCURVE",
"1421 1040 QCURVE SMOOTH",
"1441 1040 OFFCURVE",
"1456 1049 QCURVE SMOOTH",
"1500 1077 OFFCURVE",
"1500 1133 QCURVE SMOOTH",
"1500 1189 OFFCURVE",
"1419 1256 QCURVE",
"1158 1500 OFFCURVE",
"1124 1500 QCURVE SMOOTH",
"1089 1500 OFFCURVE",
"878 1284 QCURVE",
"638 1500 OFFCURVE",
"604 1500 QCURVE SMOOTH",
"570 1500 OFFCURVE",
"293 1249 QCURVE SMOOTH",
"200 1165 OFFCURVE",
"200 1126 QCURVE SMOOTH",
"200 1085 OFFCURVE",
"275 1000 QCURVE",
"458 772 LINE",
"200 517 LINE",
"200 399 OFFCURVE",
"504 0 OFFCURVE",
"624 0 QCURVE",
"889 206 LINE",
"1099 0 OFFCURVE",
"1165 0 QCURVE SMOOTH",
"1287 0 OFFCURVE",
"1500 308 OFFCURVE",
"1500 414 QCURVE SMOOTH",
"1500 500 OFFCURVE",
"1457 500 QCURVE SMOOTH",
"1413 500 OFFCURVE",
"1307 414 OFFCURVE",
"1204 240 OFFCURVE",
"1163 240 QCURVE",
"923 499 LINE",
"620 265 LINE",
"500 327 OFFCURVE",
"449 473 QCURVE",
"612 645 LINE SMOOTH",
"670 709 OFFCURVE",
"670 784 QCURVE SMOOTH",
"670 859 OFFCURVE",
"596 941 QCURVE SMOOTH",
"522 1023 OFFCURVE",
"420 1104 QCURVE",
"621 1270 LINE"
);
}
);
width = 1800;
}
);
note = uni1792;
unicode = 1792;
},
{
glyphname = uni1793;
layers = (
{
layerId = "BB6B0684-34D4-4B80-99D1-F5F29B570554";
paths = (
{
closed = 1;
nodes = (
"841 156 QCURVE SMOOTH",
"942 0 OFFCURVE",
"1113 0 QCURVE SMOOTH",
"1254 0 OFFCURVE",
"1500 278 OFFCURVE",
"1500 364 QCURVE SMOOTH",
"1500 450 OFFCURVE",
"1450 450 QCURVE SMOOTH",
"1400 450 OFFCURVE",
"1300 324 OFFCURVE",
"1181 200 OFFCURVE",
"1111 200 QCURVE SMOOTH",
"1011 200 OFFCURVE",
"974 263 QCURVE SMOOTH",
"863 450 OFFCURVE",
"663 450 QCURVE SMOOTH",
"550 450 LINE",
"550 900 LINE SMOOTH",
"550 1075 OFFCURVE",
"445 1121 QCURVE",
"870 1297 OFFCURVE",
"895 1297 QCURVE SMOOTH",
"920 1297 OFFCURVE",
"1300 1098 QCURVE",
"1300 1000 OFFCURVE",
"1225 1000 QCURVE SMOOTH",
"1150 1000 OFFCURVE",
"1150 900 QCURVE SMOOTH",
"1150 800 OFFCURVE",
"1325 800 QCURVE SMOOTH",
"1500 800 OFFCURVE",
"1500 1060 QCURVE SMOOTH",
"1500 1148 LINE SMOOTH",
"1500 1226 OFFCURVE",
"1419 1265 QCURVE SMOOTH",
"920 1500 OFFCURVE",
"895 1500 QCURVE SMOOTH",
"870 1500 OFFCURVE",
"271 1265 QCURVE",
"200 1226 OFFCURVE",
"200 1088 QCURVE",
"300 1086 OFFCURVE",
"350 900 QCURVE",
"350 450 LINE",
"200 450 OFFCURVE",
"200 330 QCURVE SMOOTH",
"200 209 OFFCURVE",
"350 0 OFFCURVE",
"450 0 QCURVE SMOOTH",
"550 0 OFFCURVE",
"550 125 QCURVE SMOOTH",
"550 250 LINE",
"666 250 LINE SMOOTH",
"781 250 OFFCURVE"
);
}
);
width = 1800;
}
);
note = uni1793;
unicode = 1793;
},
{
glyphname = uni1794;
layers = (
{
layerId = "BB6B0684-34D4-4B80-99D1-F5F29B570554";
paths = (
{
closed = 1;
nodes = (
"670 689 OFFCURVE",
"670 764 QCURVE SMOOTH",
"670 839 OFFCURVE",
"522 1023 OFFCURVE",
"391 1114 QCURVE",
"489 1249 LINE",
"638 1171 OFFCURVE",
"714 1171 QCURVE SMOOTH",
"733 1171 OFFCURVE",
"748 1176 QCURVE SMOOTH",
"820 1200 OFFCURVE",
"840 1343 QCURVE",
"827 1337 OFFCURVE",
"809 1337 QCURVE SMOOTH",
"715 1337 OFFCURVE",
"476 1500 QCURVE",
"150 1022 LINE",
"350 962 OFFCURVE",
"458 752 QCURVE",
"150 476 LINE",
"180 310 OFFCURVE",
"544 0 OFFCURVE",
"664 0 QCURVE SMOOTH",
"1050 0 LINE",
"1460 100 OFFCURVE",
"1500 500 QCURVE",
"1500 896 LINE",
"1480 1072 OFFCURVE",
"1301 1154 QCURVE",
"1379 1249 LINE",
"1520 1171 OFFCURVE",
"1588 1171 QCURVE SMOOTH",
"1605 1171 OFFCURVE",
"1618 1176 QCURVE SMOOTH",
"1680 1200 OFFCURVE",
"1700 1343 QCURVE",
"1687 1337 OFFCURVE",
"1670 1337 QCURVE SMOOTH",
"1579 1337 OFFCURVE",
"1366 1500 QCURVE",
"1040 1052 LINE",
"1260 1012 OFFCURVE",
"1300 876 QCURVE",
"1300 500 LINE",
"1250 280 OFFCURVE",
"1050 200 QCURVE",
"664 200 LINE",
"490 297 OFFCURVE",
"411 429 QCURVE",
"595 617 LINE SMOOTH"
);
}
);
width = 1800;
}
);
note = uni1794;
unicode = 1794;
},
{
glyphname = uni1795;
layers = (
{
layerId = "BB6B0684-34D4-4B80-99D1-F5F29B570554";
paths = (
{
closed = 1;
nodes = (
"1500 490 QCURVE SMOOTH",
"1500 790 OFFCURVE",
"1240 790 QCURVE SMOOTH",
"1050 790 OFFCURVE",
"1050 630 QCURVE SMOOTH",
"1050 560 OFFCURVE",
"1140 530 QCURVE",
"1180 590 OFFCURVE",
"1240 590 QCURVE SMOOTH",
"1300 590 OFFCURVE",
"1300 490 QCURVE",
"1301 481 OFFCURVE",
"1301 472 QCURVE SMOOTH",
"1301 404 OFFCURVE",
"1256 327 QCURVE SMOOTH",
"1204 240 OFFCURVE",
"1163 240 QCURVE",
"923 499 LINE",
"620 265 LINE",
"500 327 OFFCURVE",
"449 473 QCURVE",
"612 645 LINE SMOOTH",
"670 709 OFFCURVE",
"670 784 QCURVE SMOOTH",
"670 859 OFFCURVE",
"596 941 QCURVE SMOOTH",
"450 1104 LINE",
"610 1250 LINE",
"828 1100 OFFCURVE",
"1110 1100 QCURVE SMOOTH",
"1500 1100 OFFCURVE",
"1500 1486 QCURVE SMOOTH",
"1500 1750 OFFCURVE",
"1310 1750 QCURVE SMOOTH",
"1234 1750 OFFCURVE",
"1234 1712 QCURVE SMOOTH",
"1234 1695 OFFCURVE",
"1250 1670 QCURVE SMOOTH",
"1300 1590 OFFCURVE",
"1300 1486 QCURVE SMOOTH",
"1300 1300 OFFCURVE",
"1110 1300 QCURVE SMOOTH",
"881 1300 OFFCURVE",
"758 1400 QCURVE SMOOTH",
"634 1500 OFFCURVE",
"602 1500 QCURVE SMOOTH",
"570 1500 OFFCURVE",
"501 1437 QCURVE SMOOTH",
"293 1249 LINE SMOOTH",
"200 1165 OFFCURVE",
"200 1126 QCURVE SMOOTH",
"200 1085 OFFCURVE",
"275 1000 QCURVE",
"458 772 LINE",
"200 517 LINE",
"200 399 OFFCURVE",
"504 0 OFFCURVE",
"624 0 QCURVE",
"889 206 LINE",
"1099 0 OFFCURVE",
"1165 0 QCURVE SMOOTH",
"1287 0 OFFCURVE",
"1500 308 OFFCURVE"
);
}
);
width = 1800;
}
);
note = uni1795;
unicode = 1795;
},
{
glyphname = uni1796;
layers = (
{
layerId = "BB6B0684-34D4-4B80-99D1-F5F29B570554";
paths = (
{
closed = 1;
nodes = (
"607 480 QCURVE SMOOTH",
"670 480 OFFCURVE",
"670 400 QCURVE SMOOTH",
"670 344 OFFCURVE",
"623 200 OFFCURVE",
"587 200 QCURVE",
"520 230 OFFCURVE",
"500 370 QCURVE",
"500 480 OFFCURVE"
);
},
{
closed = 1;
nodes = (
"1500 1211 OFFCURVE",
"1411 1285 QCURVE SMOOTH",
"1152 1500 LINE",
"899 1322 LINE",
"645 1500 LINE",
"387 1285 LINE SMOOTH",
"300 1211 OFFCURVE",
"300 1135 QCURVE SMOOTH",
"300 370 LINE SMOOTH",
"300 245 OFFCURVE",
"490 0 OFFCURVE",
"587 0 QCURVE SMOOTH",
"693 0 OFFCURVE",
"870 245 OFFCURVE",
"870 400 QCURVE SMOOTH",
"870 670 OFFCURVE",
"607 670 QCURVE SMOOTH",
"531 670 OFFCURVE",
"500 626 QCURVE",
"500 1103 LINE",
"659 1235 LINE",
"899 1070 LINE",
"1139 1235 LINE",
"1300 1103 LINE",
"1300 500 LINE SMOOTH",
"1300 420 OFFCURVE",
"1150 276 OFFCURVE",
"1150 193 QCURVE SMOOTH",
"1150 110 OFFCURVE",
"1337 0 OFFCURVE",
"1419 0 QCURVE SMOOTH",
"1500 0 OFFCURVE",
"1500 100 QCURVE SMOOTH",
"1500 1135 LINE SMOOTH"
);
}
);
width = 1800;
}
);
note = uni1796;
unicode = 1796;
},
{
glyphname = uni1797;
layers = (
{
layerId = "BB6B0684-34D4-4B80-99D1-F5F29B570554";
paths = (
{
closed = 1;
nodes = (
"373 1051 LINE",
"487 1109 LINE",
"437 1189 LINE",
"589 1290 LINE",
"897 1181 LINE",
"1163 1307 LINE",
"1311 1209 OFFCURVE",
"1402 1179 QCURVE SMOOTH",
"1416 1174 OFFCURVE",
"1430 1174 QCURVE SMOOTH",
"1508 1174 OFFCURVE",
"1600 1320 QCURVE",
"1424 1379 OFFCURVE",
"1209 1500 OFFCURVE",
"1173 1500 QCURVE SMOOTH",
"1135 1500 OFFCURVE",
"897 1394 QCURVE",
"607 1500 OFFCURVE",
"570 1500 QCURVE SMOOTH",
"534 1500 OFFCURVE",
"450 1440 QCURVE SMOOTH",
"200 1270 LINE",
"200 1215 LINE"
);
},
{
closed = 1;
nodes = (
"900 937 LINE",
"1300 738 LINE",
"1300 500 LINE SMOOTH",
"1300 420 OFFCURVE",
"1150 276 OFFCURVE",
"1150 193 QCURVE SMOOTH",
"1150 110 OFFCURVE",
"1337 0 OFFCURVE",
"1419 0 QCURVE SMOOTH",
"1500 0 OFFCURVE",
"1500 100 QCURVE SMOOTH",
"1500 788 LINE SMOOTH",
"1500 866 OFFCURVE",
"1425 905 QCURVE SMOOTH",
"900 1160 LINE",
"375 905 LINE SMOOTH",
"300 866 OFFCURVE",
"300 788 QCURVE",
"428 709 OFFCURVE",
"428 600 QCURVE SMOOTH",
"428 480 LINE SMOOTH",
"428 280 OFFCURVE",
"250 196 QCURVE",
"250 0 OFFCURVE",
"396 0 QCURVE SMOOTH",
"491 0 OFFCURVE",
"628 190 OFFCURVE",
"628 400 QCURVE SMOOTH",
"628 600 LINE SMOOTH",
"628 709 OFFCURVE",
"554 763 QCURVE"
);
}
);
width = 1800;
}
);
note = uni1797;
unicode = 1797;
},
{
glyphname = uni1798;
layers = (
{
layerId = "BB6B0684-34D4-4B80-99D1-F5F29B570554";
paths = (
{
closed = 1;
nodes = (
"1300 500 LINE",
"1250 280 OFFCURVE",
"1050 200 QCURVE",
"664 200 LINE",
"490 297 OFFCURVE",
"411 429 QCURVE",
"595 617 LINE SMOOTH",
"610 631 OFFCURVE",
"621 645 QCURVE",
"1300 645 LINE"
);
},
{
closed = 1;
nodes = (
"632 886 OFFCURVE",
"596 931 QCURVE SMOOTH",
"522 1023 OFFCURVE",
"391 1114 QCURVE",
"489 1249 LINE",
"638 1171 OFFCURVE",
"714 1171 QCURVE SMOOTH",
"733 1171 OFFCURVE",
"748 1176 QCURVE SMOOTH",
"820 1200 OFFCURVE",
"840 1343 QCURVE",
"827 1337 OFFCURVE",
"809 1337 QCURVE SMOOTH",
"715 1337 OFFCURVE",
"476 1500 QCURVE",
"150 1022 LINE",
"350 962 OFFCURVE",
"458 752 QCURVE",
"150 476 LINE",
"180 310 OFFCURVE",
"544 0 OFFCURVE",
"664 0 QCURVE SMOOTH",
"1050 0 LINE",
"1460 100 OFFCURVE",
"1500 500 QCURVE",
"1500 896 LINE",
"1480 1072 OFFCURVE",
"1301 1154 QCURVE",
"1379 1249 LINE",
"1520 1171 OFFCURVE",
"1588 1171 QCURVE SMOOTH",
"1605 1171 OFFCURVE",
"1618 1176 QCURVE SMOOTH",
"1680 1200 OFFCURVE",
"1700 1343 QCURVE",
"1687 1337 OFFCURVE",
"1670 1337 QCURVE SMOOTH",
"1579 1337 OFFCURVE",
"1366 1500 QCURVE",
"1040 1052 LINE",
"1260 1012 OFFCURVE",
"1300 876 QCURVE",
"1300 845 LINE",
"651 845 LINE"
);
}
);
width = 1800;
}
);
note = uni1798;
unicode = 1798;
},
{
glyphname = uni1799;
layers = (
{
layerId = "BB6B0684-34D4-4B80-99D1-F5F29B570554";
paths = (
{
closed = 1;
nodes = (
"1724 0 QCURVE SMOOTH",
"2030 0 LINE",
"2410 100 OFFCURVE",
"2450 500 QCURVE",
"2450 896 LINE",
"2430 1072 OFFCURVE",
"2251 1154 QCURVE",
"2329 1249 LINE",
"2470 1171 OFFCURVE",
"2538 1171 QCURVE SMOOTH",
"2555 1171 OFFCURVE",
"2568 1176 QCURVE SMOOTH",
"2630 1200 OFFCURVE",
"2650 1343 QCURVE",
"2637 1337 OFFCURVE",
"2620 1337 QCURVE SMOOTH",
"2529 1337 OFFCURVE",
"2316 1500 QCURVE",
"1990 1052 LINE",
"2210 1012 OFFCURVE",
"2250 876 QCURVE",
"2250 500 LINE",
"2200 280 OFFCURVE",
"2000 200 QCURVE",
"1764 200 LINE",
"1620 281 OFFCURVE",
"1531 393 QCURVE",
"1544 443 OFFCURVE",
"1550 500 QCURVE",
"1550 896 LINE",
"1530 1072 OFFCURVE",
"1351 1154 QCURVE",
"1429 1249 LINE",
"1570 1171 OFFCURVE",
"1638 1171 QCURVE SMOOTH",
"1655 1171 OFFCURVE",
"1668 1176 QCURVE SMOOTH",
"1730 1200 OFFCURVE",
"1750 1343 QCURVE",
"1737 1337 OFFCURVE",
"1720 1337 QCURVE SMOOTH",
"1629 1337 OFFCURVE",
"1416 1500 QCURVE",
"1090 1052 LINE",
"1310 1012 OFFCURVE",
"1350 876 QCURVE",
"1350 500 LINE",
"1300 280 OFFCURVE",
"1100 200 QCURVE",
"744 200 LINE",
"600 297 OFFCURVE",
"500 459 QCURVE",
"500 1006 LINE SMOOTH",
"500 1128 OFFCURVE",
"687 1223 QCURVE SMOOTH",
"839 1301 OFFCURVE",
"839 1375 QCURVE SMOOTH",
"839 1392 OFFCURVE",
"831 1409 QCURVE SMOOTH",
"789 1500 OFFCURVE",
"701 1500 QCURVE SMOOTH",
"613 1500 OFFCURVE",
"300 1136 OFFCURVE",
"300 1009 QCURVE SMOOTH",
"300 476 LINE SMOOTH",
"300 310 OFFCURVE",
"624 0 OFFCURVE",
"744 0 QCURVE SMOOTH",
"1100 0 LINE",
"1314 52 OFFCURVE",
"1427 186 QCURVE",
"1598 0 OFFCURVE"
);
}
);
width = 2750;
}
);
note = uni1799;
unicode = 1799;
},
{
glyphname = uni179A;
layers = (
{
layerId = "BB6B0684-34D4-4B80-99D1-F5F29B570554";
paths = (
{
closed = 1;
nodes = (
"550 1062 OFFCURVE",
"401 1134 QCURVE",
"459 1219 LINE",
"555 1160 OFFCURVE",
"624 1160 QCURVE SMOOTH",
"680 1160 OFFCURVE",
"718 1201 QCURVE SMOOTH",
"800 1290 OFFCURVE",
"800 1413 QCURVE",
"734 1356 OFFCURVE",
"665 1356 QCURVE SMOOTH",
"555 1356 OFFCURVE",
"436 1500 QCURVE",
"150 1052 LINE",
"350 1012 OFFCURVE",
"350 876 QCURVE SMOOTH",
"350 500 LINE SMOOTH",
"350 410 OFFCURVE",
"150 240 OFFCURVE",
"150 165 QCURVE SMOOTH",
"150 0 OFFCURVE",
"265 0 QCURVE SMOOTH",
"370 0 OFFCURVE",
"550 220 OFFCURVE",
"550 490 QCURVE SMOOTH",
"550 946 LINE SMOOTH"
);
}
);
width = 850;
}
);
note = uni179A;
unicode = 179A;
},
{
glyphname = uni179B;
layers = (
{
layerId = "BB6B0684-34D4-4B80-99D1-F5F29B570554";
paths = (
{
closed = 1;
nodes = (
"1388 813 QCURVE SMOOTH",
"1388 812 LINE",
"1102 528 LINE",
"1132 362 OFFCURVE",
"1444 0 OFFCURVE",
"1624 0 QCURVE SMOOTH",
"1990 0 LINE",
"2360 100 OFFCURVE",
"2400 500 QCURVE",
"2400 896 LINE",
"2380 1072 OFFCURVE",
"2201 1154 QCURVE",
"2279 1249 LINE",
"2420 1171 OFFCURVE",
"2488 1171 QCURVE SMOOTH",
"2505 1171 OFFCURVE",
"2518 1176 QCURVE SMOOTH",
"2580 1200 OFFCURVE",
"2600 1343 QCURVE",
"2587 1337 OFFCURVE",
"2570 1337 QCURVE SMOOTH",
"2479 1337 OFFCURVE",
"2266 1500 QCURVE",
"1940 1052 LINE",
"2160 1012 OFFCURVE",
"2200 876 QCURVE",
"2200 500 LINE",
"2150 280 OFFCURVE",
"1990 200 QCURVE",
"1624 200 LINE",
"1452 317 OFFCURVE",
"1363 481 QCURVE",
"1528 654 LINE SMOOTH",
"1600 729 OFFCURVE",
"1600 824 QCURVE SMOOTH",
"1600 882 OFFCURVE",
"1493 1038 OFFCURVE",
"1425 1094 QCURVE",
"900 1500 LINE",
"375 1094 LINE",
"300 1032 OFFCURVE",
"300 908 QCURVE SMOOTH",
"300 290 LINE SMOOTH",
"300 150 OFFCURVE",
"437 0 OFFCURVE",
"532 0 QCURVE SMOOTH",
"627 0 OFFCURVE",
"667 133 QCURVE SMOOTH",
"678 170 OFFCURVE",
"678 203 QCURVE SMOOTH",
"678 290 OFFCURVE",
"604 353 QCURVE SMOOTH",
"500 440 OFFCURVE",
"500 480 QCURVE SMOOTH",
"500 948 LINE",
"900 1265 LINE",
"1300 948 LINE SMOOTH",
"1388 880 OFFCURVE"
);
}
);
width = 2700;
}
);
note = uni179B;
unicode = 179B;
},
{
glyphname = uni179C;
layers = (
{
layerId = "BB6B0684-34D4-4B80-99D1-F5F29B570554";
paths = (
{
closed = 1;
nodes = (
"350 410 OFFCURVE",
"150 240 OFFCURVE",
"150 165 QCURVE SMOOTH",
"150 0 OFFCURVE",
"265 0 QCURVE SMOOTH",
"370 0 OFFCURVE",
"550 220 OFFCURVE",
"550 490 QCURVE SMOOTH",
"550 946 LINE SMOOTH",
"550 1062 OFFCURVE",
"401 1134 QCURVE",
"459 1219 LINE",
"562 1156 OFFCURVE",
"633 1156 QCURVE SMOOTH",
"683 1156 OFFCURVE",
"718 1188 QCURVE SMOOTH",
"800 1265 OFFCURVE",
"800 1435 QCURVE SMOOTH",
"800 1675 OFFCURVE",
"623 1800 QCURVE",
"645 1614 OFFCURVE",
"645 1509 QCURVE SMOOTH",
"645 1371 OFFCURVE",
"608 1371 QCURVE SMOOTH",
"606 1371 OFFCURVE",
"604 1372 QCURVE",
"533 1383 OFFCURVE",
"436 1500 QCURVE",
"150 1052 LINE",
"350 1012 OFFCURVE",
"350 876 QCURVE SMOOTH",
"350 500 LINE SMOOTH"
);
}
);
width = 850;
}
);
note = uni179C;
unicode = 179C;
},
{
glyphname = uni179D;
layers = (
{
layerId = "BB6B0684-34D4-4B80-99D1-F5F29B570554";
paths = (
{
closed = 1;
nodes = (
"373 1051 LINE",
"487 1109 LINE",
"437 1189 LINE",
"589 1290 LINE",
"897 1181 LINE",
"1163 1307 LINE",
"1311 1209 OFFCURVE",
"1402 1179 QCURVE SMOOTH",
"1416 1174 OFFCURVE",
"1430 1174 QCURVE SMOOTH",
"1508 1174 OFFCURVE",
"1600 1320 QCURVE",
"1424 1379 OFFCURVE",
"1209 1500 OFFCURVE",
"1173 1500 QCURVE SMOOTH",
"1135 1500 OFFCURVE",
"897 1394 QCURVE",
"607 1500 OFFCURVE",
"570 1500 QCURVE SMOOTH",
"534 1500 OFFCURVE",
"450 1440 QCURVE SMOOTH",
"200 1270 LINE",
"200 1215 LINE"
);
},
{
closed = 1;
nodes = (
"1100 466 LINE",
"1297 466 LINE",
"1284 405 OFFCURVE",
"1225 348 QCURVE SMOOTH",
"1150 276 OFFCURVE",
"1150 193 QCURVE SMOOTH",
"1150 110 OFFCURVE",
"1337 0 OFFCURVE",
"1419 0 QCURVE SMOOTH",
"1500 0 OFFCURVE",
"1500 100 QCURVE SMOOTH",
"1500 466 LINE",
"1700 466 LINE",
"1700 666 LINE",
"1500 666 LINE",
"1500 788 LINE SMOOTH",
"1500 866 OFFCURVE",
"1425 905 QCURVE SMOOTH",
"900 1160 LINE",
"375 905 LINE SMOOTH",
"300 866 OFFCURVE",
"300 788 QCURVE SMOOTH",
"300 290 LINE SMOOTH",
"300 150 OFFCURVE",
"437 0 OFFCURVE",
"532 0 QCURVE SMOOTH",
"627 0 OFFCURVE",
"667 133 QCURVE SMOOTH",
"678 170 OFFCURVE",
"678 203 QCURVE SMOOTH",
"678 290 OFFCURVE",
"604 353 QCURVE SMOOTH",
"500 440 OFFCURVE",
"500 480 QCURVE SMOOTH",
"500 738 LINE",
"900 937 LINE",
"1300 738 LINE",
"1300 666 LINE",
"1100 666 LINE"
);
}
);
width = 1800;
}
);
note = uni179D;
unicode = 179D;
},
{
glyphname = uni179E;
layers = (
{
layerId = "BB6B0684-34D4-4B80-99D1-F5F29B570554";
paths = (
{
closed = 1;
nodes = (
"1700 796 LINE",
"1500 796 LINE",
"1500 896 LINE",
"1480 1072 OFFCURVE",
"1301 1154 QCURVE",
"1379 1249 LINE",
"1520 1171 OFFCURVE",
"1588 1171 QCURVE SMOOTH",
"1605 1171 OFFCURVE",
"1618 1176 QCURVE SMOOTH",
"1680 1200 OFFCURVE",
"1700 1343 QCURVE",
"1687 1337 OFFCURVE",
"1670 1337 QCURVE SMOOTH",
"1579 1337 OFFCURVE",
"1366 1500 QCURVE",
"1040 1052 LINE",
"1260 1012 OFFCURVE",
"1300 876 QCURVE",
"1300 796 LINE",
"1100 796 LINE",
"1100 596 LINE",
"1300 596 LINE",
"1300 500 LINE",
"1250 280 OFFCURVE",
"1050 200 QCURVE",
"664 200 LINE",
"490 297 OFFCURVE",
"411 429 QCURVE",
"595 617 LINE SMOOTH",
"670 689 OFFCURVE",
"670 764 QCURVE SMOOTH",
"670 839 OFFCURVE",
"522 1023 OFFCURVE",
"391 1114 QCURVE",
"489 1249 LINE",
"638 1171 OFFCURVE",
"714 1171 QCURVE SMOOTH",
"733 1171 OFFCURVE",
"748 1176 QCURVE SMOOTH",
"820 1200 OFFCURVE",
"840 1343 QCURVE",
"827 1337 OFFCURVE",
"809 1337 QCURVE SMOOTH",
"715 1337 OFFCURVE",
"476 1500 QCURVE",
"150 1022 LINE",
"350 962 OFFCURVE",
"458 752 QCURVE",
"150 476 LINE",
"180 310 OFFCURVE",
"544 0 OFFCURVE",
"664 0 QCURVE SMOOTH",
"1050 0 LINE",
"1460 100 OFFCURVE",
"1500 500 QCURVE",
"1500 596 LINE",
"1700 596 LINE"
);
}
);
width = 1800;
}
);
note = uni179E;
unicode = 179E;
},
{
glyphname = uni179F;
layers = (
{
layerId = "BB6B0684-34D4-4B80-99D1-F5F29B570554";
paths = (
{
closed = 1;
nodes = (
"913 1015 QCURVE SMOOTH",
"687 1015 OFFCURVE",
"527 929 QCURVE SMOOTH",
"300 806 OFFCURVE",
"300 600 QCURVE SMOOTH",
"300 290 LINE SMOOTH",
"300 150 OFFCURVE",
"517 0 OFFCURVE",
"612 0 QCURVE SMOOTH",
"707 0 OFFCURVE",
"717 128 QCURVE SMOOTH",
"718 138 OFFCURVE",
"718 148 QCURVE SMOOTH",
"718 261 OFFCURVE",
"614 313 QCURVE SMOOTH",
"500 370 OFFCURVE",
"500 600 QCURVE SMOOTH",
"500 728 OFFCURVE",
"710 808 QCURVE SMOOTH",
"780 834 OFFCURVE",
"867 834 QCURVE SMOOTH",
"1040 834 OFFCURVE",
"1280 728 QCURVE",
"1130 476 LINE",
"1130 310 OFFCURVE",
"1534 0 OFFCURVE",
"1654 0 QCURVE SMOOTH",
"1960 0 LINE",
"2360 100 OFFCURVE",
"2400 500 QCURVE",
"2400 896 LINE",
"2380 1072 OFFCURVE",
"2201 1154 QCURVE",
"2279 1249 LINE",
"2420 1171 OFFCURVE",
"2488 1171 QCURVE SMOOTH",
"2505 1171 OFFCURVE",
"2518 1176 QCURVE SMOOTH",
"2580 1200 OFFCURVE",
"2600 1343 QCURVE",
"2587 1337 OFFCURVE",
"2570 1337 QCURVE SMOOTH",
"2479 1337 OFFCURVE",
"2266 1500 QCURVE",
"1940 1052 LINE",
"2160 1012 OFFCURVE",
"2200 876 QCURVE",
"2200 500 LINE",
"2150 280 OFFCURVE",
"1960 200 QCURVE",
"1654 200 LINE",
"1460 297 OFFCURVE",
"1374 458 QCURVE",
"1472 607 LINE SMOOTH",
"1505 657 OFFCURVE",
"1505 708 QCURVE SMOOTH",
"1505 806 OFFCURVE",
"1380 906 QCURVE",
"1372 910 OFFCURVE",
"1364 914 QCURVE",
"1355 996 OFFCURVE",
"1323 1045 QCURVE SMOOTH",
"1274 1121 OFFCURVE",
"1115 1185 QCURVE",
"1143 1242 LINE",
"1261 1186 OFFCURVE",
"1326 1186 QCURVE SMOOTH",
"1353 1186 OFFCURVE",
"1372 1196 QCURVE SMOOTH",
"1434 1228 OFFCURVE",
"1454 1357 QCURVE",
"1441 1352 OFFCURVE",
"1425 1352 QCURVE SMOOTH",
"1335 1352 OFFCURVE",
"1130 1500 QCURVE",
"822 1093 LINE",
"1011 1059 OFFCURVE",
"1108 1001 QCURVE",
"1005 1015 OFFCURVE"
);
}
);
width = 2700;
}
);
note = uni179F;
unicode = 179F;
},
{
glyphname = uni17A0;
layers = (
{
layerId = "BB6B0684-34D4-4B80-99D1-F5F29B570554";
paths = (
{
closed = 1;
nodes = (
"1500 1000 OFFCURVE",
"1475 1045 QCURVE",
"1799 1277 LINE",
"2250 1022 LINE",
"2250 500 LINE SMOOTH",
"2250 420 OFFCURVE",
"2100 276 OFFCURVE",
"2100 193 QCURVE SMOOTH",
"2100 110 OFFCURVE",
"2287 0 OFFCURVE",
"2369 0 QCURVE SMOOTH",
"2450 0 OFFCURVE",
"2450 100 QCURVE SMOOTH",
"2450 1140 LINE",
"1864 1500 OFFCURVE",
"1805 1500 QCURVE SMOOTH",
"1748 1500 OFFCURVE",
"1201 1122 QCURVE SMOOTH",
"1164 1096 OFFCURVE",
"1164 1066 QCURVE SMOOTH",
"1164 1035 OFFCURVE",
"1198 1023 QCURVE SMOOTH",
"1300 988 OFFCURVE",
"1300 876 QCURVE SMOOTH",
"1300 500 LINE",
"1250 280 OFFCURVE",
"1050 200 QCURVE",
"664 200 LINE",
"490 297 OFFCURVE",
"411 429 QCURVE",
"595 617 LINE SMOOTH",
"670 689 OFFCURVE",
"670 764 QCURVE SMOOTH",
"670 839 OFFCURVE",
"522 1023 OFFCURVE",
"391 1114 QCURVE",
"489 1249 LINE",
"638 1171 OFFCURVE",
"714 1171 QCURVE SMOOTH",
"733 1171 OFFCURVE",
"748 1176 QCURVE SMOOTH",
"820 1200 OFFCURVE",
"840 1343 QCURVE",
"827 1337 OFFCURVE",
"809 1337 QCURVE SMOOTH",
"715 1337 OFFCURVE",
"476 1500 QCURVE",
"150 1022 LINE",
"350 962 OFFCURVE",
"458 752 QCURVE",
"150 476 LINE",
"180 310 OFFCURVE",
"544 0 OFFCURVE",
"664 0 QCURVE SMOOTH",
"1050 0 LINE",
"1460 100 OFFCURVE",
"1500 500 QCURVE",
"1500 946 LINE SMOOTH"
);
}
);
width = 2750;
}
);
note = uni17A0;
unicode = 17A0;
},
{
glyphname = uni17A1;
layers = (
{
layerId = "BB6B0684-34D4-4B80-99D1-F5F29B570554";
paths = (
{
closed = 1;
nodes = (
"1600 -752 LINE",
"1447 -687 LINE",
"1524 -607 LINE SMOOTH",
"1600 -527 OFFCURVE",
"1600 -441 QCURVE SMOOTH",
"1600 -200 OFFCURVE",
"1354 -200 QCURVE SMOOTH",
"1257 -200 OFFCURVE",
"1255 -300 QCURVE",
"1254 -302 OFFCURVE",
"1254 -305 QCURVE SMOOTH",
"1254 -400 OFFCURVE",
"1351 -400 QCURVE SMOOTH",
"1400 -400 OFFCURVE",
"1400 -441 QCURVE SMOOTH",
"1400 -483 OFFCURVE",
"1361 -523 QCURVE SMOOTH",
"1305 -584 LINE SMOOTH",
"1250 -645 OFFCURVE",
"1250 -734 QCURVE SMOOTH",
"1250 -824 OFFCURVE",
"1389 -887 QCURVE SMOOTH",
"1461 -918 LINE SMOOTH",
"1534 -950 OFFCURVE",
"1624 -950 QCURVE SMOOTH",
"1713 -950 OFFCURVE",
"1751 -894 QCURVE SMOOTH",
"1866 -727 LINE",
"2042 -838 LINE",
"2129 -894 LINE SMOOTH",
"2217 -950 OFFCURVE",
"2334 -950 QCURVE SMOOTH",
"2450 -950 OFFCURVE",
"2450 -728 QCURVE SMOOTH",
"2450 946 LINE SMOOTH",
"2450 1082 OFFCURVE",
"2291 1164 QCURVE",
"2349 1249 LINE",
"2474 1171 OFFCURVE",
"2539 1171 QCURVE SMOOTH",
"2555 1171 OFFCURVE",
"2568 1176 QCURVE SMOOTH",
"2630 1200 OFFCURVE",
"2650 1343 QCURVE",
"2637 1337 OFFCURVE",
"2620 1337 QCURVE SMOOTH",
"2533 1337 OFFCURVE",
"2336 1500 QCURVE",
"2050 1052 LINE",
"2250 1012 OFFCURVE",
"2250 876 QCURVE SMOOTH",
"2250 -728 LINE",
"1840 -487 LINE"
);
},
{
closed = 1;
nodes = (
"362 155 QCURVE",
"544 0 OFFCURVE",
"664 0 QCURVE",
"951 225 LINE SMOOTH",
"1047 300 OFFCURVE",
"1164 300 QCURVE SMOOTH",
"1300 300 OFFCURVE",
"1300 200 QCURVE SMOOTH",
"1300 150 OFFCURVE",
"1233 94 QCURVE",
"1247 3 OFFCURVE",
"1374 3 QCURVE SMOOTH",
"1500 3 OFFCURVE",
"1500 200 QCURVE SMOOTH",
"1500 320 OFFCURVE",
"1309 500 OFFCURVE",
"1164 500 QCURVE SMOOTH",
"1018 500 OFFCURVE",
"852 385 QCURVE SMOOTH",
"630 235 LINE",
"490 297 OFFCURVE",
"439 453 QCURVE",
"595 617 LINE",
"670 689 OFFCURVE",
"670 764 QCURVE SMOOTH",
"670 839 OFFCURVE",
"522 1023 OFFCURVE",
"444 1071 QCURVE",
"604 1300 OFFCURVE",
"756 1300 QCURVE SMOOTH",
"971 1300 LINE SMOOTH",
"1104 1300 OFFCURVE",
"1202 1234 QCURVE SMOOTH",
"1301 1167 OFFCURVE",
"1303 1119 QCURVE SMOOTH",
"1303 1118 LINE SMOOTH",
"1303 1070 OFFCURVE",
"1230 1070 QCURVE SMOOTH",
"1160 1070 OFFCURVE",
"1160 980 QCURVE SMOOTH",
"1160 970 LINE SMOOTH",
"1164 870 OFFCURVE",
"1332 870 QCURVE SMOOTH",
"1500 870 OFFCURVE",
"1500 1119 QCURVE SMOOTH",
"1500 1288 OFFCURVE",
"1344 1394 QCURVE SMOOTH",
"1187 1500 OFFCURVE",
"971 1500 QCURVE SMOOTH",
"756 1500 LINE SMOOTH",
"506 1500 OFFCURVE",
"287 1205 QCURVE SMOOTH",
"200 1089 OFFCURVE",
"200 1006 QCURVE",
"363 937 OFFCURVE",
"458 752 QCURVE",
"200 517 LINE",
"200 349 OFFCURVE"
);
}
);
width = 2750;
}
);
note = uni17A1;
unicode = 17A1;
},
{
glyphname = uni17A2;
layers = (
{
layerId = "BB6B0684-34D4-4B80-99D1-F5F29B570554";
paths = (
{
closed = 1;
nodes = (
"1300 500 LINE SMOOTH",
"1300 410 OFFCURVE",
"1100 240 OFFCURVE",
"1100 165 QCURVE SMOOTH",
"1100 0 OFFCURVE",
"1215 0 QCURVE SMOOTH",
"1320 0 OFFCURVE",
"1500 220 OFFCURVE",
"1500 490 QCURVE SMOOTH",
"1500 946 LINE SMOOTH",
"1500 1082 OFFCURVE",
"1341 1164 QCURVE",
"1399 1249 LINE",
"1524 1171 OFFCURVE",
"1589 1171 QCURVE SMOOTH",
"1605 1171 OFFCURVE",
"1618 1176 QCURVE SMOOTH",
"1680 1200 OFFCURVE",
"1700 1343 QCURVE",
"1687 1337 OFFCURVE",
"1670 1337 QCURVE SMOOTH",
"1583 1337 OFFCURVE",
"1386 1500 QCURVE",
"1100 1052 LINE",
"1300 1012 OFFCURVE",
"1300 876 QCURVE SMOOTH",
"1300 845 LINE",
"550 845 LINE",
"550 946 LINE SMOOTH",
"550 1082 OFFCURVE",
"391 1164 QCURVE",
"449 1249 LINE",
"598 1171 OFFCURVE",
"674 1171 QCURVE SMOOTH",
"693 1171 OFFCURVE",
"708 1176 QCURVE SMOOTH",
"780 1200 OFFCURVE",
"800 1343 QCURVE",
"787 1337 OFFCURVE",
"769 1337 QCURVE SMOOTH",
"675 1337 OFFCURVE",
"436 1500 QCURVE",
"150 1052 LINE",
"350 1012 OFFCURVE",
"350 876 QCURVE SMOOTH",
"350 500 LINE SMOOTH",
"350 410 OFFCURVE",
"150 240 OFFCURVE",
"150 165 QCURVE SMOOTH",
"150 0 OFFCURVE",
"265 0 QCURVE SMOOTH",
"370 0 OFFCURVE",
"550 220 OFFCURVE",
"550 490 QCURVE SMOOTH",
"550 645 LINE",
"1300 645 LINE"
);
}
);
width = 1800;
}
);
note = uni17A2;
unicode = 17A2;
},
{
glyphname = uni17A3;
layers = (
{
layerId = "BB6B0684-34D4-4B80-99D1-F5F29B570554";
paths = (
{
closed = 1;
nodes = (
"1300 500 LINE SMOOTH",
"1300 410 OFFCURVE",
"1100 240 OFFCURVE",
"1100 165 QCURVE SMOOTH",
"1100 0 OFFCURVE",
"1215 0 QCURVE SMOOTH",
"1320 0 OFFCURVE",
"1500 220 OFFCURVE",
"1500 490 QCURVE SMOOTH",
"1500 946 LINE SMOOTH",
"1500 1082 OFFCURVE",
"1341 1164 QCURVE",
"1399 1249 LINE",
"1524 1171 OFFCURVE",
"1589 1171 QCURVE SMOOTH",
"1605 1171 OFFCURVE",
"1618 1176 QCURVE SMOOTH",
"1680 1200 OFFCURVE",
"1700 1343 QCURVE",
"1687 1337 OFFCURVE",
"1670 1337 QCURVE SMOOTH",
"1583 1337 OFFCURVE",
"1386 1500 QCURVE",
"1100 1052 LINE",
"1300 1012 OFFCURVE",
"1300 876 QCURVE SMOOTH",
"1300 845 LINE",
"550 845 LINE",
"550 946 LINE SMOOTH",
"550 1082 OFFCURVE",
"391 1164 QCURVE",
"449 1249 LINE",
"598 1171 OFFCURVE",
"674 1171 QCURVE SMOOTH",
"693 1171 OFFCURVE",
"708 1176 QCURVE SMOOTH",
"780 1200 OFFCURVE",
"800 1343 QCURVE",
"787 1337 OFFCURVE",
"769 1337 QCURVE SMOOTH",
"675 1337 OFFCURVE",
"436 1500 QCURVE",
"150 1052 LINE",
"350 1012 OFFCURVE",
"350 876 QCURVE SMOOTH",
"350 500 LINE SMOOTH",
"350 410 OFFCURVE",
"150 240 OFFCURVE",
"150 165 QCURVE SMOOTH",
"150 0 OFFCURVE",
"265 0 QCURVE SMOOTH",
"370 0 OFFCURVE",
"550 220 OFFCURVE",
"550 490 QCURVE SMOOTH",
"550 645 LINE",
"1300 645 LINE"
);
}
);
width = 1800;
}
);
note = uni17A3;
unicode = 17A3;
},
{
glyphname = uni17A4;
layers = (
{
layerId = "BB6B0684-34D4-4B80-99D1-F5F29B570554";
paths = (
{
closed = 1;
nodes = (
"1500 1000 OFFCURVE",
"1475 1045 QCURVE",
"1799 1277 LINE",
"2250 1022 LINE",
"2250 500 LINE SMOOTH",
"2250 420 OFFCURVE",
"2100 276 OFFCURVE",
"2100 193 QCURVE SMOOTH",
"2100 110 OFFCURVE",
"2287 0 OFFCURVE",
"2369 0 QCURVE SMOOTH",
"2450 0 OFFCURVE",
"2450 100 QCURVE SMOOTH",
"2450 1140 LINE",
"1864 1500 OFFCURVE",
"1805 1500 QCURVE SMOOTH",
"1748 1500 OFFCURVE",
"1201 1122 QCURVE SMOOTH",
"1164 1096 OFFCURVE",
"1164 1066 QCURVE SMOOTH",
"1164 1035 OFFCURVE",
"1198 1023 QCURVE SMOOTH",
"1300 988 OFFCURVE",
"1300 876 QCURVE SMOOTH",
"1300 845 LINE",
"550 845 LINE",
"550 946 LINE SMOOTH",
"550 1082 OFFCURVE",
"391 1164 QCURVE",
"449 1249 LINE",
"598 1171 OFFCURVE",
"674 1171 QCURVE SMOOTH",
"693 1171 OFFCURVE",
"708 1176 QCURVE SMOOTH",
"780 1200 OFFCURVE",
"800 1343 QCURVE",
"787 1337 OFFCURVE",
"769 1337 QCURVE SMOOTH",
"675 1337 OFFCURVE",
"436 1500 QCURVE",
"150 1052 LINE",
"350 1012 OFFCURVE",
"350 876 QCURVE SMOOTH",
"350 500 LINE SMOOTH",
"350 410 OFFCURVE",
"150 240 OFFCURVE",
"150 165 QCURVE SMOOTH",
"150 0 OFFCURVE",
"265 0 QCURVE SMOOTH",
"370 0 OFFCURVE",
"550 220 OFFCURVE",
"550 490 QCURVE SMOOTH",
"550 645 LINE",
"1300 645 LINE",
"1300 500 LINE SMOOTH",
"1300 410 OFFCURVE",
"1100 240 OFFCURVE",
"1100 165 QCURVE SMOOTH",
"1100 0 OFFCURVE",
"1215 0 QCURVE SMOOTH",
"1320 0 OFFCURVE",
"1500 220 OFFCURVE",
"1500 490 QCURVE SMOOTH",
"1500 946 LINE SMOOTH"
);
}
);
width = 2750;
}
);
note = uni17A4;
unicode = 17A4;
},
{
glyphname = uni17A5;
layers = (
{
layerId = "BB6B0684-34D4-4B80-99D1-F5F29B570554";
paths = (
{
closed = 1;
nodes = (
"607 440 QCURVE SMOOTH",
"670 440 OFFCURVE",
"670 360 QCURVE SMOOTH",
"670 304 OFFCURVE",
"623 200 OFFCURVE",
"587 200 QCURVE",
"520 230 OFFCURVE",
"500 330 QCURVE",
"500 440 OFFCURVE"
);
},
{
closed = 1;
nodes = (
"800 1250 LINE",
"988 1130 OFFCURVE",
"1140 1130 QCURVE SMOOTH",
"1500 1130 OFFCURVE",
"1500 1486 QCURVE SMOOTH",
"1500 1750 OFFCURVE",
"1310 1750 QCURVE SMOOTH",
"1234 1750 OFFCURVE",
"1234 1712 QCURVE SMOOTH",
"1234 1695 OFFCURVE",
"1250 1670 QCURVE SMOOTH",
"1300 1590 OFFCURVE",
"1300 1486 QCURVE SMOOTH",
"1300 1330 OFFCURVE",
"1140 1330 QCURVE SMOOTH",
"1041 1330 OFFCURVE",
"948 1400 QCURVE SMOOTH",
"824 1500 OFFCURVE",
"792 1500 QCURVE SMOOTH",
"760 1500 OFFCURVE",
"691 1437 QCURVE SMOOTH",
"556 1310 LINE",
"504 1252 OFFCURVE",
"504 1189 QCURVE SMOOTH",
"504 1176 OFFCURVE",
"506 1164 QCURVE",
"519 1125 OFFCURVE",
"617 1068 QCURVE SMOOTH",
"657 1042 LINE",
"375 905 LINE SMOOTH",
"300 866 OFFCURVE",
"300 788 QCURVE SMOOTH",
"300 330 LINE SMOOTH",
"300 245 OFFCURVE",
"490 0 OFFCURVE",
"587 0 QCURVE SMOOTH",
"693 0 OFFCURVE",
"870 245 OFFCURVE",
"870 360 QCURVE SMOOTH",
"870 630 OFFCURVE",
"607 630 QCURVE SMOOTH",
"531 630 OFFCURVE",
"500 586 QCURVE",
"500 738 LINE",
"900 937 LINE",
"1300 738 LINE",
"1300 500 LINE SMOOTH",
"1300 420 OFFCURVE",
"1150 276 OFFCURVE",
"1150 193 QCURVE SMOOTH",
"1150 110 OFFCURVE",
"1337 0 OFFCURVE",
"1419 0 QCURVE SMOOTH",
"1500 0 OFFCURVE",
"1500 100 QCURVE SMOOTH",
"1500 788 LINE SMOOTH",
"1500 866 OFFCURVE",
"1425 905 QCURVE SMOOTH",
"900 1160 LINE",
"877 1149 LINE",
"762 1215 LINE"
);
}
);
width = 1800;
}
);
note = uni17A5;
unicode = 17A5;
},
{
glyphname = uni17A6;
layers = (
{
layerId = "BB6B0684-34D4-4B80-99D1-F5F29B570554";
paths = (
{
closed = 1;
nodes = (
"607 -627 QCURVE SMOOTH",
"670 -627 OFFCURVE",
"670 -686 QCURVE SMOOTH",
"670 -727 OFFCURVE",
"623 -803 OFFCURVE",
"587 -803 QCURVE",
"520 -781 OFFCURVE",
"500 -708 QCURVE",
"500 -627 OFFCURVE"
);
},
{
closed = 1;
nodes = (
"607 440 QCURVE SMOOTH",
"670 440 OFFCURVE",
"670 360 QCURVE SMOOTH",
"670 304 OFFCURVE",
"623 200 OFFCURVE",
"587 200 QCURVE",
"520 230 OFFCURVE",
"500 330 QCURVE",
"500 440 OFFCURVE"
);
},
{
closed = 1;
nodes = (
"300 866 OFFCURVE",
"300 788 QCURVE SMOOTH",
"300 330 LINE SMOOTH",
"300 245 OFFCURVE",
"490 0 OFFCURVE",
"587 0 QCURVE SMOOTH",
"693 0 OFFCURVE",
"870 245 OFFCURVE",
"870 360 QCURVE SMOOTH",
"870 630 OFFCURVE",
"607 630 QCURVE SMOOTH",
"531 630 OFFCURVE",
"500 586 QCURVE",
"500 738 LINE",
"900 937 LINE",
"1300 738 LINE",
"1300 500 LINE SMOOTH",
"1300 420 OFFCURVE",
"1150 276 OFFCURVE",
"1150 193 QCURVE SMOOTH",
"1150 110 OFFCURVE",
"1337 0 OFFCURVE",
"1419 0 QCURVE SMOOTH",
"1500 0 OFFCURVE",
"1500 100 QCURVE SMOOTH",
"1500 788 LINE SMOOTH",
"1500 866 OFFCURVE",
"1425 905 QCURVE SMOOTH",
"900 1160 LINE",
"375 905 LINE SMOOTH"
);
},
{
closed = 1;
nodes = (
"1300 -642 OFFCURVE",
"1150 -747 OFFCURVE",
"1150 -808 QCURVE SMOOTH",
"1150 -869 OFFCURVE",
"1337 -950 OFFCURVE",
"1419 -950 QCURVE SMOOTH",
"1499 -950 OFFCURVE",
"1500 -877 QCURVE",
"1589 -950 OFFCURVE",
"1700 -950 QCURVE SMOOTH",
"1900 -950 LINE SMOOTH",
"2300 -950 OFFCURVE",
"2300 -550 QCURVE SMOOTH",
"2300 1700 LINE SMOOTH",
"2300 2300 OFFCURVE",
"1900 2300 QCURVE SMOOTH",
"1758 2300 OFFCURVE",
"1692 2276 QCURVE",
"1729 2368 OFFCURVE",
"1746 2460 QCURVE SMOOTH",
"1759 2531 OFFCURVE",
"1759 2581 QCURVE SMOOTH",
"1759 2700 OFFCURVE",
"1685 2700 QCURVE SMOOTH",
"1580 2700 OFFCURVE",
"1569 2615 QCURVE SMOOTH",
"1536 2358 OFFCURVE",
"1351 2130 QCURVE SMOOTH",
"1295 2060 OFFCURVE",
"1295 2011 QCURVE SMOOTH",
"1295 1971 OFFCURVE",
"1334 1945 QCURVE SMOOTH",
"1362 1926 OFFCURVE",
"1392 1926 QCURVE SMOOTH",
"1452 1926 OFFCURVE",
"1519 2003 QCURVE",
"1622 2100 OFFCURVE",
"1900 2100 QCURVE SMOOTH",
"2100 2100 OFFCURVE",
"2100 1700 QCURVE SMOOTH",
"2100 -550 LINE SMOOTH",
"2100 -750 OFFCURVE",
"1900 -750 QCURVE SMOOTH",
"1700 -750 LINE SMOOTH",
"1590 -750 OFFCURVE",
"1500 -550 QCURVE",
"1500 -372 LINE SMOOTH",
"1500 -315 OFFCURVE",
"1425 -286 QCURVE SMOOTH",
"900 -100 LINE",
"375 -286 LINE SMOOTH",
"300 -315 OFFCURVE",
"300 -372 QCURVE SMOOTH",
"300 -708 LINE SMOOTH",
"300 -770 OFFCURVE",
"490 -950 OFFCURVE",
"587 -950 QCURVE SMOOTH",
"693 -950 OFFCURVE",
"870 -770 OFFCURVE",
"870 -686 QCURVE SMOOTH",
"870 -488 OFFCURVE",
"607 -488 QCURVE SMOOTH",
"531 -488 OFFCURVE",
"500 -520 QCURVE",
"500 -439 LINE",
"900 -293 LINE",
"1300 -439 LINE",
"1300 -583 LINE SMOOTH"
);
}
);
width = 2600;
}
);
note = uni17A6;
unicode = 17A6;
},
{
glyphname = uni17A7;
layers = (
{
layerId = "BB6B0684-34D4-4B80-99D1-F5F29B570554";
paths = (
{
closed = 1;
nodes = (
"1300 40 LINE SMOOTH",
"1300 -30 OFFCURVE",
"1265 -95 QCURVE SMOOTH",
"1255 -113 OFFCURVE",
"1255 -129 QCURVE SMOOTH",
"1255 -171 OFFCURVE",
"1320 -198 QCURVE SMOOTH",
"1347 -209 OFFCURVE",
"1370 -209 QCURVE SMOOTH",
"1424 -209 OFFCURVE",
"1455 -148 QCURVE SMOOTH",
"1500 -60 OFFCURVE",
"1500 40 QCURVE SMOOTH",
"1500 402 LINE SMOOTH",
"1500 487 OFFCURVE",
"1396 487 QCURVE SMOOTH",
"1356 487 OFFCURVE",
"1300 474 QCURVE",
"950 225 LINE",
"836 356 LINE",
"1500 803 OFFCURVE",
"1500 1060 QCURVE SMOOTH",
"1500 1330 OFFCURVE",
"1147 1500 OFFCURVE",
"900 1500 QCURVE SMOOTH",
"653 1500 OFFCURVE",
"300 1320 OFFCURVE",
"300 1110 QCURVE SMOOTH",
"300 800 OFFCURVE",
"596 800 QCURVE SMOOTH",
"745 800 OFFCURVE",
"811 876 QCURVE SMOOTH",
"853 925 OFFCURVE",
"853 982 QCURVE SMOOTH",
"853 1012 OFFCURVE",
"842 1045 QCURVE SMOOTH",
"813 1122 OFFCURVE",
"735 1122 QCURVE SMOOTH",
"719 1122 OFFCURVE",
"702 1119 QCURVE SMOOTH",
"596 1100 OFFCURVE",
"596 980 QCURVE",
"500 980 OFFCURVE",
"500 1110 QCURVE SMOOTH",
"500 1300 OFFCURVE",
"900 1300 QCURVE SMOOTH",
"1300 1300 OFFCURVE",
"1300 1060 QCURVE SMOOTH",
"1300 943 OFFCURVE",
"659 496 QCURVE",
"586 450 OFFCURVE",
"586 382 QCURVE SMOOTH",
"586 304 OFFCURVE",
"681 199 QCURVE SMOOTH",
"858 0 OFFCURVE",
"947 0 QCURVE SMOOTH",
"995 2 OFFCURVE",
"1300 234 QCURVE"
);
}
);
width = 1800;
}
);
note = uni17A7;
unicode = 17A7;
},
{
glyphname = uni17A8;
layers = (
{
layerId = "BB6B0684-34D4-4B80-99D1-F5F29B570554";
paths = (
{
closed = 1;
nodes = (
"1300 40 LINE SMOOTH",
"1300 -30 OFFCURVE",
"1265 -95 QCURVE SMOOTH",
"1255 -113 OFFCURVE",
"1255 -129 QCURVE SMOOTH",
"1255 -171 OFFCURVE",
"1320 -198 QCURVE SMOOTH",
"1347 -209 OFFCURVE",
"1370 -209 QCURVE SMOOTH",
"1424 -209 OFFCURVE",
"1455 -148 QCURVE SMOOTH",
"1500 -60 OFFCURVE",
"1500 40 QCURVE SMOOTH",
"1500 402 LINE SMOOTH",
"1500 487 OFFCURVE",
"1396 487 QCURVE SMOOTH",
"1356 487 OFFCURVE",
"1300 474 QCURVE",
"950 225 LINE",
"836 356 LINE",
"1500 803 OFFCURVE",
"1500 1060 QCURVE SMOOTH",
"1500 1330 OFFCURVE",
"1147 1500 OFFCURVE",
"900 1500 QCURVE SMOOTH",
"653 1500 OFFCURVE",
"300 1320 OFFCURVE",
"300 1110 QCURVE SMOOTH",
"300 800 OFFCURVE",
"596 800 QCURVE SMOOTH",
"745 800 OFFCURVE",
"811 876 QCURVE SMOOTH",
"853 925 OFFCURVE",
"853 982 QCURVE SMOOTH",
"853 1012 OFFCURVE",
"842 1045 QCURVE SMOOTH",
"813 1122 OFFCURVE",
"735 1122 QCURVE SMOOTH",
"719 1122 OFFCURVE",
"702 1119 QCURVE SMOOTH",
"596 1100 OFFCURVE",
"596 980 QCURVE",
"500 980 OFFCURVE",
"500 1110 QCURVE SMOOTH",
"500 1300 OFFCURVE",
"900 1300 QCURVE SMOOTH",
"1300 1300 OFFCURVE",
"1300 1060 QCURVE SMOOTH",
"1300 943 OFFCURVE",
"659 496 QCURVE",
"586 450 OFFCURVE",
"586 382 QCURVE SMOOTH",
"586 304 OFFCURVE",
"681 199 QCURVE SMOOTH",
"858 0 OFFCURVE",
"947 0 QCURVE SMOOTH",
"995 2 OFFCURVE",
"1300 234 QCURVE"
);
},
{
closed = 1;
nodes = (
"319 1750 QCURVE SMOOTH",
"437 1750 OFFCURVE",
"513 1808 QCURVE SMOOTH",
"589 1866 LINE",
"897 1750 LINE",
"1163 1883 LINE",
"1311 1785 OFFCURVE",
"1402 1755 QCURVE SMOOTH",
"1416 1750 OFFCURVE",
"1430 1750 QCURVE SMOOTH",
"1508 1750 OFFCURVE",
"1600 1896 QCURVE",
"1424 1955 OFFCURVE",
"1209 2076 OFFCURVE",
"1173 2076 QCURVE SMOOTH",
"1135 2076 OFFCURVE",
"897 1960 QCURVE",
"607 2076 OFFCURVE",
"570 2076 QCURVE SMOOTH",
"534 2076 OFFCURVE",
"450 2016 QCURVE SMOOTH",
"263 1889 LINE SMOOTH",
"200 1846 OFFCURVE",
"200 1798 QCURVE SMOOTH",
"200 1750 OFFCURVE"
);
}
);
width = 1800;
}
);
note = uni17A8;
unicode = 17A8;
},
{
glyphname = uni17A9;
layers = (
{
layerId = "BB6B0684-34D4-4B80-99D1-F5F29B570554";
paths = (
{
closed = 1;
nodes = (
"1300 40 LINE SMOOTH",
"1300 -30 OFFCURVE",
"1265 -95 QCURVE SMOOTH",
"1255 -113 OFFCURVE",
"1255 -129 QCURVE SMOOTH",
"1255 -171 OFFCURVE",
"1320 -198 QCURVE SMOOTH",
"1347 -209 OFFCURVE",
"1370 -209 QCURVE SMOOTH",
"1424 -209 OFFCURVE",
"1455 -148 QCURVE SMOOTH",
"1500 -60 OFFCURVE",
"1500 40 QCURVE SMOOTH",
"1500 402 LINE SMOOTH",
"1500 487 OFFCURVE",
"1396 487 QCURVE SMOOTH",
"1356 487 OFFCURVE",
"1300 474 QCURVE",
"950 225 LINE",
"836 356 LINE",
"1500 803 OFFCURVE",
"1500 1060 QCURVE SMOOTH",
"1500 1330 OFFCURVE",
"1147 1500 OFFCURVE",
"900 1500 QCURVE SMOOTH",
"653 1500 OFFCURVE",
"300 1320 OFFCURVE",
"300 1110 QCURVE SMOOTH",
"300 800 OFFCURVE",
"596 800 QCURVE SMOOTH",
"745 800 OFFCURVE",
"811 876 QCURVE SMOOTH",
"853 925 OFFCURVE",
"853 982 QCURVE SMOOTH",
"853 1012 OFFCURVE",
"842 1045 QCURVE SMOOTH",
"813 1122 OFFCURVE",
"735 1122 QCURVE SMOOTH",
"719 1122 OFFCURVE",
"702 1119 QCURVE SMOOTH",
"596 1100 OFFCURVE",
"596 980 QCURVE",
"500 980 OFFCURVE",
"500 1110 QCURVE SMOOTH",
"500 1300 OFFCURVE",
"900 1300 QCURVE SMOOTH",
"1300 1300 OFFCURVE",
"1300 1060 QCURVE SMOOTH",
"1300 943 OFFCURVE",
"659 496 QCURVE",
"586 450 OFFCURVE",
"586 382 QCURVE SMOOTH",
"586 304 OFFCURVE",
"681 199 QCURVE SMOOTH",
"858 0 OFFCURVE",
"947 0 QCURVE SMOOTH",
"995 2 OFFCURVE",
"1300 234 QCURVE"
);
},
{
closed = 1;
nodes = (
"1564 609 OFFCURVE",
"1564 524 QCURVE SMOOTH",
"1564 439 OFFCURVE",
"1654 399 OFFCURVE",
"1654 329 QCURVE SMOOTH",
"1654 -111 LINE SMOOTH",
"1654 -211 OFFCURVE",
"1754 -211 QCURVE SMOOTH",
"1854 -211 OFFCURVE",
"1854 -111 QCURVE SMOOTH",
"1854 359 LINE SMOOTH",
"1854 609 OFFCURVE",
"1694 609 QCURVE SMOOTH"
);
}
);
width = 1854;
}
);
note = uni17A9;
unicode = 17A9;
},
{
glyphname = uni17AA;
layers = (
{
layerId = "BB6B0684-34D4-4B80-99D1-F5F29B570554";
paths = (
{
closed = 1;
nodes = (
"609 1566 LINE",
"450 1744 LINE",
"610 1890 LINE",
"828 1740 OFFCURVE",
"1110 1740 QCURVE SMOOTH",
"1500 1740 OFFCURVE",
"1500 2126 QCURVE SMOOTH",
"1500 2390 OFFCURVE",
"1310 2390 QCURVE SMOOTH",
"1234 2390 OFFCURVE",
"1234 2352 QCURVE SMOOTH",
"1234 2335 OFFCURVE",
"1250 2310 QCURVE SMOOTH",
"1300 2230 OFFCURVE",
"1300 2126 QCURVE SMOOTH",
"1300 1940 OFFCURVE",
"1110 1940 QCURVE SMOOTH",
"881 1940 OFFCURVE",
"758 2040 QCURVE SMOOTH",
"634 2140 OFFCURVE",
"602 2140 QCURVE SMOOTH",
"570 2140 OFFCURVE",
"501 2077 QCURVE SMOOTH",
"293 1889 LINE SMOOTH",
"200 1805 OFFCURVE",
"200 1766 QCURVE SMOOTH",
"200 1725 OFFCURVE",
"275 1640 QCURVE",
"426 1452 LINE"
);
},
{
closed = 1;
nodes = (
"1300 40 LINE SMOOTH",
"1300 -30 OFFCURVE",
"1265 -95 QCURVE SMOOTH",
"1255 -113 OFFCURVE",
"1255 -129 QCURVE SMOOTH",
"1255 -171 OFFCURVE",
"1320 -198 QCURVE SMOOTH",
"1347 -209 OFFCURVE",
"1370 -209 QCURVE SMOOTH",
"1424 -209 OFFCURVE",
"1455 -148 QCURVE SMOOTH",
"1500 -60 OFFCURVE",
"1500 40 QCURVE SMOOTH",
"1500 402 LINE SMOOTH",
"1500 487 OFFCURVE",
"1396 487 QCURVE SMOOTH",
"1356 487 OFFCURVE",
"1300 474 QCURVE",
"950 225 LINE",
"836 356 LINE",
"1500 803 OFFCURVE",
"1500 1060 QCURVE SMOOTH",
"1500 1330 OFFCURVE",
"1147 1500 OFFCURVE",
"900 1500 QCURVE SMOOTH",
"653 1500 OFFCURVE",
"300 1320 OFFCURVE",
"300 1110 QCURVE SMOOTH",
"300 800 OFFCURVE",
"596 800 QCURVE SMOOTH",
"745 800 OFFCURVE",
"811 876 QCURVE SMOOTH",
"853 925 OFFCURVE",
"853 982 QCURVE SMOOTH",
"853 1012 OFFCURVE",
"842 1045 QCURVE SMOOTH",
"813 1122 OFFCURVE",
"735 1122 QCURVE SMOOTH",
"719 1122 OFFCURVE",
"702 1119 QCURVE SMOOTH",
"596 1100 OFFCURVE",
"596 980 QCURVE",
"500 980 OFFCURVE",
"500 1110 QCURVE SMOOTH",
"500 1300 OFFCURVE",
"900 1300 QCURVE SMOOTH",
"1300 1300 OFFCURVE",
"1300 1060 QCURVE SMOOTH",
"1300 943 OFFCURVE",
"659 496 QCURVE",
"586 450 OFFCURVE",
"586 382 QCURVE SMOOTH",
"586 304 OFFCURVE",
"681 199 QCURVE SMOOTH",
"858 0 OFFCURVE",
"947 0 QCURVE SMOOTH",
"995 2 OFFCURVE",
"1300 234 QCURVE"
);
}
);
width = 1800;
}
);
note = uni17AA;
unicode = 17AA;
},
{
glyphname = uni17AB;
layers = (
{
layerId = "BB6B0684-34D4-4B80-99D1-F5F29B570554";
paths = (
{
closed = 1;
nodes = (
"670 689 OFFCURVE",
"670 764 QCURVE SMOOTH",
"670 839 OFFCURVE",
"522 1023 OFFCURVE",
"391 1114 QCURVE",
"489 1249 LINE",
"638 1171 OFFCURVE",
"714 1171 QCURVE SMOOTH",
"733 1171 OFFCURVE",
"748 1176 QCURVE SMOOTH",
"820 1200 OFFCURVE",
"840 1343 QCURVE",
"827 1337 OFFCURVE",
"809 1337 QCURVE SMOOTH",
"715 1337 OFFCURVE",
"476 1500 QCURVE",
"150 1022 LINE",
"350 962 OFFCURVE",
"458 752 QCURVE",
"150 476 LINE",
"180 310 OFFCURVE",
"544 0 OFFCURVE",
"664 0 QCURVE SMOOTH",
"1050 0 LINE",
"1460 100 OFFCURVE",
"1500 500 QCURVE",
"1500 896 LINE",
"1480 1072 OFFCURVE",
"1301 1154 QCURVE",
"1379 1249 LINE",
"1520 1171 OFFCURVE",
"1588 1171 QCURVE SMOOTH",
"1605 1171 OFFCURVE",
"1618 1176 QCURVE SMOOTH",
"1680 1200 OFFCURVE",
"1700 1343 QCURVE",
"1687 1337 OFFCURVE",
"1670 1337 QCURVE SMOOTH",
"1579 1337 OFFCURVE",
"1366 1500 QCURVE",
"1040 1052 LINE",
"1260 1012 OFFCURVE",
"1300 876 QCURVE",
"1300 500 LINE",
"1250 280 OFFCURVE",
"1050 200 QCURVE",
"664 200 LINE",
"490 297 OFFCURVE",
"411 429 QCURVE",
"595 617 LINE SMOOTH"
);
},
{
closed = 1;
nodes = (
"994 -171 QCURVE SMOOTH",
"994 -190 OFFCURVE",
"1008 -207 QCURVE",
"1033 -264 OFFCURVE",
"1033 -319 QCURVE SMOOTH",
"1033 -476 OFFCURVE",
"835 -626 QCURVE SMOOTH",
"703 -724 OFFCURVE",
"563 -769 QCURVE SMOOTH",
"452 -805 OFFCURVE",
"452 -864 QCURVE SMOOTH",
"452 -879 OFFCURVE",
"459 -896 QCURVE SMOOTH",
"483 -950 OFFCURVE",
"552 -950 QCURVE SMOOTH",
"588 -950 OFFCURVE",
"637 -936 QCURVE",
"810 -895 OFFCURVE",
"959 -783 QCURVE",
"1130 -668 OFFCURVE",
"1190 -526 QCURVE SMOOTH",
"1230 -431 OFFCURVE",
"1230 -336 QCURVE SMOOTH",
"1230 -289 OFFCURVE",
"1220 -243 QCURVE",
"1215 -194 OFFCURVE",
"1188 -113 QCURVE",
"1152 -67 OFFCURVE",
"1111 -67 QCURVE SMOOTH",
"1080 -67 OFFCURVE",
"1046 -94 QCURVE SMOOTH",
"994 -135 OFFCURVE"
);
}
);
width = 1800;
}
);
note = uni17AB;
unicode = 17AB;
},
{
glyphname = uni17AC;
layers = (
{
layerId = "BB6B0684-34D4-4B80-99D1-F5F29B570554";
paths = (
{
closed = 1;
nodes = (
"670 689 OFFCURVE",
"670 764 QCURVE SMOOTH",
"670 839 OFFCURVE",
"522 1023 OFFCURVE",
"391 1114 QCURVE",
"489 1249 LINE",
"638 1171 OFFCURVE",
"714 1171 QCURVE SMOOTH",
"733 1171 OFFCURVE",
"748 1176 QCURVE SMOOTH",
"820 1200 OFFCURVE",
"840 1343 QCURVE",
"827 1337 OFFCURVE",
"809 1337 QCURVE SMOOTH",
"715 1337 OFFCURVE",
"476 1500 QCURVE",
"150 1022 LINE",
"350 962 OFFCURVE",
"458 752 QCURVE",
"150 476 LINE",
"180 310 OFFCURVE",
"544 0 OFFCURVE",
"664 0 QCURVE SMOOTH",
"1050 0 LINE",
"1460 100 OFFCURVE",
"1500 500 QCURVE",
"1500 896 LINE",
"1480 1072 OFFCURVE",
"1301 1154 QCURVE",
"1379 1249 LINE",
"1520 1171 OFFCURVE",
"1588 1171 QCURVE SMOOTH",
"1605 1171 OFFCURVE",
"1618 1176 QCURVE SMOOTH",
"1680 1200 OFFCURVE",
"1700 1343 QCURVE",
"1687 1337 OFFCURVE",
"1670 1337 QCURVE SMOOTH",
"1579 1337 OFFCURVE",
"1366 1500 QCURVE",
"1040 1052 LINE",
"1260 1012 OFFCURVE",
"1300 876 QCURVE",
"1300 500 LINE",
"1250 280 OFFCURVE",
"1050 200 QCURVE",
"664 200 LINE",
"490 297 OFFCURVE",
"411 429 QCURVE",
"595 617 LINE SMOOTH"
);
},
{
closed = 1;
nodes = (
"994 -171 QCURVE SMOOTH",
"994 -190 OFFCURVE",
"1008 -207 QCURVE SMOOTH",
"1044 -252 OFFCURVE",
"1044 -307 QCURVE SMOOTH",
"1044 -439 OFFCURVE",
"835 -626 QCURVE",
"703 -724 OFFCURVE",
"563 -769 QCURVE SMOOTH",
"452 -805 OFFCURVE",
"452 -864 QCURVE SMOOTH",
"452 -879 OFFCURVE",
"459 -896 QCURVE SMOOTH",
"483 -950 OFFCURVE",
"552 -950 QCURVE SMOOTH",
"588 -950 OFFCURVE",
"637 -936 QCURVE",
"810 -895 OFFCURVE",
"959 -783 QCURVE",
"1130 -668 OFFCURVE",
"1195 -495 QCURVE",
"1266 -669 OFFCURVE",
"1332 -669 QCURVE SMOOTH",
"1339 -669 OFFCURVE",
"1346 -667 QCURVE SMOOTH",
"1418 -647 OFFCURVE",
"1418 -579 QCURVE SMOOTH",
"1418 -517 OFFCURVE",
"1400 -495 QCURVE SMOOTH",
"1354 -437 OFFCURVE",
"1249 -384 OFFCURVE",
"1220 -243 QCURVE",
"1215 -194 OFFCURVE",
"1188 -113 QCURVE",
"1152 -67 OFFCURVE",
"1111 -67 QCURVE SMOOTH",
"1080 -67 OFFCURVE",
"1046 -94 QCURVE SMOOTH",
"994 -135 OFFCURVE"
);
}
);
width = 1800;
}
);
note = uni17AC;
unicode = 17AC;
},
{
glyphname = uni17AD;
layers = (
{
layerId = "BB6B0684-34D4-4B80-99D1-F5F29B570554";
paths = (
{
closed = 1;
nodes = (
"607 480 QCURVE SMOOTH",
"670 480 OFFCURVE",
"670 400 QCURVE SMOOTH",
"670 344 OFFCURVE",
"623 200 OFFCURVE",
"587 200 QCURVE",
"520 230 OFFCURVE",
"500 370 QCURVE",
"500 480 OFFCURVE"
);
},
{
closed = 1;
nodes = (
"1500 1211 OFFCURVE",
"1411 1285 QCURVE SMOOTH",
"1152 1500 LINE",
"899 1322 LINE",
"645 1500 LINE",
"387 1285 LINE SMOOTH",
"300 1211 OFFCURVE",
"300 1135 QCURVE SMOOTH",
"300 370 LINE SMOOTH",
"300 245 OFFCURVE",
"490 0 OFFCURVE",
"587 0 QCURVE SMOOTH",
"693 0 OFFCURVE",
"870 245 OFFCURVE",
"870 400 QCURVE SMOOTH",
"870 670 OFFCURVE",
"607 670 QCURVE SMOOTH",
"531 670 OFFCURVE",
"500 626 QCURVE",
"500 1103 LINE",
"659 1235 LINE",
"899 1070 LINE",
"1139 1235 LINE",
"1300 1103 LINE",
"1300 500 LINE SMOOTH",
"1300 420 OFFCURVE",
"1150 276 OFFCURVE",
"1150 193 QCURVE SMOOTH",
"1150 110 OFFCURVE",
"1337 0 OFFCURVE",
"1419 0 QCURVE SMOOTH",
"1500 0 OFFCURVE",
"1500 100 QCURVE SMOOTH",
"1500 1135 LINE SMOOTH"
);
},
{
closed = 1;
nodes = (
"994 -171 QCURVE SMOOTH",
"994 -190 OFFCURVE",
"1008 -207 QCURVE",
"1033 -264 OFFCURVE",
"1033 -319 QCURVE SMOOTH",
"1033 -476 OFFCURVE",
"835 -626 QCURVE SMOOTH",
"703 -724 OFFCURVE",
"563 -769 QCURVE SMOOTH",
"452 -805 OFFCURVE",
"452 -864 QCURVE SMOOTH",
"452 -879 OFFCURVE",
"459 -896 QCURVE SMOOTH",
"483 -950 OFFCURVE",
"552 -950 QCURVE SMOOTH",
"588 -950 OFFCURVE",
"637 -936 QCURVE",
"810 -895 OFFCURVE",
"959 -783 QCURVE",
"1130 -668 OFFCURVE",
"1190 -526 QCURVE SMOOTH",
"1230 -431 OFFCURVE",
"1230 -336 QCURVE SMOOTH",
"1230 -289 OFFCURVE",
"1220 -243 QCURVE",
"1215 -194 OFFCURVE",
"1188 -113 QCURVE",
"1152 -67 OFFCURVE",
"1111 -67 QCURVE SMOOTH",
"1080 -67 OFFCURVE",
"1046 -94 QCURVE SMOOTH",
"994 -135 OFFCURVE"
);
}
);
width = 1800;
}
);
note = uni17AD;
unicode = 17AD;
},
{
glyphname = uni17AE;
layers = (
{
layerId = "BB6B0684-34D4-4B80-99D1-F5F29B570554";
paths = (
{
closed = 1;
nodes = (
"607 480 QCURVE SMOOTH",
"670 480 OFFCURVE",
"670 400 QCURVE SMOOTH",
"670 344 OFFCURVE",
"623 200 OFFCURVE",
"587 200 QCURVE",
"520 230 OFFCURVE",
"500 370 QCURVE",
"500 480 OFFCURVE"
);
},
{
closed = 1;
nodes = (
"1500 1211 OFFCURVE",
"1411 1285 QCURVE SMOOTH",
"1152 1500 LINE",
"899 1322 LINE",
"645 1500 LINE",
"387 1285 LINE SMOOTH",
"300 1211 OFFCURVE",
"300 1135 QCURVE SMOOTH",
"300 370 LINE SMOOTH",
"300 245 OFFCURVE",
"490 0 OFFCURVE",
"587 0 QCURVE SMOOTH",
"693 0 OFFCURVE",
"870 245 OFFCURVE",
"870 400 QCURVE SMOOTH",
"870 670 OFFCURVE",
"607 670 QCURVE SMOOTH",
"531 670 OFFCURVE",
"500 626 QCURVE",
"500 1103 LINE",
"659 1235 LINE",
"899 1070 LINE",
"1139 1235 LINE",
"1300 1103 LINE",
"1300 500 LINE SMOOTH",
"1300 420 OFFCURVE",
"1150 276 OFFCURVE",
"1150 193 QCURVE SMOOTH",
"1150 110 OFFCURVE",
"1337 0 OFFCURVE",
"1419 0 QCURVE SMOOTH",
"1500 0 OFFCURVE",
"1500 100 QCURVE SMOOTH",
"1500 1135 LINE SMOOTH"
);
},
{
closed = 1;
nodes = (
"994 -171 QCURVE SMOOTH",
"994 -190 OFFCURVE",
"1008 -207 QCURVE SMOOTH",
"1044 -252 OFFCURVE",
"1044 -307 QCURVE SMOOTH",
"1044 -439 OFFCURVE",
"835 -626 QCURVE",
"703 -724 OFFCURVE",
"563 -769 QCURVE SMOOTH",
"452 -805 OFFCURVE",
"452 -864 QCURVE SMOOTH",
"452 -879 OFFCURVE",
"459 -896 QCURVE SMOOTH",
"483 -950 OFFCURVE",
"552 -950 QCURVE SMOOTH",
"588 -950 OFFCURVE",
"637 -936 QCURVE",
"810 -895 OFFCURVE",
"959 -783 QCURVE",
"1130 -668 OFFCURVE",
"1195 -495 QCURVE",
"1266 -669 OFFCURVE",
"1332 -669 QCURVE SMOOTH",
"1339 -669 OFFCURVE",
"1346 -667 QCURVE SMOOTH",
"1418 -647 OFFCURVE",
"1418 -579 QCURVE SMOOTH",
"1418 -517 OFFCURVE",
"1400 -495 QCURVE SMOOTH",
"1354 -437 OFFCURVE",
"1249 -384 OFFCURVE",
"1220 -243 QCURVE",
"1215 -194 OFFCURVE",
"1188 -113 QCURVE",
"1152 -67 OFFCURVE",
"1111 -67 QCURVE SMOOTH",
"1080 -67 OFFCURVE",
"1046 -94 QCURVE SMOOTH",
"994 -135 OFFCURVE"
);
}
);
width = 1800;
}
);
note = uni17AE;
unicode = 17AE;
},
{
glyphname = uni17AF;
layers = (
{
layerId = "BB6B0684-34D4-4B80-99D1-F5F29B570554";
paths = (
{
closed = 1;
nodes = (
"740 884 QCURVE SMOOTH",
"740 977 LINE SMOOTH",
"740 1069 OFFCURVE",
"613 1309 QCURVE SMOOTH",
"509 1500 OFFCURVE",
"461 1500 QCURVE SMOOTH",
"413 1500 OFFCURVE",
"200 1254 OFFCURVE",
"200 1111 QCURVE SMOOTH",
"200 968 OFFCURVE",
"306 961 QCURVE SMOOTH",
"315 960 OFFCURVE",
"323 960 QCURVE SMOOTH",
"414 960 OFFCURVE",
"433 1029 QCURVE SMOOTH",
"439 1051 OFFCURVE",
"439 1071 QCURVE SMOOTH",
"439 1116 OFFCURVE",
"405 1145 QCURVE SMOOTH",
"375 1170 OFFCURVE",
"375 1187 QCURVE SMOOTH",
"375 1197 OFFCURVE",
"386 1204 QCURVE SMOOTH",
"394 1208 OFFCURVE",
"401 1208 QCURVE SMOOTH",
"425 1208 OFFCURVE",
"450 1170 QCURVE SMOOTH",
"543 1028 OFFCURVE",
"543 960 QCURVE SMOOTH",
"543 955 OFFCURVE",
"542 950 QCURVE SMOOTH",
"533 882 LINE",
"200 476 LINE",
"225 366 OFFCURVE",
"352 200 QCURVE SMOOTH",
"504 0 OFFCURVE",
"624 0 QCURVE",
"889 206 LINE",
"1099 0 OFFCURVE",
"1165 0 QCURVE SMOOTH",
"1287 0 OFFCURVE",
"1500 308 OFFCURVE",
"1500 490 QCURVE SMOOTH",
"1500 1500 LINE SMOOTH",
"1500 1740 OFFCURVE",
"1322 1919 QCURVE SMOOTH",
"1157 2091 LINE SMOOTH",
"1100 2148 OFFCURVE",
"1054 2148 QCURVE SMOOTH",
"1020 2148 OFFCURVE",
"992 2115 QCURVE SMOOTH",
"969 2088 OFFCURVE",
"969 2059 QCURVE SMOOTH",
"969 2006 OFFCURVE",
"1044 1946 QCURVE",
"1186 1789 LINE",
"1300 1650 OFFCURVE",
"1300 1500 QCURVE SMOOTH",
"1300 490 LINE",
"1301 481 OFFCURVE",
"1301 472 QCURVE SMOOTH",
"1301 404 OFFCURVE",
"1256 327 QCURVE SMOOTH",
"1204 240 OFFCURVE",
"1163 240 QCURVE",
"923 499 LINE",
"620 265 LINE",
"517 318 OFFCURVE",
"465 434 QCURVE",
"740 809 OFFCURVE"
);
}
);
width = 1800;
}
);
note = uni17AF;
unicode = 17AF;
},
{
glyphname = uni17B0;
layers = (
{
layerId = "BB6B0684-34D4-4B80-99D1-F5F29B570554";
paths = (
{
closed = 1;
nodes = (
"1300 -257 OFFCURVE",
"1300 -361 QCURVE SMOOTH",
"1300 -446 OFFCURVE",
"1256 -473 QCURVE SMOOTH",
"1241 -482 OFFCURVE",
"1220 -482 QCURVE SMOOTH",
"1177 -482 OFFCURVE",
"1109 -447 QCURVE",
"1216 -364 OFFCURVE",
"1283 -253 QCURVE"
);
},
{
closed = 1;
nodes = (
"894 -616 OFFCURVE",
"1006 -540 QCURVE",
"964 -753 OFFCURVE",
"859 -753 QCURVE SMOOTH",
"857 -753 LINE SMOOTH",
"750 -751 OFFCURVE",
"750 -706 QCURVE",
"816 -677 OFFCURVE"
);
},
{
closed = 1;
nodes = (
"607 480 QCURVE SMOOTH",
"670 480 OFFCURVE",
"670 400 QCURVE SMOOTH",
"670 344 OFFCURVE",
"623 200 OFFCURVE",
"587 200 QCURVE",
"520 230 OFFCURVE",
"500 370 QCURVE",
"500 480 OFFCURVE"
);
},
{
closed = 1;
nodes = (
"904 -400 OFFCURVE",
"605 -556 QCURVE SMOOTH",
"550 -585 OFFCURVE",
"550 -694 QCURVE SMOOTH",
"550 -804 OFFCURVE",
"716 -950 OFFCURVE",
"825 -950 QCURVE SMOOTH",
"933 -950 OFFCURVE",
"1129 -811 OFFCURVE",
"1142 -647 QCURVE",
"1210 -683 OFFCURVE",
"1274 -683 QCURVE SMOOTH",
"1331 -683 OFFCURVE",
"1386 -654 QCURVE SMOOTH",
"1500 -592 OFFCURVE",
"1500 -361 QCURVE SMOOTH",
"1500 1135 LINE SMOOTH",
"1500 1211 OFFCURVE",
"1411 1285 QCURVE SMOOTH",
"1152 1500 LINE",
"899 1322 LINE",
"645 1500 LINE",
"387 1285 LINE SMOOTH",
"300 1211 OFFCURVE",
"300 1135 QCURVE SMOOTH",
"300 370 LINE SMOOTH",
"300 245 OFFCURVE",
"490 0 OFFCURVE",
"587 0 QCURVE SMOOTH",
"693 0 OFFCURVE",
"870 245 OFFCURVE",
"870 400 QCURVE SMOOTH",
"870 670 OFFCURVE",
"607 670 QCURVE SMOOTH",
"531 670 OFFCURVE",
"500 626 QCURVE",
"500 1103 LINE",
"659 1235 LINE",
"899 1070 LINE",
"1139 1235 LINE",
"1300 1103 LINE",
"1300 500 LINE SMOOTH",
"1300 290 OFFCURVE",
"1205 -52 OFFCURVE"
);
}
);
width = 1800;
}
);
note = uni17B0;
unicode = 17B0;
},
{
glyphname = uni17B1;
layers = (
{
layerId = "BB6B0684-34D4-4B80-99D1-F5F29B570554";
paths = (
{
closed = 1;
nodes = (
"721 1833 LINE",
"952 1656 LINE SMOOTH",
"1071 1566 OFFCURVE",
"1222 1521 QCURVE SMOOTH",
"1251 1512 OFFCURVE",
"1275 1512 QCURVE SMOOTH",
"1343 1512 OFFCURVE",
"1364 1584 QCURVE SMOOTH",
"1370 1604 OFFCURVE",
"1370 1622 QCURVE SMOOTH",
"1370 1687 OFFCURVE",
"1287 1711 QCURVE SMOOTH",
"1181 1743 OFFCURVE",
"1085 1815 QCURVE",
"852 2002 LINE",
"785 2052 OFFCURVE",
"725 2052 QCURVE SMOOTH",
"656 2052 OFFCURVE",
"597 1988 QCURVE SMOOTH",
"480 1855 LINE SMOOTH",
"429 1798 OFFCURVE",
"429 1745 QCURVE SMOOTH",
"429 1678 OFFCURVE",
"513 1619 QCURVE SMOOTH",
"706 1484 LINE",
"579 1462 OFFCURVE",
"477 1410 QCURVE SMOOTH",
"300 1320 OFFCURVE",
"300 1110 QCURVE SMOOTH",
"300 800 OFFCURVE",
"596 800 QCURVE SMOOTH",
"745 800 OFFCURVE",
"811 876 QCURVE SMOOTH",
"853 925 OFFCURVE",
"853 982 QCURVE SMOOTH",
"853 1012 OFFCURVE",
"842 1045 QCURVE SMOOTH",
"813 1122 OFFCURVE",
"735 1122 QCURVE SMOOTH",
"719 1122 OFFCURVE",
"702 1119 QCURVE SMOOTH",
"596 1100 OFFCURVE",
"596 980 QCURVE",
"500 980 OFFCURVE",
"500 1110 QCURVE SMOOTH",
"500 1300 OFFCURVE",
"900 1300 QCURVE SMOOTH",
"1300 1300 OFFCURVE",
"1300 1060 QCURVE SMOOTH",
"1300 943 OFFCURVE",
"659 496 QCURVE",
"586 450 OFFCURVE",
"586 382 QCURVE SMOOTH",
"586 304 OFFCURVE",
"681 199 QCURVE SMOOTH",
"858 0 OFFCURVE",
"947 0 QCURVE SMOOTH",
"995 2 OFFCURVE",
"1300 234 QCURVE",
"1300 40 LINE SMOOTH",
"1300 -30 OFFCURVE",
"1265 -95 QCURVE SMOOTH",
"1255 -113 OFFCURVE",
"1255 -129 QCURVE SMOOTH",
"1255 -171 OFFCURVE",
"1320 -198 QCURVE SMOOTH",
"1347 -209 OFFCURVE",
"1370 -209 QCURVE SMOOTH",
"1424 -209 OFFCURVE",
"1455 -148 QCURVE SMOOTH",
"1500 -60 OFFCURVE",
"1500 40 QCURVE SMOOTH",
"1500 402 LINE SMOOTH",
"1500 487 OFFCURVE",
"1396 487 QCURVE SMOOTH",
"1356 487 OFFCURVE",
"1300 474 QCURVE",
"950 225 LINE",
"836 356 LINE",
"1500 803 OFFCURVE",
"1500 1060 QCURVE SMOOTH",
"1500 1330 OFFCURVE",
"1324 1415 QCURVE SMOOTH",
"1167 1490 OFFCURVE",
"956 1499 QCURVE",
"644 1751 LINE"
);
}
);
width = 1800;
}
);
note = uni17B1;
unicode = 17B1;
},
{
glyphname = uni17B2;
layers = (
{
layerId = "BB6B0684-34D4-4B80-99D1-F5F29B570554";
paths = (
{
closed = 1;
nodes = (
"1357 1214 OFFCURVE",
"1400 1214 QCURVE SMOOTH",
"1423 1214 OFFCURVE",
"1443 1224 QCURVE SMOOTH",
"1465 1234 OFFCURVE",
"1465 1260 QCURVE SMOOTH",
"1465 1299 OFFCURVE",
"1410 1376 QCURVE SMOOTH",
"1319 1500 OFFCURVE",
"1100 1500 QCURVE SMOOTH",
"700 1500 LINE SMOOTH",
"300 1500 OFFCURVE",
"300 1100 QCURVE SMOOTH",
"300 400 LINE SMOOTH",
"300 0 OFFCURVE",
"700 0 QCURVE SMOOTH",
"1100 0 LINE SMOOTH",
"1500 0 OFFCURVE",
"1500 400 QCURVE SMOOTH",
"1500 495 OFFCURVE",
"1437 556 QCURVE SMOOTH",
"1389 602 OFFCURVE",
"1304 623 QCURVE",
"1412 708 OFFCURVE",
"1460 784 QCURVE SMOOTH",
"1500 845 OFFCURVE",
"1500 890 QCURVE SMOOTH",
"1500 1003 OFFCURVE",
"1312 1150 OFFCURVE",
"1133 1150 QCURVE SMOOTH",
"953 1150 OFFCURVE",
"767 1002 OFFCURVE",
"767 890 QCURVE SMOOTH",
"767 825 OFFCURVE",
"871 700 OFFCURVE",
"949 700 QCURVE SMOOTH",
"1100 700 OFFCURVE",
"1100 806 QCURVE SMOOTH",
"1100 893 OFFCURVE",
"1007 893 QCURVE SMOOTH",
"989 893 OFFCURVE",
"967 890 QCURVE",
"967 922 OFFCURVE",
"1053 950 OFFCURVE",
"1133 950 QCURVE SMOOTH",
"1211 950 OFFCURVE",
"1300 923 OFFCURVE",
"1300 890 QCURVE SMOOTH",
"1300 865 OFFCURVE",
"1255 813 QCURVE SMOOTH",
"1181 732 OFFCURVE",
"1019 629 QCURVE SMOOTH",
"955 587 OFFCURVE",
"955 541 QCURVE SMOOTH",
"955 519 OFFCURVE",
"970 497 QCURVE SMOOTH",
"994 458 OFFCURVE",
"1033 458 QCURVE SMOOTH",
"1063 458 OFFCURVE",
"1102 482 QCURVE SMOOTH",
"1131 500 LINE SMOOTH",
"1144 508 OFFCURVE",
"1156 517 QCURVE",
"1232 509 OFFCURVE",
"1261 481 QCURVE SMOOTH",
"1300 444 OFFCURVE",
"1300 400 QCURVE SMOOTH",
"1300 200 OFFCURVE",
"1100 200 QCURVE SMOOTH",
"700 200 LINE SMOOTH",
"500 200 OFFCURVE",
"500 400 QCURVE SMOOTH",
"500 1100 LINE SMOOTH",
"500 1300 OFFCURVE",
"700 1300 QCURVE SMOOTH",
"1100 1300 LINE SMOOTH",
"1221 1300 OFFCURVE",
"1303 1248 QCURVE SMOOTH"
);
}
);
width = 1800;
}
);
note = uni17B2;
unicode = 17B2;
},
{
glyphname = uni17B3;
layers = (
{
layerId = "BB6B0684-34D4-4B80-99D1-F5F29B570554";
paths = (
{
closed = 1;
nodes = (
"1500 2200 OFFCURVE",
"1400 2200 QCURVE SMOOTH",
"1300 2200 OFFCURVE",
"1300 2100 QCURVE SMOOTH",
"1300 1707 LINE",
"1294 1709 OFFCURVE",
"1287 1711 QCURVE SMOOTH",
"1181 1743 OFFCURVE",
"1085 1815 QCURVE",
"852 2002 LINE",
"785 2052 OFFCURVE",
"725 2052 QCURVE SMOOTH",
"656 2052 OFFCURVE",
"597 1988 QCURVE SMOOTH",
"480 1855 LINE SMOOTH",
"429 1798 OFFCURVE",
"429 1745 QCURVE SMOOTH",
"429 1678 OFFCURVE",
"513 1619 QCURVE SMOOTH",
"706 1484 LINE",
"579 1462 OFFCURVE",
"477 1410 QCURVE SMOOTH",
"300 1320 OFFCURVE",
"300 1110 QCURVE SMOOTH",
"300 800 OFFCURVE",
"596 800 QCURVE SMOOTH",
"745 800 OFFCURVE",
"811 876 QCURVE SMOOTH",
"853 925 OFFCURVE",
"853 982 QCURVE SMOOTH",
"853 1012 OFFCURVE",
"842 1045 QCURVE SMOOTH",
"813 1122 OFFCURVE",
"735 1122 QCURVE SMOOTH",
"719 1122 OFFCURVE",
"702 1119 QCURVE SMOOTH",
"596 1100 OFFCURVE",
"596 980 QCURVE",
"500 980 OFFCURVE",
"500 1110 QCURVE SMOOTH",
"500 1300 OFFCURVE",
"900 1300 QCURVE SMOOTH",
"1300 1300 OFFCURVE",
"1300 1060 QCURVE SMOOTH",
"1300 943 OFFCURVE",
"659 496 QCURVE",
"586 450 OFFCURVE",
"586 382 QCURVE SMOOTH",
"586 304 OFFCURVE",
"681 199 QCURVE SMOOTH",
"858 0 OFFCURVE",
"947 0 QCURVE SMOOTH",
"995 2 OFFCURVE",
"1300 234 QCURVE",
"1300 40 LINE SMOOTH",
"1300 -30 OFFCURVE",
"1265 -95 QCURVE SMOOTH",
"1255 -113 OFFCURVE",
"1255 -129 QCURVE SMOOTH",
"1255 -171 OFFCURVE",
"1320 -198 QCURVE SMOOTH",
"1347 -209 OFFCURVE",
"1370 -209 QCURVE SMOOTH",
"1424 -209 OFFCURVE",
"1455 -148 QCURVE SMOOTH",
"1500 -60 OFFCURVE",
"1500 40 QCURVE SMOOTH",
"1500 402 LINE SMOOTH",
"1500 487 OFFCURVE",
"1396 487 QCURVE SMOOTH",
"1356 487 OFFCURVE",
"1300 474 QCURVE",
"950 225 LINE",
"836 356 LINE",
"1500 803 OFFCURVE",
"1500 1060 QCURVE SMOOTH",
"1500 1330 OFFCURVE",
"1324 1415 QCURVE SMOOTH",
"1167 1490 OFFCURVE",
"956 1499 QCURVE",
"644 1751 LINE",
"721 1833 LINE",
"952 1656 LINE SMOOTH",
"1071 1566 OFFCURVE",
"1222 1521 QCURVE SMOOTH",
"1287 1502 OFFCURVE",
"1337 1502 QCURVE SMOOTH",
"1500 1502 OFFCURVE",
"1500 1704 QCURVE SMOOTH",
"1500 2100 LINE SMOOTH"
);
}
);
width = 1800;
}
);
note = uni17B3;
unicode = 17B3;
},
{
glyphname = uni17B6;
layers = (
{
layerId = "BB6B0684-34D4-4B80-99D1-F5F29B570554";
paths = (
{
closed = 1;
nodes = (
"300 420 OFFCURVE",
"150 276 OFFCURVE",
"150 193 QCURVE SMOOTH",
"150 110 OFFCURVE",
"337 0 OFFCURVE",
"419 0 QCURVE SMOOTH",
"500 0 OFFCURVE",
"500 100 QCURVE SMOOTH",
"500 1140 LINE",
"-66 1500 OFFCURVE",
"-125 1500 QCURVE SMOOTH",
"-185 1500 OFFCURVE",
"-586 1164 QCURVE",
"-506 951 LINE",
"-131 1277 LINE",
"300 1032 LINE",
"300 500 LINE SMOOTH"
);
}
);
width = 800;
}
);
note = uni17B6;
unicode = 17B6;
},
{
glyphname = uni17B7;
layers = (
{
layerId = "BB6B0684-34D4-4B80-99D1-F5F29B570554";
paths = (
{
closed = 1;
nodes = (
"-1240 1850 QCURVE SMOOTH",
"-485 1850 LINE SMOOTH",
"-340 1850 OFFCURVE",
"-340 1931 QCURVE SMOOTH",
"-340 1932 OFFCURVE",
"-341 1933 QCURVE",
"-342 2015 OFFCURVE",
"-497 2101 QCURVE SMOOTH",
"-1040 2406 LINE SMOOTH",
"-1118 2450 OFFCURVE",
"-1169 2450 QCURVE SMOOTH",
"-1220 2450 OFFCURVE",
"-1280 2350 QCURVE SMOOTH",
"-1400 2150 LINE SMOOTH",
"-1460 2050 OFFCURVE",
"-1460 1950 QCURVE SMOOTH",
"-1460 1850 OFFCURVE"
);
},
{
closed = 1;
nodes = (
"-780 2050 LINE",
"-1240 2050 LINE",
"-1142 2229 LINE"
);
}
);
width = 0;
}
);
note = uni17B7;
unicode = 17B7;
},
{
glyphname = uni17B8;
layers = (
{
layerId = "BB6B0684-34D4-4B80-99D1-F5F29B570554";
paths = (
{
closed = 1;
nodes = (
"-780 2050 LINE",
"-1240 2050 LINE",
"-1142 2229 LINE"
);
},
{
closed = 1;
nodes = (
"-340 2500 OFFCURVE",
"-440 2500 QCURVE SMOOTH",
"-540 2500 OFFCURVE",
"-540 2400 QCURVE SMOOTH",
"-540 2125 LINE",
"-1040 2406 LINE SMOOTH",
"-1118 2450 OFFCURVE",
"-1169 2450 QCURVE SMOOTH",
"-1220 2450 OFFCURVE",
"-1280 2350 QCURVE SMOOTH",
"-1400 2150 LINE SMOOTH",
"-1460 2050 OFFCURVE",
"-1460 1950 QCURVE SMOOTH",
"-1460 1850 OFFCURVE",
"-1240 1850 QCURVE SMOOTH",
"-485 1850 LINE SMOOTH",
"-340 1850 OFFCURVE",
"-340 1933 QCURVE SMOOTH",
"-340 2400 LINE SMOOTH"
);
}
);
width = 0;
}
);
note = uni17B8;
unicode = 17B8;
},
{
glyphname = uni17B9;
layers = (
{
layerId = "BB6B0684-34D4-4B80-99D1-F5F29B570554";
paths = (
{
closed = 1;
nodes = (
"-780 2050 LINE",
"-1240 2050 LINE",
"-1142 2229 LINE"
);
},
{
closed = 1;
nodes = (
"-645 2306 QCURVE SMOOTH",
"-626 2325 OFFCURVE",
"-590 2325 QCURVE SMOOTH",
"-551 2325 OFFCURVE",
"-533 2306 QCURVE SMOOTH",
"-515 2288 OFFCURVE",
"-515 2250 QCURVE SMOOTH",
"-515 2213 OFFCURVE",
"-533 2194 QCURVE SMOOTH",
"-551 2175 OFFCURVE",
"-590 2175 QCURVE SMOOTH",
"-626 2175 OFFCURVE",
"-645 2194 QCURVE SMOOTH",
"-665 2213 OFFCURVE",
"-665 2250 QCURVE SMOOTH",
"-665 2288 OFFCURVE"
);
},
{
closed = 1;
nodes = (
"-401 2062 QCURVE SMOOTH",
"-340 2125 OFFCURVE",
"-340 2250 QCURVE SMOOTH",
"-340 2375 OFFCURVE",
"-401 2438 QCURVE SMOOTH",
"-463 2500 OFFCURVE",
"-590 2500 QCURVE SMOOTH",
"-715 2500 OFFCURVE",
"-777 2438 QCURVE SMOOTH",
"-828 2386 OFFCURVE",
"-838 2293 QCURVE",
"-1040 2406 LINE SMOOTH",
"-1118 2450 OFFCURVE",
"-1169 2450 QCURVE SMOOTH",
"-1220 2450 OFFCURVE",
"-1280 2350 QCURVE SMOOTH",
"-1400 2150 LINE SMOOTH",
"-1460 2050 OFFCURVE",
"-1460 1950 QCURVE SMOOTH",
"-1460 1850 OFFCURVE",
"-1240 1850 QCURVE SMOOTH",
"-485 1850 LINE SMOOTH",
"-340 1850 OFFCURVE",
"-340 1931 QCURVE SMOOTH",
"-340 1932 OFFCURVE",
"-341 1933 QCURVE",
"-341 1990 OFFCURVE",
"-416 2048 QCURVE",
"-408 2055 OFFCURVE"
);
}
);
width = 0;
}
);
note = uni17B9;
unicode = 17B9;
},
{
glyphname = uni17BA;
layers = (
{
layerId = "BB6B0684-34D4-4B80-99D1-F5F29B570554";
paths = (
{
closed = 1;
nodes = (
"-780 2050 LINE",
"-1240 2050 LINE",
"-1142 2229 LINE"
);
},
{
closed = 1;
nodes = (
"-650 2500 OFFCURVE",
"-750 2500 QCURVE SMOOTH",
"-850 2500 OFFCURVE",
"-850 2400 QCURVE SMOOTH",
"-850 2299 LINE",
"-1040 2406 LINE SMOOTH",
"-1118 2450 OFFCURVE",
"-1169 2450 QCURVE SMOOTH",
"-1220 2450 OFFCURVE",
"-1280 2350 QCURVE SMOOTH",
"-1400 2150 LINE SMOOTH",
"-1460 2050 OFFCURVE",
"-1460 1950 QCURVE SMOOTH",
"-1460 1850 OFFCURVE",
"-1240 1850 QCURVE SMOOTH",
"-485 1850 LINE SMOOTH",
"-340 1850 OFFCURVE",
"-340 1933 QCURVE SMOOTH",
"-340 2400 LINE SMOOTH",
"-340 2500 OFFCURVE",
"-440 2500 QCURVE SMOOTH",
"-540 2500 OFFCURVE",
"-540 2400 QCURVE SMOOTH",
"-540 2125 LINE",
"-650 2187 LINE",
"-650 2400 LINE SMOOTH"
);
}
);
width = 0;
}
);
note = uni17BA;
unicode = 17BA;
},
{
glyphname = uni17BB;
layers = (
{
layerId = "BB6B0684-34D4-4B80-99D1-F5F29B570554";
paths = (
{
closed = 1;
nodes = (
"-730 -150 OFFCURVE",
"-730 -245 QCURVE SMOOTH",
"-730 -340 OFFCURVE",
"-600 -380 OFFCURVE",
"-600 -450 QCURVE SMOOTH",
"-600 -850 LINE SMOOTH",
"-600 -950 OFFCURVE",
"-500 -950 QCURVE SMOOTH",
"-400 -950 OFFCURVE",
"-400 -850 QCURVE SMOOTH",
"-400 -350 LINE SMOOTH",
"-400 -150 OFFCURVE",
"-600 -150 QCURVE SMOOTH"
);
}
);
width = 0;
}
);
note = uni17BB;
unicode = 17BB;
},
{
glyphname = uni17BC;
layers = (
{
layerId = "BB6B0684-34D4-4B80-99D1-F5F29B570554";
paths = (
{
closed = 1;
nodes = (
"-556 -286 OFFCURVE",
"-556 -224 QCURVE SMOOTH",
"-556 -200 OFFCURVE",
"-564 -178 QCURVE SMOOTH",
"-594 -100 OFFCURVE",
"-690 -100 QCURVE SMOOTH",
"-800 -100 OFFCURVE",
"-825 -156 QCURVE SMOOTH",
"-832 -171 OFFCURVE",
"-832 -185 QCURVE SMOOTH",
"-832 -224 OFFCURVE",
"-779 -260 QCURVE",
"-819 -309 OFFCURVE",
"-1091 -549 QCURVE",
"-1209 -633 OFFCURVE",
"-1209 -727 QCURVE SMOOTH",
"-1209 -767 OFFCURVE",
"-1187 -810 QCURVE SMOOTH",
"-1112 -950 OFFCURVE",
"-930 -950 QCURVE SMOOTH",
"-575 -950 OFFCURVE",
"-290 -419 QCURVE SMOOTH",
"-250 -344 OFFCURVE",
"-250 -290 QCURVE SMOOTH",
"-250 -237 OFFCURVE",
"-269 -224 QCURVE SMOOTH",
"-271 -223 OFFCURVE",
"-273 -223 QCURVE SMOOTH",
"-299 -223 OFFCURVE",
"-433 -387 QCURVE SMOOTH",
"-577 -563 OFFCURVE",
"-708 -667 QCURVE SMOOTH",
"-831 -764 OFFCURVE",
"-902 -764 QCURVE SMOOTH",
"-911 -764 LINE SMOOTH",
"-978 -758 OFFCURVE",
"-978 -709 QCURVE SMOOTH",
"-978 -701 LINE",
"-783 -573 OFFCURVE",
"-613 -362 QCURVE"
);
}
);
width = 0;
}
);
note = uni17BC;
unicode = 17BC;
},
{
glyphname = uni17BD;
layers = (
{
layerId = "BB6B0684-34D4-4B80-99D1-F5F29B570554";
paths = (
{
closed = 1;
nodes = (
"-1044 -764 OFFCURVE",
"-1109 -764 QCURVE",
"-1158 -737 OFFCURVE",
"-1158 -708 QCURVE SMOOTH",
"-1158 -685 OFFCURVE",
"-1129 -661 QCURVE",
"-816 -463 OFFCURVE",
"-720 -339 QCURVE SMOOTH",
"-629 -222 OFFCURVE",
"-629 -164 QCURVE SMOOTH",
"-629 -157 LINE SMOOTH",
"-635 -100 OFFCURVE",
"-704 -100 QCURVE SMOOTH",
"-774 -100 OFFCURVE",
"-836 -134 QCURVE",
"-834 -141 OFFCURVE",
"-834 -149 QCURVE SMOOTH",
"-834 -205 OFFCURVE",
"-938 -292 QCURVE SMOOTH",
"-1057 -391 OFFCURVE",
"-1238 -497 QCURVE SMOOTH",
"-1370 -574 OFFCURVE",
"-1370 -684 QCURVE SMOOTH",
"-1370 -725 OFFCURVE",
"-1352 -770 QCURVE SMOOTH",
"-1286 -938 OFFCURVE",
"-1141 -950 QCURVE",
"-1013 -950 OFFCURVE",
"-870 -806 QCURVE",
"-726 -950 LINE",
"-415 -854 OFFCURVE",
"-271 -370 QCURVE",
"-250 -308 OFFCURVE",
"-250 -262 QCURVE SMOOTH",
"-250 -249 OFFCURVE",
"-252 -237 QCURVE SMOOTH",
"-261 -184 OFFCURVE",
"-326 -181 QCURVE SMOOTH",
"-330 -181 LINE SMOOTH",
"-393 -181 OFFCURVE",
"-427 -274 QCURVE SMOOTH",
"-469 -388 OFFCURVE",
"-593 -634 OFFCURVE",
"-711 -716 QCURVE",
"-866 -592 LINE"
);
}
);
width = 0;
}
);
note = uni17BD;
unicode = 17BD;
},
{
glyphname = uni17BE;
layers = (
{
layerId = "BB6B0684-34D4-4B80-99D1-F5F29B570554";
paths = (
{
closed = 1;
nodes = (
"-780 2050 LINE",
"-1240 2050 LINE",
"-1142 2229 LINE"
);
},
{
closed = 1;
nodes = (
"-340 2500 OFFCURVE",
"-440 2500 QCURVE SMOOTH",
"-540 2500 OFFCURVE",
"-540 2400 QCURVE SMOOTH",
"-540 2125 LINE",
"-1040 2406 LINE SMOOTH",
"-1118 2450 OFFCURVE",
"-1169 2450 QCURVE SMOOTH",
"-1220 2450 OFFCURVE",
"-1280 2350 QCURVE SMOOTH",
"-1400 2150 LINE SMOOTH",
"-1460 2050 OFFCURVE",
"-1460 1950 QCURVE SMOOTH",
"-1460 1850 OFFCURVE",
"-1240 1850 QCURVE SMOOTH",
"-485 1850 LINE SMOOTH",
"-340 1850 OFFCURVE",
"-340 1933 QCURVE SMOOTH",
"-340 2400 LINE SMOOTH"
);
}
);
width = 0;
}
);
note = uni17BE;
unicode = 17BE;
},
{
glyphname = uni17BF;
layers = (
{
layerId = "BB6B0684-34D4-4B80-99D1-F5F29B570554";
paths = (
{
closed = 1;
nodes = (
"-120 2200 LINE",
"-580 2200 LINE",
"-482 2379 LINE"
);
},
{
closed = 1;
nodes = (
"320 2650 OFFCURVE",
"220 2650 QCURVE SMOOTH",
"120 2650 OFFCURVE",
"120 2550 QCURVE SMOOTH",
"120 2275 LINE",
"10 2337 LINE",
"10 2550 LINE SMOOTH",
"10 2650 OFFCURVE",
"-90 2650 QCURVE SMOOTH",
"-190 2650 OFFCURVE",
"-190 2550 QCURVE SMOOTH",
"-190 2449 LINE",
"-380 2556 LINE SMOOTH",
"-458 2600 OFFCURVE",
"-509 2600 QCURVE SMOOTH",
"-560 2600 OFFCURVE",
"-620 2500 QCURVE SMOOTH",
"-740 2300 LINE SMOOTH",
"-800 2200 OFFCURVE",
"-800 2100 QCURVE SMOOTH",
"-800 2000 OFFCURVE",
"-580 2000 QCURVE SMOOTH",
"55 2000 LINE",
"300 1939 OFFCURVE",
"300 1620 QCURVE SMOOTH",
"300 -650 LINE SMOOTH",
"300 -750 OFFCURVE",
"200 -750 QCURVE SMOOTH",
"-200 -750 LINE SMOOTH",
"-300 -750 OFFCURVE",
"-300 -650 QCURVE SMOOTH",
"-300 -300 LINE SMOOTH",
"-300 -200 OFFCURVE",
"-400 -200 QCURVE SMOOTH",
"-500 -200 OFFCURVE",
"-500 -300 QCURVE SMOOTH",
"-500 -650 LINE SMOOTH",
"-500 -950 OFFCURVE",
"-200 -950 QCURVE SMOOTH",
"200 -950 LINE SMOOTH",
"500 -950 OFFCURVE",
"500 -650 QCURVE SMOOTH",
"500 1620 LINE SMOOTH",
"500 1980 OFFCURVE",
"320 2125 QCURVE",
"320 2550 LINE SMOOTH"
);
}
);
width = 800;
}
);
note = uni17BF;
unicode = 17BF;
},
{
glyphname = uni17C0;
layers = (
{
layerId = "BB6B0684-34D4-4B80-99D1-F5F29B570554";
paths = (
{
closed = 1;
nodes = (
"100 2300 QCURVE SMOOTH",
"-42 2300 OFFCURVE",
"-108 2276 QCURVE",
"-71 2368 OFFCURVE",
"-54 2460 QCURVE SMOOTH",
"-41 2531 OFFCURVE",
"-41 2581 QCURVE SMOOTH",
"-41 2700 OFFCURVE",
"-115 2700 QCURVE SMOOTH",
"-220 2700 OFFCURVE",
"-231 2615 QCURVE SMOOTH",
"-264 2358 OFFCURVE",
"-449 2130 QCURVE SMOOTH",
"-505 2060 OFFCURVE",
"-505 2011 QCURVE SMOOTH",
"-505 1971 OFFCURVE",
"-466 1945 QCURVE SMOOTH",
"-438 1926 OFFCURVE",
"-408 1926 QCURVE SMOOTH",
"-348 1926 OFFCURVE",
"-281 2003 QCURVE",
"-178 2100 OFFCURVE",
"100 2100 QCURVE SMOOTH",
"300 2100 OFFCURVE",
"300 1700 QCURVE SMOOTH",
"300 -650 LINE SMOOTH",
"300 -750 OFFCURVE",
"200 -750 QCURVE SMOOTH",
"-200 -750 LINE SMOOTH",
"-300 -750 OFFCURVE",
"-300 -650 QCURVE SMOOTH",
"-300 -300 LINE SMOOTH",
"-300 -200 OFFCURVE",
"-400 -200 QCURVE SMOOTH",
"-500 -200 OFFCURVE",
"-500 -300 QCURVE SMOOTH",
"-500 -650 LINE SMOOTH",
"-500 -950 OFFCURVE",
"-200 -950 QCURVE SMOOTH",
"200 -950 LINE SMOOTH",
"500 -950 OFFCURVE",
"500 -650 QCURVE SMOOTH",
"500 1700 LINE SMOOTH",
"500 2300 OFFCURVE"
);
}
);
width = 800;
}
);
note = uni17C0;
unicode = 17C0;
},
{
glyphname = uni17C1;
layers = (
{
layerId = "BB6B0684-34D4-4B80-99D1-F5F29B570554";
paths = (
{
closed = 1;
nodes = (
"588 1103 QCURVE SMOOTH",
"598 1103 OFFCURVE",
"608 1106 QCURVE SMOOTH",
"680 1130 OFFCURVE",
"700 1273 QCURVE",
"690 1268 OFFCURVE",
"678 1268 QCURVE SMOOTH",
"591 1268 OFFCURVE",
"386 1500 QCURVE",
"300 1500 LINE",
"300 400 LINE SMOOTH",
"300 170 OFFCURVE",
"480 0 OFFCURVE",
"585 0 QCURVE SMOOTH",
"700 0 OFFCURVE",
"700 165 QCURVE SMOOTH",
"700 240 OFFCURVE",
"500 410 OFFCURVE",
"500 500 QCURVE SMOOTH",
"500 1143 LINE",
"550 1103 OFFCURVE"
);
}
);
width = 800;
}
);
note = uni17C1;
unicode = 17C1;
},
{
glyphname = uni17C2;
layers = (
{
layerId = "BB6B0684-34D4-4B80-99D1-F5F29B570554";
paths = (
{
closed = 1;
nodes = (
"808 2554 QCURVE SMOOTH",
"738 2554 OFFCURVE",
"624 2321 QCURVE SMOOTH",
"496 2060 LINE",
"288 2036 LINE SMOOTH",
"200 2026 OFFCURVE",
"200 1937 QCURVE SMOOTH",
"200 1927 OFFCURVE",
"201 1916 QCURVE SMOOTH",
"222 1697 LINE SMOOTH",
"232 1600 OFFCURVE",
"312 1600 QCURVE SMOOTH",
"321 1600 OFFCURVE",
"332 1601 QCURVE SMOOTH",
"530 1628 LINE SMOOTH",
"618 1640 OFFCURVE",
"618 1693 QCURVE SMOOTH",
"618 1699 OFFCURVE",
"617 1706 QCURVE SMOOTH",
"606 1761 OFFCURVE",
"531 1761 QCURVE SMOOTH",
"517 1761 OFFCURVE",
"501 1759 QCURVE SMOOTH",
"398 1746 LINE",
"390 1840 LINE",
"617 1863 LINE",
"756 2192 LINE SMOOTH",
"848 2409 OFFCURVE",
"848 2496 QCURVE SMOOTH",
"848 2541 OFFCURVE",
"824 2551 QCURVE SMOOTH",
"816 2554 OFFCURVE"
);
},
{
closed = 1;
nodes = (
"588 1103 QCURVE SMOOTH",
"598 1103 OFFCURVE",
"608 1106 QCURVE SMOOTH",
"680 1130 OFFCURVE",
"700 1273 QCURVE",
"690 1268 OFFCURVE",
"678 1268 QCURVE SMOOTH",
"591 1268 OFFCURVE",
"386 1500 QCURVE",
"300 1500 LINE",
"300 400 LINE SMOOTH",
"300 170 OFFCURVE",
"480 0 OFFCURVE",
"585 0 QCURVE SMOOTH",
"700 0 OFFCURVE",
"700 165 QCURVE SMOOTH",
"700 240 OFFCURVE",
"500 410 OFFCURVE",
"500 500 QCURVE SMOOTH",
"500 1143 LINE",
"550 1103 OFFCURVE"
);
}
);
width = 800;
}
);
note = uni17C2;
unicode = 17C2;
},
{
glyphname = uni17C3;
layers = (
{
layerId = "BB6B0684-34D4-4B80-99D1-F5F29B570554";
paths = (
{
closed = 1;
nodes = (
"0 2541 OFFCURVE",
"0 2496 QCURVE SMOOTH",
"0 2409 OFFCURVE",
"92 2192 QCURVE SMOOTH",
"231 1863 LINE",
"458 1840 LINE",
"450 1746 LINE",
"347 1759 LINE SMOOTH",
"331 1761 OFFCURVE",
"317 1761 QCURVE SMOOTH",
"242 1761 OFFCURVE",
"231 1706 QCURVE SMOOTH",
"230 1699 OFFCURVE",
"230 1693 QCURVE SMOOTH",
"230 1640 OFFCURVE",
"318 1628 QCURVE SMOOTH",
"516 1601 LINE SMOOTH",
"527 1600 OFFCURVE",
"536 1600 QCURVE SMOOTH",
"616 1600 OFFCURVE",
"626 1697 QCURVE SMOOTH",
"647 1916 LINE SMOOTH",
"648 1927 OFFCURVE",
"648 1937 QCURVE SMOOTH",
"648 2026 OFFCURVE",
"560 2036 QCURVE SMOOTH",
"352 2060 LINE",
"224 2321 LINE SMOOTH",
"110 2554 OFFCURVE",
"40 2554 QCURVE SMOOTH",
"32 2554 OFFCURVE",
"24 2551 QCURVE SMOOTH"
);
},
{
closed = 1;
nodes = (
"588 1103 QCURVE SMOOTH",
"598 1103 OFFCURVE",
"608 1106 QCURVE SMOOTH",
"680 1130 OFFCURVE",
"700 1273 QCURVE",
"690 1268 OFFCURVE",
"678 1268 QCURVE SMOOTH",
"591 1268 OFFCURVE",
"386 1500 QCURVE",
"300 1500 LINE",
"300 400 LINE SMOOTH",
"300 170 OFFCURVE",
"480 0 OFFCURVE",
"585 0 QCURVE SMOOTH",
"700 0 OFFCURVE",
"700 165 QCURVE SMOOTH",
"700 240 OFFCURVE",
"500 410 OFFCURVE",
"500 500 QCURVE SMOOTH",
"500 1143 LINE",
"550 1103 OFFCURVE"
);
}
);
width = 800;
}
);
note = uni17C3;
unicode = 17C3;
},
{
glyphname = uni17C4;
layers = (
{
layerId = "BB6B0684-34D4-4B80-99D1-F5F29B570554";
paths = (
{
closed = 1;
nodes = (
"300 420 OFFCURVE",
"150 276 OFFCURVE",
"150 193 QCURVE SMOOTH",
"150 110 OFFCURVE",
"337 0 OFFCURVE",
"419 0 QCURVE SMOOTH",
"500 0 OFFCURVE",
"500 100 QCURVE SMOOTH",
"500 1140 LINE",
"-66 1500 OFFCURVE",
"-125 1500 QCURVE SMOOTH",
"-185 1500 OFFCURVE",
"-586 1164 QCURVE",
"-506 951 LINE",
"-131 1277 LINE",
"300 1032 LINE",
"300 500 LINE SMOOTH"
);
}
);
width = 800;
}
);
note = uni17C4;
unicode = 17C4;
},
{
glyphname = uni17C5;
layers = (
{
layerId = "BB6B0684-34D4-4B80-99D1-F5F29B570554";
paths = (
{
closed = 1;
nodes = (
"600 1200 QCURVE SMOOTH",
"600 1670 LINE SMOOTH",
"600 1900 OFFCURVE",
"400 1900 QCURVE SMOOTH",
"300 1900 OFFCURVE",
"300 1825 QCURVE SMOOTH",
"300 1750 OFFCURVE",
"400 1710 OFFCURVE",
"400 1670 QCURVE SMOOTH",
"400 1203 LINE",
"-71 1500 OFFCURVE",
"-125 1500 QCURVE SMOOTH",
"-172 1500 OFFCURVE",
"-429 1293 QCURVE",
"-298 1132 LINE",
"-131 1277 LINE",
"300 1032 LINE",
"300 500 LINE SMOOTH",
"300 420 OFFCURVE",
"150 276 OFFCURVE",
"150 193 QCURVE SMOOTH",
"150 110 OFFCURVE",
"337 0 OFFCURVE",
"419 0 QCURVE SMOOTH",
"500 0 OFFCURVE",
"500 100 QCURVE SMOOTH",
"500 1000 LINE",
"600 1050 OFFCURVE"
);
}
);
width = 800;
}
);
note = uni17C5;
unicode = 17C5;
},
{
glyphname = uni17C6;
layers = (
{
layerId = "BB6B0684-34D4-4B80-99D1-F5F29B570554";
paths = (
{
closed = 1;
nodes = (
"-980 2156 QCURVE SMOOTH",
"-961 2175 OFFCURVE",
"-925 2175 QCURVE SMOOTH",
"-886 2175 OFFCURVE",
"-868 2156 QCURVE SMOOTH",
"-850 2138 OFFCURVE",
"-850 2100 QCURVE SMOOTH",
"-850 2063 OFFCURVE",
"-868 2044 QCURVE SMOOTH",
"-886 2025 OFFCURVE",
"-925 2025 QCURVE SMOOTH",
"-961 2025 OFFCURVE",
"-980 2044 QCURVE SMOOTH",
"-1000 2063 OFFCURVE",
"-1000 2100 QCURVE SMOOTH",
"-1000 2138 OFFCURVE"
);
},
{
closed = 1;
nodes = (
"-736 2288 QCURVE SMOOTH",
"-798 2350 OFFCURVE",
"-925 2350 QCURVE SMOOTH",
"-1050 2350 OFFCURVE",
"-1112 2288 QCURVE SMOOTH",
"-1175 2225 OFFCURVE",
"-1175 2100 QCURVE SMOOTH",
"-1175 1975 OFFCURVE",
"-1112 1912 QCURVE SMOOTH",
"-1050 1850 OFFCURVE",
"-925 1850 QCURVE SMOOTH",
"-798 1850 OFFCURVE",
"-736 1912 QCURVE SMOOTH",
"-675 1975 OFFCURVE",
"-675 2100 QCURVE SMOOTH",
"-675 2225 OFFCURVE"
);
}
);
width = 0;
}
);
note = uni17C6;
unicode = 17C6;
},
{
glyphname = uni17C7;
layers = (
{
layerId = "BB6B0684-34D4-4B80-99D1-F5F29B570554";
paths = (
{
closed = 1;
nodes = (
"495 356 QCURVE SMOOTH",
"514 375 OFFCURVE",
"550 375 QCURVE SMOOTH",
"589 375 OFFCURVE",
"607 356 QCURVE SMOOTH",
"625 338 OFFCURVE",
"625 300 QCURVE SMOOTH",
"625 263 OFFCURVE",
"607 244 QCURVE SMOOTH",
"589 225 OFFCURVE",
"550 225 QCURVE SMOOTH",
"514 225 OFFCURVE",
"495 244 QCURVE SMOOTH",
"475 263 OFFCURVE",
"475 300 QCURVE SMOOTH",
"475 338 OFFCURVE"
);
},
{
closed = 1;
nodes = (
"739 488 QCURVE SMOOTH",
"677 550 OFFCURVE",
"550 550 QCURVE SMOOTH",
"425 550 OFFCURVE",
"363 488 QCURVE SMOOTH",
"300 425 OFFCURVE",
"300 300 QCURVE SMOOTH",
"300 175 OFFCURVE",
"363 112 QCURVE SMOOTH",
"425 50 OFFCURVE",
"550 50 QCURVE SMOOTH",
"677 50 OFFCURVE",
"739 112 QCURVE SMOOTH",
"800 175 OFFCURVE",
"800 300 QCURVE SMOOTH",
"800 425 OFFCURVE"
);
},
{
closed = 1;
nodes = (
"495 1256 QCURVE SMOOTH",
"514 1275 OFFCURVE",
"550 1275 QCURVE SMOOTH",
"589 1275 OFFCURVE",
"607 1256 QCURVE SMOOTH",
"625 1238 OFFCURVE",
"625 1200 QCURVE SMOOTH",
"625 1163 OFFCURVE",
"607 1144 QCURVE SMOOTH",
"589 1125 OFFCURVE",
"550 1125 QCURVE SMOOTH",
"514 1125 OFFCURVE",
"495 1144 QCURVE SMOOTH",
"475 1163 OFFCURVE",
"475 1200 QCURVE SMOOTH",
"475 1238 OFFCURVE"
);
},
{
closed = 1;
nodes = (
"739 1388 QCURVE SMOOTH",
"677 1450 OFFCURVE",
"550 1450 QCURVE SMOOTH",
"425 1450 OFFCURVE",
"363 1388 QCURVE SMOOTH",
"300 1325 OFFCURVE",
"300 1200 QCURVE SMOOTH",
"300 1075 OFFCURVE",
"363 1012 QCURVE SMOOTH",
"425 950 OFFCURVE",
"550 950 QCURVE SMOOTH",
"677 950 OFFCURVE",
"739 1012 QCURVE SMOOTH",
"800 1075 OFFCURVE",
"800 1200 QCURVE SMOOTH",
"800 1325 OFFCURVE"
);
}
);
width = 1100;
}
);
note = uni17C7;
unicode = 17C7;
},
{
glyphname = uni17C8;
layers = (
{
layerId = "BB6B0684-34D4-4B80-99D1-F5F29B570554";
paths = (
{
closed = 1;
nodes = (
"347 1355 OFFCURVE",
"300 1271 OFFCURVE",
"300 1225 QCURVE SMOOTH",
"300 1179 OFFCURVE",
"346 1096 OFFCURVE",
"430 1050 OFFCURVE",
"475 1050 QCURVE SMOOTH",
"520 1050 OFFCURVE",
"604 1096 OFFCURVE",
"650 1179 OFFCURVE",
"650 1225 QCURVE SMOOTH",
"650 1271 OFFCURVE",
"603 1355 OFFCURVE",
"519 1400 OFFCURVE",
"475 1400 QCURVE SMOOTH",
"431 1400 OFFCURVE"
);
},
{
closed = 1;
nodes = (
"347 405 OFFCURVE",
"300 321 OFFCURVE",
"300 275 QCURVE SMOOTH",
"300 229 OFFCURVE",
"346 146 OFFCURVE",
"430 100 OFFCURVE",
"475 100 QCURVE SMOOTH",
"520 100 OFFCURVE",
"604 146 OFFCURVE",
"650 229 OFFCURVE",
"650 275 QCURVE SMOOTH",
"650 321 OFFCURVE",
"603 405 OFFCURVE",
"519 450 OFFCURVE",
"475 450 QCURVE SMOOTH",
"431 450 OFFCURVE"
);
}
);
width = 900;
}
);
note = uni17C8;
unicode = 17C8;
},
{
glyphname = uni17C9;
layers = (
{
layerId = "BB6B0684-34D4-4B80-99D1-F5F29B570554";
paths = (
{
closed = 1;
nodes = (
"-600 2500 OFFCURVE",
"-770 2500 QCURVE SMOOTH",
"-870 2500 OFFCURVE",
"-870 2425 QCURVE SMOOTH",
"-870 2350 OFFCURVE",
"-800 2310 OFFCURVE",
"-800 2270 QCURVE SMOOTH",
"-800 1984 LINE SMOOTH",
"-800 1877 OFFCURVE",
"-700 1850 QCURVE",
"-600 1877 OFFCURVE",
"-600 1984 QCURVE SMOOTH",
"-600 2270 LINE SMOOTH"
);
},
{
closed = 1;
nodes = (
"-1000 2500 OFFCURVE",
"-1170 2500 QCURVE SMOOTH",
"-1270 2500 OFFCURVE",
"-1270 2425 QCURVE SMOOTH",
"-1270 2350 OFFCURVE",
"-1200 2310 OFFCURVE",
"-1200 2270 QCURVE SMOOTH",
"-1200 1984 LINE SMOOTH",
"-1200 1877 OFFCURVE",
"-1100 1850 QCURVE",
"-1000 1877 OFFCURVE",
"-1000 1984 QCURVE SMOOTH",
"-1000 2270 LINE SMOOTH"
);
}
);
width = 0;
}
);
note = uni17C9;
unicode = 17C9;
},
{
glyphname = uni17CA;
layers = (
{
layerId = "BB6B0684-34D4-4B80-99D1-F5F29B570554";
paths = (
{
closed = 1;
nodes = (
"-1481 1750 QCURVE SMOOTH",
"-1363 1750 OFFCURVE",
"-1287 1808 QCURVE SMOOTH",
"-1211 1866 LINE",
"-903 1750 LINE",
"-637 1883 LINE",
"-489 1785 OFFCURVE",
"-398 1755 QCURVE SMOOTH",
"-384 1750 OFFCURVE",
"-370 1750 QCURVE SMOOTH",
"-292 1750 OFFCURVE",
"-200 1896 QCURVE",
"-376 1955 OFFCURVE",
"-591 2076 OFFCURVE",
"-627 2076 QCURVE SMOOTH",
"-665 2076 OFFCURVE",
"-903 1960 QCURVE",
"-1193 2076 OFFCURVE",
"-1230 2076 QCURVE SMOOTH",
"-1266 2076 OFFCURVE",
"-1350 2016 QCURVE SMOOTH",
"-1537 1889 LINE SMOOTH",
"-1600 1846 OFFCURVE",
"-1600 1798 QCURVE SMOOTH",
"-1600 1750 OFFCURVE"
);
}
);
width = 0;
}
);
note = uni17CA;
unicode = 17CA;
},
{
glyphname = uni17CB;
layers = (
{
layerId = "BB6B0684-34D4-4B80-99D1-F5F29B570554";
paths = (
{
closed = 1;
nodes = (
"-800 2500 OFFCURVE",
"-970 2500 QCURVE SMOOTH",
"-1070 2500 OFFCURVE",
"-1070 2425 QCURVE SMOOTH",
"-1070 2350 OFFCURVE",
"-1000 2310 OFFCURVE",
"-1000 2270 QCURVE SMOOTH",
"-1000 1984 LINE SMOOTH",
"-1000 1877 OFFCURVE",
"-900 1850 QCURVE",
"-800 1877 OFFCURVE",
"-800 1984 QCURVE SMOOTH",
"-800 2270 LINE SMOOTH"
);
}
);
width = 0;
}
);
note = uni17CB;
unicode = 17CB;
},
{
glyphname = uni17CC;
layers = (
{
layerId = "BB6B0684-34D4-4B80-99D1-F5F29B570554";
paths = (
{
closed = 1;
nodes = (
"-1004 2013 QCURVE SMOOTH",
"-966 2029 OFFCURVE",
"-884 2029 QCURVE SMOOTH",
"-839 2029 OFFCURVE",
"-782 2024 QCURVE SMOOTH",
"-688 2012 OFFCURVE",
"-627 1915 QCURVE SMOOTH",
"-586 1850 OFFCURVE",
"-534 1850 QCURVE SMOOTH",
"-506 1850 OFFCURVE",
"-477 1867 QCURVE SMOOTH",
"-425 1894 OFFCURVE",
"-425 1943 QCURVE SMOOTH",
"-425 1978 OFFCURVE",
"-452 2023 QCURVE",
"-536 2129 OFFCURVE",
"-656 2154 QCURVE SMOOTH",
"-777 2178 OFFCURVE",
"-853 2183 QCURVE",
"-771 2284 OFFCURVE",
"-685 2430 QCURVE SMOOTH",
"-600 2576 OFFCURVE",
"-600 2671 QCURVE SMOOTH",
"-600 2800 OFFCURVE",
"-701 2800 QCURVE SMOOTH",
"-800 2800 OFFCURVE",
"-800 2671 QCURVE SMOOTH",
"-800 2615 OFFCURVE",
"-882 2434 QCURVE SMOOTH",
"-960 2253 OFFCURVE",
"-1156 2128 QCURVE SMOOTH",
"-1286 2045 LINE SMOOTH",
"-1375 1987 OFFCURVE",
"-1375 1934 QCURVE SMOOTH",
"-1375 1909 OFFCURVE",
"-1357 1885 QCURVE SMOOTH",
"-1329 1850 OFFCURVE",
"-1285 1850 QCURVE SMOOTH",
"-1232 1850 OFFCURVE",
"-1148 1920 QCURVE SMOOTH",
"-1064 1988 OFFCURVE"
);
}
);
width = 0;
}
);
note = uni17CC;
unicode = 17CC;
},
{
glyphname = uni17CD;
layers = (
{
layerId = "BB6B0684-34D4-4B80-99D1-F5F29B570554";
paths = (
{
closed = 1;
nodes = (
"-427 2796 QCURVE SMOOTH",
"-438 2798 OFFCURVE",
"-449 2798 QCURVE SMOOTH",
"-497 2798 OFFCURVE",
"-521 2763 QCURVE SMOOTH",
"-550 2720 OFFCURVE",
"-835 2414 OFFCURVE",
"-934 2377 QCURVE",
"-998 2450 OFFCURVE",
"-1164 2450 QCURVE SMOOTH",
"-1296 2450 OFFCURVE",
"-1454 2277 OFFCURVE",
"-1454 2120 QCURVE SMOOTH",
"-1454 1979 OFFCURVE",
"-1308 1850 OFFCURVE",
"-1171 1850 QCURVE SMOOTH",
"-1044 1850 OFFCURVE",
"-986 1894 QCURVE SMOOTH",
"-928 1938 OFFCURVE",
"-928 2024 QCURVE SMOOTH",
"-928 2089 OFFCURVE",
"-1020 2089 QCURVE SMOOTH",
"-1112 2089 OFFCURVE",
"-1112 2073 QCURVE SMOOTH",
"-1112 2047 OFFCURVE",
"-1178 2047 QCURVE SMOOTH",
"-1254 2047 OFFCURVE",
"-1254 2122 QCURVE SMOOTH",
"-1254 2161 OFFCURVE",
"-1184 2244 OFFCURVE",
"-1125 2244 QCURVE SMOOTH",
"-1042 2244 OFFCURVE",
"-945 2162 QCURVE",
"-900 2162 OFFCURVE",
"-719 2244 OFFCURVE",
"-436 2530 OFFCURVE",
"-385 2599 QCURVE SMOOTH",
"-346 2653 OFFCURVE",
"-346 2702 QCURVE SMOOTH",
"-346 2715 OFFCURVE",
"-348 2728 QCURVE SMOOTH",
"-362 2787 OFFCURVE"
);
}
);
width = 0;
}
);
note = uni17CD;
unicode = 17CD;
},
{
glyphname = uni17CE;
layers = (
{
layerId = "BB6B0684-34D4-4B80-99D1-F5F29B570554";
paths = (
{
closed = 1;
nodes = (
"-800 1850 LINE",
"-800 2049 LINE",
"-600 2049 LINE",
"-600 2250 LINE",
"-800 2250 LINE",
"-800 2449 LINE",
"-1000 2449 LINE",
"-1000 2250 LINE",
"-1200 2250 LINE",
"-1200 2049 LINE",
"-1000 2049 LINE",
"-1000 1850 LINE"
);
}
);
width = 0;
}
);
note = uni17CE;
unicode = 17CE;
},
{
glyphname = uni17CF;
layers = (
{
layerId = "BB6B0684-34D4-4B80-99D1-F5F29B570554";
paths = (
{
closed = 1;
nodes = (
"-870 2441 OFFCURVE",
"-1005 2441 QCURVE SMOOTH",
"-1350 2441 OFFCURVE",
"-1350 2096 QCURVE SMOOTH",
"-1350 1850 OFFCURVE",
"-1108 1850 QCURVE SMOOTH",
"-1002 1850 OFFCURVE",
"-915 1973 QCURVE",
"-827 1850 OFFCURVE",
"-708 1850 QCURVE SMOOTH",
"-450 1850 OFFCURVE",
"-450 2047 QCURVE SMOOTH",
"-450 2219 OFFCURVE",
"-595 2219 QCURVE SMOOTH",
"-740 2219 OFFCURVE",
"-740 2096 QCURVE",
"-650 2096 OFFCURVE",
"-650 2047 QCURVE SMOOTH",
"-650 2010 OFFCURVE",
"-715 2010 QCURVE SMOOTH",
"-777 2010 OFFCURVE",
"-915 2177 QCURVE",
"-1052 2010 OFFCURVE",
"-1102 2010 QCURVE SMOOTH",
"-1150 2010 OFFCURVE",
"-1150 2096 QCURVE SMOOTH",
"-1150 2281 OFFCURVE",
"-900 2281 QCURVE SMOOTH",
"-768 2281 OFFCURVE",
"-450 2465 OFFCURVE",
"-450 2558 QCURVE SMOOTH",
"-450 2650 OFFCURVE",
"-600 2650 QCURVE",
"-662 2562 OFFCURVE"
);
}
);
width = 0;
}
);
note = uni17CF;
unicode = 17CF;
},
{
glyphname = uni17D0;
layers = (
{
layerId = "BB6B0684-34D4-4B80-99D1-F5F29B570554";
paths = (
{
closed = 1;
nodes = (
"-1187 2193 OFFCURVE",
"-1194 2100 QCURVE",
"-1194 1980 OFFCURVE",
"-954 1850 OFFCURVE",
"-814 1850 QCURVE SMOOTH",
"-615 1850 OFFCURVE",
"-364 2095 OFFCURVE",
"-319 2254 QCURVE SMOOTH",
"-300 2323 OFFCURVE",
"-300 2388 QCURVE SMOOTH",
"-300 2471 OFFCURVE",
"-332 2546 QCURVE SMOOTH",
"-376 2650 OFFCURVE",
"-431 2650 QCURVE SMOOTH",
"-447 2650 OFFCURVE",
"-463 2641 QCURVE SMOOTH",
"-512 2615 OFFCURVE",
"-512 2576 QCURVE SMOOTH",
"-512 2555 OFFCURVE",
"-498 2530 QCURVE SMOOTH",
"-473 2483 OFFCURVE",
"-473 2428 QCURVE SMOOTH",
"-473 2396 OFFCURVE",
"-481 2362 QCURVE SMOOTH",
"-504 2266 OFFCURVE",
"-676 2040 OFFCURVE",
"-814 2040 QCURVE SMOOTH",
"-925 2040 OFFCURVE",
"-1004 2082 OFFCURVE",
"-1004 2130 QCURVE SMOOTH",
"-1004 2134 LINE SMOOTH",
"-1004 2182 OFFCURVE",
"-1093 2193 QCURVE",
"-1110 2193 LINE SMOOTH"
);
}
);
width = 0;
}
);
note = uni17D0;
unicode = 17D0;
},
{
glyphname = uni17D1;
layers = (
{
layerId = "BB6B0684-34D4-4B80-99D1-F5F29B570554";
paths = (
{
closed = 1;
nodes = (
"-1500 1850 LINE",
"-300 1850 LINE",
"-300 2050 LINE",
"-1500 2050 LINE"
);
}
);
width = 0;
}
);
note = uni17D1;
unicode = 17D1;
},
{
glyphname = uni17D2;
layers = (
{
layerId = "BB6B0684-34D4-4B80-99D1-F5F29B570554";
paths = (
{
closed = 1;
nodes = (
"-650 -350 LINE",
"-650 -200 LINE",
"-750 -200 LINE",
"-750 -350 LINE",
"-900 -350 LINE",
"-900 -450 LINE",
"-750 -450 LINE",
"-750 -600 LINE",
"-650 -600 LINE",
"-650 -450 LINE",
"-500 -450 LINE",
"-500 -350 LINE"
);
}
);
width = 0;
}
);
note = uni17D2;
unicode = 17D2;
},
{
glyphname = uni17D3;
layers = (
{
layerId = "BB6B0684-34D4-4B80-99D1-F5F29B570554";
paths = (
{
closed = 1;
nodes = (
"-1080 2163 QCURVE SMOOTH",
"-1020 2200 OFFCURVE",
"-900 2200 QCURVE SMOOTH",
"-780 2200 OFFCURVE",
"-719 2163 QCURVE SMOOTH",
"-660 2125 OFFCURVE",
"-660 2050 QCURVE SMOOTH",
"-660 1975 OFFCURVE",
"-719 1938 QCURVE SMOOTH",
"-780 1900 OFFCURVE",
"-900 1900 QCURVE SMOOTH",
"-1020 1900 OFFCURVE",
"-1080 1938 QCURVE SMOOTH",
"-1140 1975 OFFCURVE",
"-1140 2050 QCURVE SMOOTH",
"-1140 2125 OFFCURVE"
);
},
{
closed = 1;
nodes = (
"-600 2275 QCURVE SMOOTH",
"-700 2350 OFFCURVE",
"-900 2350 QCURVE SMOOTH",
"-1100 2350 OFFCURVE",
"-1199 2275 QCURVE SMOOTH",
"-1300 2200 OFFCURVE",
"-1300 2050 QCURVE SMOOTH",
"-1300 1900 OFFCURVE",
"-1199 1825 QCURVE SMOOTH",
"-1100 1750 OFFCURVE",
"-900 1750 QCURVE SMOOTH",
"-700 1750 OFFCURVE",
"-600 1825 QCURVE SMOOTH",
"-500 1900 OFFCURVE",
"-500 2050 QCURVE SMOOTH",
"-500 2200 OFFCURVE"
);
}
);
width = 0;
}
);
note = uni17D3;
unicode = 17D3;
},
{
glyphname = uni17D4;
layers = (
{
layerId = "BB6B0684-34D4-4B80-99D1-F5F29B570554";
paths = (
{
closed = 1;
nodes = (
"600 1200 QCURVE SMOOTH",
"500 1200 OFFCURVE",
"500 1250 QCURVE SMOOTH",
"500 1300 OFFCURVE",
"550 1300 QCURVE SMOOTH",
"650 1300 OFFCURVE",
"650 1400 QCURVE SMOOTH",
"650 1500 OFFCURVE",
"550 1500 QCURVE SMOOTH",
"300 1500 OFFCURVE",
"300 1250 QCURVE SMOOTH",
"300 1000 OFFCURVE",
"600 1000 QCURVE SMOOTH",
"812 1000 OFFCURVE",
"1000 1171 QCURVE",
"1000 205 LINE SMOOTH",
"1000 138 OFFCURVE",
"913 101 OFFCURVE",
"850 101 QCURVE",
"850 50 OFFCURVE",
"878 25 QCURVE SMOOTH",
"905 0 OFFCURVE",
"960 0 QCURVE SMOOTH",
"1055 0 OFFCURVE",
"1200 88 OFFCURVE",
"1200 205 QCURVE SMOOTH",
"1200 1400 LINE SMOOTH",
"1200 1500 OFFCURVE",
"1100 1500 QCURVE SMOOTH",
"1000 1500 OFFCURVE",
"1000 1442 QCURVE",
"818 1200 OFFCURVE"
);
}
);
width = 1500;
}
);
note = uni17D4;
unicode = 17D4;
},
{
glyphname = uni17D5;
layers = (
{
layerId = "BB6B0684-34D4-4B80-99D1-F5F29B570554";
paths = (
{
closed = 1;
nodes = (
"1350 150 LINE SMOOTH",
"1350 100 OFFCURVE",
"1325 62 QCURVE SMOOTH",
"1300 25 OFFCURVE",
"1250 0 QCURVE",
"1375 0 OFFCURVE",
"1550 75 OFFCURVE",
"1550 150 QCURVE SMOOTH",
"1550 1400 LINE SMOOTH",
"1550 1500 OFFCURVE",
"1450 1500 QCURVE SMOOTH",
"1350 1500 OFFCURVE",
"1350 1400 QCURVE SMOOTH"
);
},
{
closed = 1;
nodes = (
"600 1200 QCURVE SMOOTH",
"500 1200 OFFCURVE",
"500 1250 QCURVE SMOOTH",
"500 1300 OFFCURVE",
"550 1300 QCURVE SMOOTH",
"650 1300 OFFCURVE",
"650 1400 QCURVE SMOOTH",
"650 1500 OFFCURVE",
"550 1500 QCURVE SMOOTH",
"300 1500 OFFCURVE",
"300 1250 QCURVE SMOOTH",
"300 1000 OFFCURVE",
"600 1000 QCURVE SMOOTH",
"812 1000 OFFCURVE",
"1000 1171 QCURVE",
"1000 205 LINE SMOOTH",
"1000 138 OFFCURVE",
"913 101 OFFCURVE",
"850 101 QCURVE",
"850 50 OFFCURVE",
"878 25 QCURVE SMOOTH",
"905 0 OFFCURVE",
"960 0 QCURVE SMOOTH",
"1055 0 OFFCURVE",
"1200 88 OFFCURVE",
"1200 205 QCURVE SMOOTH",
"1200 1400 LINE SMOOTH",
"1200 1500 OFFCURVE",
"1100 1500 QCURVE SMOOTH",
"1000 1500 OFFCURVE",
"1000 1442 QCURVE",
"818 1200 OFFCURVE"
);
}
);
width = 1850;
}
);
note = uni17D5;
unicode = 17D5;
},
{
glyphname = uni17D6;
layers = (
{
layerId = "BB6B0684-34D4-4B80-99D1-F5F29B570554";
paths = (
{
closed = 1;
nodes = (
"300 650 LINE",
"950 650 LINE",
"950 850 LINE",
"300 850 LINE"
);
},
{
closed = 1;
nodes = (
"570 356 QCURVE SMOOTH",
"589 375 OFFCURVE",
"625 375 QCURVE SMOOTH",
"664 375 OFFCURVE",
"682 356 QCURVE SMOOTH",
"700 338 OFFCURVE",
"700 300 QCURVE SMOOTH",
"700 263 OFFCURVE",
"682 244 QCURVE SMOOTH",
"664 225 OFFCURVE",
"625 225 QCURVE SMOOTH",
"589 225 OFFCURVE",
"570 244 QCURVE SMOOTH",
"550 263 OFFCURVE",
"550 300 QCURVE SMOOTH",
"550 338 OFFCURVE"
);
},
{
closed = 1;
nodes = (
"814 488 QCURVE SMOOTH",
"752 550 OFFCURVE",
"625 550 QCURVE SMOOTH",
"500 550 OFFCURVE",
"438 488 QCURVE SMOOTH",
"375 425 OFFCURVE",
"375 300 QCURVE SMOOTH",
"375 175 OFFCURVE",
"438 112 QCURVE SMOOTH",
"500 50 OFFCURVE",
"625 50 QCURVE SMOOTH",
"752 50 OFFCURVE",
"814 112 QCURVE SMOOTH",
"875 175 OFFCURVE",
"875 300 QCURVE SMOOTH",
"875 425 OFFCURVE"
);
},
{
closed = 1;
nodes = (
"570 1256 QCURVE SMOOTH",
"589 1275 OFFCURVE",
"625 1275 QCURVE SMOOTH",
"664 1275 OFFCURVE",
"682 1256 QCURVE SMOOTH",
"700 1238 OFFCURVE",
"700 1200 QCURVE SMOOTH",
"700 1163 OFFCURVE",
"682 1144 QCURVE SMOOTH",
"664 1125 OFFCURVE",
"625 1125 QCURVE SMOOTH",
"589 1125 OFFCURVE",
"570 1144 QCURVE SMOOTH",
"550 1163 OFFCURVE",
"550 1200 QCURVE SMOOTH",
"550 1238 OFFCURVE"
);
},
{
closed = 1;
nodes = (
"814 1388 QCURVE SMOOTH",
"752 1450 OFFCURVE",
"625 1450 QCURVE SMOOTH",
"500 1450 OFFCURVE",
"438 1388 QCURVE SMOOTH",
"375 1325 OFFCURVE",
"375 1200 QCURVE SMOOTH",
"375 1075 OFFCURVE",
"438 1012 QCURVE SMOOTH",
"500 950 OFFCURVE",
"625 950 QCURVE SMOOTH",
"752 950 OFFCURVE",
"814 1012 QCURVE SMOOTH",
"875 1075 OFFCURVE",
"875 1200 QCURVE SMOOTH",
"875 1325 OFFCURVE"
);
}
);
width = 1250;
}
);
note = uni17D6;
unicode = 17D6;
},
{
glyphname = uni17D7;
layers = (
{
layerId = "BB6B0684-34D4-4B80-99D1-F5F29B570554";
paths = (
{
closed = 1;
nodes = (
"706 1029 OFFCURVE",
"706 1073 QCURVE SMOOTH",
"706 1117 OFFCURVE",
"691 1139 QCURVE SMOOTH",
"677 1160 OFFCURVE",
"647 1160 QCURVE",
"647 1135 OFFCURVE",
"632 1123 QCURVE SMOOTH",
"617 1110 OFFCURVE",
"588 1110 QCURVE SMOOTH",
"556 1110 OFFCURVE",
"541 1125 QCURVE SMOOTH",
"525 1139 OFFCURVE",
"525 1189 QCURVE",
"632 1269 LINE",
"886 1095 LINE",
"1150 1269 LINE",
"1150 400 LINE SMOOTH",
"1150 275 OFFCURVE",
"1005 200 OFFCURVE",
"884 200 QCURVE SMOOTH",
"736 200 OFFCURVE",
"588 246 OFFCURVE",
"588 341 QCURVE",
"528 341 OFFCURVE",
"419 283 OFFCURVE",
"419 225 QCURVE SMOOTH",
"419 87 OFFCURVE",
"677 0 OFFCURVE",
"884 0 QCURVE SMOOTH",
"1092 0 OFFCURVE",
"1350 175 OFFCURVE",
"1350 400 QCURVE SMOOTH",
"1350 1400 LINE SMOOTH",
"1350 1499 OFFCURVE",
"1173 1499 QCURVE",
"884 1290 LINE",
"612 1500 LINE",
"301 1271 OFFCURVE",
"300 1189 QCURVE SMOOTH",
"300 1082 OFFCURVE",
"458 906 OFFCURVE",
"588 906 QCURVE SMOOTH",
"647 906 OFFCURVE"
);
}
);
width = 1650;
}
);
note = uni17D7;
unicode = 17D7;
},
{
glyphname = uni17D8;
layers = (
{
layerId = "BB6B0684-34D4-4B80-99D1-F5F29B570554";
paths = (
{
closed = 1;
nodes = (
"600 1200 QCURVE SMOOTH",
"500 1200 OFFCURVE",
"500 1250 QCURVE SMOOTH",
"500 1300 OFFCURVE",
"550 1300 QCURVE SMOOTH",
"650 1300 OFFCURVE",
"650 1400 QCURVE SMOOTH",
"650 1500 OFFCURVE",
"550 1500 QCURVE SMOOTH",
"300 1500 OFFCURVE",
"300 1250 QCURVE SMOOTH",
"300 1000 OFFCURVE",
"600 1000 QCURVE SMOOTH",
"812 1000 OFFCURVE",
"1000 1171 QCURVE",
"1000 205 LINE SMOOTH",
"1000 138 OFFCURVE",
"913 101 OFFCURVE",
"850 101 QCURVE",
"850 50 OFFCURVE",
"878 25 QCURVE SMOOTH",
"905 0 OFFCURVE",
"960 0 QCURVE SMOOTH",
"1055 0 OFFCURVE",
"1200 88 OFFCURVE",
"1200 205 QCURVE SMOOTH",
"1200 1400 LINE SMOOTH",
"1200 1500 OFFCURVE",
"1100 1500 QCURVE SMOOTH",
"1000 1500 OFFCURVE",
"1000 1442 QCURVE",
"818 1200 OFFCURVE"
);
},
{
closed = 1;
nodes = (
"2888 813 QCURVE SMOOTH",
"2888 812 LINE",
"2602 528 LINE",
"2632 362 OFFCURVE",
"2944 0 OFFCURVE",
"3124 0 QCURVE SMOOTH",
"3490 0 LINE",
"3860 100 OFFCURVE",
"3900 500 QCURVE",
"3900 896 LINE",
"3880 1072 OFFCURVE",
"3701 1154 QCURVE",
"3779 1249 LINE",
"3920 1171 OFFCURVE",
"3988 1171 QCURVE SMOOTH",
"4005 1171 OFFCURVE",
"4018 1176 QCURVE SMOOTH",
"4080 1200 OFFCURVE",
"4100 1343 QCURVE",
"4087 1337 OFFCURVE",
"4070 1337 QCURVE SMOOTH",
"3979 1337 OFFCURVE",
"3766 1500 QCURVE",
"3440 1052 LINE",
"3660 1012 OFFCURVE",
"3700 876 QCURVE",
"3700 500 LINE",
"3650 280 OFFCURVE",
"3490 200 QCURVE",
"3124 200 LINE",
"2952 317 OFFCURVE",
"2863 481 QCURVE",
"3028 654 LINE SMOOTH",
"3100 729 OFFCURVE",
"3100 824 QCURVE SMOOTH",
"3100 882 OFFCURVE",
"2993 1038 OFFCURVE",
"2925 1094 QCURVE",
"2400 1500 LINE",
"1875 1094 LINE",
"1800 1032 OFFCURVE",
"1800 908 QCURVE SMOOTH",
"1800 290 LINE SMOOTH",
"1800 150 OFFCURVE",
"1937 0 OFFCURVE",
"2032 0 QCURVE SMOOTH",
"2127 0 OFFCURVE",
"2167 133 QCURVE SMOOTH",
"2178 170 OFFCURVE",
"2178 203 QCURVE SMOOTH",
"2178 290 OFFCURVE",
"2104 353 QCURVE SMOOTH",
"2000 440 OFFCURVE",
"2000 480 QCURVE SMOOTH",
"2000 948 LINE",
"2400 1265 LINE",
"2800 948 LINE SMOOTH",
"2888 880 OFFCURVE"
);
},
{
closed = 1;
nodes = (
"4800 1200 QCURVE SMOOTH",
"4700 1200 OFFCURVE",
"4700 1250 QCURVE SMOOTH",
"4700 1300 OFFCURVE",
"4750 1300 QCURVE SMOOTH",
"4850 1300 OFFCURVE",
"4850 1400 QCURVE SMOOTH",
"4850 1500 OFFCURVE",
"4750 1500 QCURVE SMOOTH",
"4500 1500 OFFCURVE",
"4500 1250 QCURVE SMOOTH",
"4500 1000 OFFCURVE",
"4800 1000 QCURVE SMOOTH",
"5012 1000 OFFCURVE",
"5200 1171 QCURVE",
"5200 205 LINE SMOOTH",
"5200 138 OFFCURVE",
"5113 101 OFFCURVE",
"5050 101 QCURVE",
"5050 50 OFFCURVE",
"5078 25 QCURVE SMOOTH",
"5105 0 OFFCURVE",
"5160 0 QCURVE SMOOTH",
"5255 0 OFFCURVE",
"5400 88 OFFCURVE",
"5400 205 QCURVE SMOOTH",
"5400 1400 LINE SMOOTH",
"5400 1500 OFFCURVE",
"5300 1500 QCURVE SMOOTH",
"5200 1500 OFFCURVE",
"5200 1442 QCURVE",
"5018 1200 OFFCURVE"
);
}
);
width = 5700;
}
);
note = uni17D8;
unicode = 17D8;
},
{
glyphname = uni17D9;
layers = (
{
layerId = "BB6B0684-34D4-4B80-99D1-F5F29B570554";
paths = (
{
closed = 1;
nodes = (
"1475 175 QCURVE SMOOTH",
"1650 350 OFFCURVE",
"1650 700 QCURVE SMOOTH",
"1650 1050 OFFCURVE",
"1475 1225 QCURVE SMOOTH",
"1299 1400 OFFCURVE",
"950 1400 QCURVE SMOOTH",
"601 1400 OFFCURVE",
"425 1225 QCURVE SMOOTH",
"250 1050 OFFCURVE",
"250 700 QCURVE SMOOTH",
"250 350 OFFCURVE",
"425 175 QCURVE SMOOTH",
"601 0 OFFCURVE",
"950 0 QCURVE SMOOTH",
"1299 0 OFFCURVE"
);
},
{
closed = 1;
nodes = (
"1500 700 QCURVE SMOOTH",
"1500 150 OFFCURVE",
"950 150 QCURVE SMOOTH",
"400 150 OFFCURVE",
"400 700 QCURVE SMOOTH",
"400 1250 OFFCURVE",
"950 1250 QCURVE SMOOTH",
"1500 1250 OFFCURVE"
);
},
{
closed = 1;
nodes = (
"1250 400 QCURVE SMOOTH",
"1350 500 OFFCURVE",
"1350 700 QCURVE SMOOTH",
"1350 900 OFFCURVE",
"1250 1000 QCURVE SMOOTH",
"1151 1100 OFFCURVE",
"950 1100 QCURVE SMOOTH",
"749 1100 OFFCURVE",
"650 1000 QCURVE SMOOTH",
"550 900 OFFCURVE",
"550 700 QCURVE SMOOTH",
"550 500 OFFCURVE",
"650 400 QCURVE SMOOTH",
"749 300 OFFCURVE",
"950 300 QCURVE SMOOTH",
"1151 300 OFFCURVE"
);
},
{
closed = 1;
nodes = (
"1137 888 QCURVE SMOOTH",
"1200 825 OFFCURVE",
"1200 700 QCURVE SMOOTH",
"1200 575 OFFCURVE",
"1137 513 QCURVE SMOOTH",
"1074 450 OFFCURVE",
"950 450 QCURVE SMOOTH",
"826 450 OFFCURVE",
"763 513 QCURVE SMOOTH",
"700 575 OFFCURVE",
"700 700 QCURVE SMOOTH",
"700 825 OFFCURVE",
"763 888 QCURVE SMOOTH",
"826 950 OFFCURVE",
"950 950 QCURVE SMOOTH",
"1074 950 OFFCURVE"
);
}
);
width = 2100;
}
);
note = uni17D9;
unicode = 17D9;
},
{
glyphname = uni17DA;
layers = (
{
layerId = "BB6B0684-34D4-4B80-99D1-F5F29B570554";
paths = (
{
closed = 1;
nodes = (
"3132 516 OFFCURVE",
"3132 509 QCURVE SMOOTH",
"3132 506 OFFCURVE",
"3131 505 QCURVE SMOOTH",
"3124 499 OFFCURVE",
"3118 499 QCURVE SMOOTH",
"3111 499 OFFCURVE",
"3106 507 QCURVE SMOOTH",
"3105 509 OFFCURVE",
"3105 512 QCURVE SMOOTH",
"3105 521 OFFCURVE",
"3121 538 QCURVE"
);
},
{
closed = 1;
nodes = (
"1786 988 OFFCURVE",
"1781 997 QCURVE SMOOTH",
"1739 1062 OFFCURVE",
"1739 1097 QCURVE SMOOTH",
"1739 1111 OFFCURVE",
"1746 1120 QCURVE SMOOTH",
"1772 1155 OFFCURVE",
"1800 1155 QCURVE SMOOTH",
"1823 1155 OFFCURVE",
"1847 1131 QCURVE SMOOTH",
"1854 1124 OFFCURVE",
"1854 1111 QCURVE SMOOTH",
"1854 1073 OFFCURVE",
"1793 979 QCURVE"
);
},
{
closed = 1;
nodes = (
"2115 379 OFFCURVE",
"2115 353 QCURVE SMOOTH",
"2115 344 OFFCURVE",
"2109 340 QCURVE SMOOTH",
"2090 325 OFFCURVE",
"2072 325 QCURVE SMOOTH",
"2050 325 OFFCURVE",
"2031 347 QCURVE SMOOTH",
"2027 351 OFFCURVE",
"2027 358 QCURVE SMOOTH",
"2027 383 OFFCURVE",
"2071 439 QCURVE"
);
},
{
closed = 1;
nodes = (
"2381 1068 OFFCURVE",
"2381 1089 QCURVE SMOOTH",
"2381 1098 OFFCURVE",
"2386 1102 QCURVE SMOOTH",
"2402 1114 OFFCURVE",
"2416 1114 QCURVE SMOOTH",
"2434 1114 OFFCURVE",
"2449 1094 QCURVE SMOOTH",
"2451 1091 OFFCURVE",
"2451 1087 QCURVE SMOOTH",
"2451 1068 OFFCURVE",
"2411 1018 QCURVE"
);
},
{
closed = 1;
nodes = (
"2652 446 OFFCURVE",
"2652 438 QCURVE SMOOTH",
"2652 435 OFFCURVE",
"2650 434 QCURVE SMOOTH",
"2642 429 OFFCURVE",
"2634 429 QCURVE SMOOTH",
"2625 429 OFFCURVE",
"2618 437 QCURVE SMOOTH",
"2617 438 OFFCURVE",
"2617 439 QCURVE SMOOTH",
"2617 446 OFFCURVE",
"2638 468 QCURVE"
);
},
{
closed = 1;
nodes = (
"2974 994 OFFCURVE",
"2974 1002 QCURVE SMOOTH",
"2974 1005 OFFCURVE",
"2976 1007 QCURVE SMOOTH",
"2986 1016 OFFCURVE",
"2995 1016 QCURVE SMOOTH",
"3001 1016 OFFCURVE",
"3006 1011 QCURVE",
"3007 1011 OFFCURVE",
"3007 1010 QCURVE SMOOTH",
"3007 1004 OFFCURVE",
"2982 979 QCURVE"
);
},
{
closed = 1;
nodes = (
"3114 794 QCURVE SMOOTH",
"3088 827 OFFCURVE",
"3067 854 QCURVE",
"3096 889 OFFCURVE",
"3115 920 QCURVE SMOOTH",
"3150 978 OFFCURVE",
"3150 1024 QCURVE SMOOTH",
"3150 1063 OFFCURVE",
"3126 1093 QCURVE SMOOTH",
"3072 1160 OFFCURVE",
"3012 1168 QCURVE SMOOTH",
"3003 1169 OFFCURVE",
"2994 1169 QCURVE SMOOTH",
"2942 1169 OFFCURVE",
"2886 1127 QCURVE SMOOTH",
"2840 1092 OFFCURVE",
"2840 1033 QCURVE SMOOTH",
"2840 1006 OFFCURVE",
"2849 974 QCURVE SMOOTH",
"2860 936 OFFCURVE",
"2883 891 QCURVE",
"2832 847 OFFCURVE",
"2758 787 QCURVE SMOOTH",
"2699 738 OFFCURVE",
"2653 693 QCURVE",
"2618 743 OFFCURVE",
"2574 798 QCURVE SMOOTH",
"2528 855 OFFCURVE",
"2493 901 QCURVE",
"2527 950 OFFCURVE",
"2549 992 QCURVE SMOOTH",
"2586 1064 OFFCURVE",
"2586 1118 QCURVE SMOOTH",
"2586 1164 OFFCURVE",
"2560 1197 QCURVE SMOOTH",
"2503 1270 OFFCURVE",
"2436 1278 QCURVE SMOOTH",
"2428 1279 OFFCURVE",
"2420 1279 QCURVE SMOOTH",
"2361 1279 OFFCURVE",
"2293 1228 QCURVE SMOOTH",
"2244 1191 OFFCURVE",
"2244 1124 QCURVE SMOOTH",
"2244 1086 OFFCURVE",
"2260 1038 QCURVE SMOOTH",
"2282 972 OFFCURVE",
"2314 913 QCURVE",
"2257 854 OFFCURVE",
"2176 778 QCURVE SMOOTH",
"2114 717 OFFCURVE",
"2065 662 QCURVE",
"2026 708 OFFCURVE",
"1979 758 QCURVE SMOOTH",
"1926 814 OFFCURVE",
"1884 863 QCURVE",
"1920 924 OFFCURVE",
"1943 977 QCURVE SMOOTH",
"1981 1065 OFFCURVE",
"1981 1130 QCURVE SMOOTH",
"1981 1194 OFFCURVE",
"1944 1236 QCURVE SMOOTH",
"1871 1319 OFFCURVE",
"1799 1319 QCURVE SMOOTH",
"1797 1319 LINE SMOOTH",
"1723 1318 OFFCURVE",
"1649 1233 QCURVE SMOOTH",
"1607 1185 OFFCURVE",
"1607 1119 QCURVE SMOOTH",
"1607 1067 OFFCURVE",
"1632 1005 QCURVE SMOOTH",
"1658 940 OFFCURVE",
"1712 863 QCURVE",
"1635 758 OFFCURVE",
"1515 614 QCURVE SMOOTH",
"1322 382 OFFCURVE",
"1160 266 QCURVE SMOOTH",
"998 150 OFFCURVE",
"866 150 QCURVE SMOOTH",
"733 150 OFFCURVE",
"667 300 QCURVE SMOOTH",
"601 450 OFFCURVE",
"601 750 QCURVE SMOOTH",
"601 757 LINE SMOOTH",
"601 1052 OFFCURVE",
"682 1200 QCURVE SMOOTH",
"763 1350 OFFCURVE",
"925 1350 QCURVE SMOOTH",
"1087 1350 OFFCURVE",
"1169 1286 QCURVE SMOOTH",
"1250 1223 OFFCURVE",
"1250 1097 QCURVE SMOOTH",
"1250 956 OFFCURVE",
"1191 870 QCURVE SMOOTH",
"1132 784 OFFCURVE",
"1015 754 QCURVE SMOOTH",
"946 735 OFFCURVE",
"946 684 QCURVE SMOOTH",
"946 672 OFFCURVE",
"950 658 QCURVE SMOOTH",
"965 604 OFFCURVE",
"1016 604 QCURVE SMOOTH",
"1033 604 OFFCURVE",
"1054 610 QCURVE SMOOTH",
"1227 654 OFFCURVE",
"1314 778 QCURVE SMOOTH",
"1400 901 OFFCURVE",
"1400 1104 QCURVE SMOOTH",
"1400 1302 OFFCURVE",
"1282 1401 QCURVE SMOOTH",
"1163 1500 OFFCURVE",
"925 1500 QCURVE SMOOTH",
"688 1500 OFFCURVE",
"569 1312 QCURVE SMOOTH",
"450 1125 OFFCURVE",
"450 750 QCURVE SMOOTH",
"450 375 OFFCURVE",
"554 187 QCURVE SMOOTH",
"658 0 OFFCURVE",
"865 0 QCURVE SMOOTH",
"1032 0 OFFCURVE",
"1228 134 QCURVE SMOOTH",
"1423 267 OFFCURVE",
"1646 534 QCURVE SMOOTH",
"1739 646 OFFCURVE",
"1806 742 QCURVE",
"1840 703 OFFCURVE",
"1879 662 QCURVE SMOOTH",
"1935 602 OFFCURVE",
"1978 554 QCURVE",
"1942 503 OFFCURVE",
"1920 458 QCURVE SMOOTH",
"1888 392 OFFCURVE",
"1888 341 QCURVE SMOOTH",
"1888 291 OFFCURVE",
"1919 254 QCURVE SMOOTH",
"1982 180 OFFCURVE",
"2053 174 QCURVE SMOOTH",
"2059 173 OFFCURVE",
"2066 173 QCURVE SMOOTH",
"2131 173 OFFCURVE",
"2203 228 QCURVE SMOOTH",
"2249 263 OFFCURVE",
"2249 323 QCURVE SMOOTH",
"2249 365 OFFCURVE",
"2226 420 QCURVE SMOOTH",
"2203 474 OFFCURVE",
"2159 539 QCURVE",
"2213 595 OFFCURVE",
"2288 667 QCURVE SMOOTH",
"2351 730 OFFCURVE",
"2400 786 QCURVE",
"2469 700 LINE SMOOTH",
"2519 636 OFFCURVE",
"2555 587 QCURVE",
"2531 556 OFFCURVE",
"2514 528 QCURVE SMOOTH",
"2479 467 OFFCURVE",
"2479 420 QCURVE SMOOTH",
"2479 381 OFFCURVE",
"2502 351 QCURVE SMOOTH",
"2554 284 OFFCURVE",
"2615 275 QCURVE SMOOTH",
"2624 274 OFFCURVE",
"2633 274 QCURVE SMOOTH",
"2685 274 OFFCURVE",
"2743 317 QCURVE SMOOTH",
"2785 349 OFFCURVE",
"2785 406 QCURVE SMOOTH",
"2785 442 OFFCURVE",
"2769 488 QCURVE SMOOTH",
"2757 521 OFFCURVE",
"2737 559 QCURVE",
"2792 605 OFFCURVE",
"2870 669 QCURVE SMOOTH",
"2926 714 OFFCURVE",
"2972 756 QCURVE",
"2987 735 OFFCURVE",
"3005 713 QCURVE SMOOTH",
"3022 689 OFFCURVE",
"3037 667 QCURVE",
"2963 607 OFFCURVE",
"2948 547 QCURVE SMOOTH",
"2945 532 OFFCURVE",
"2945 518 QCURVE SMOOTH",
"2945 468 OFFCURVE",
"2984 419 QCURVE SMOOTH",
"3035 355 OFFCURVE",
"3094 348 QCURVE SMOOTH",
"3102 347 OFFCURVE",
"3110 347 QCURVE SMOOTH",
"3161 347 OFFCURVE",
"3218 390 QCURVE SMOOTH",
"3265 426 OFFCURVE",
"3265 488 QCURVE SMOOTH",
"3265 512 OFFCURVE",
"3258 541 QCURVE SMOOTH",
"3249 576 OFFCURVE",
"3229 617 QCURVE",
"3295 650 OFFCURVE",
"3381 650 QCURVE SMOOTH",
"3501 650 LINE SMOOTH",
"3600 650 OFFCURVE",
"3600 725 QCURVE SMOOTH",
"3600 800 OFFCURVE",
"3505 800 QCURVE SMOOTH",
"3358 800 OFFCURVE",
"3243 768 QCURVE SMOOTH",
"3197 756 OFFCURVE",
"3156 738 QCURVE",
"3137 765 OFFCURVE"
);
}
);
width = 3850;
}
);
note = uni17DA;
unicode = 17DA;
},
{
glyphname = uni17DB;
layers = (
{
layerId = "BB6B0684-34D4-4B80-99D1-F5F29B570554";
paths = (
{
closed = 1;
nodes = (
"550 1062 OFFCURVE",
"401 1134 QCURVE",
"459 1219 LINE",
"555 1160 OFFCURVE",
"624 1160 QCURVE SMOOTH",
"680 1160 OFFCURVE",
"718 1201 QCURVE SMOOTH",
"800 1290 OFFCURVE",
"800 1413 QCURVE",
"734 1356 OFFCURVE",
"665 1356 QCURVE SMOOTH",
"555 1356 OFFCURVE",
"436 1500 QCURVE",
"150 1052 LINE",
"350 1012 OFFCURVE",
"350 876 QCURVE SMOOTH",
"350 850 LINE",
"150 850 LINE",
"150 650 LINE",
"350 650 LINE",
"350 500 LINE SMOOTH",
"350 410 OFFCURVE",
"150 240 OFFCURVE",
"150 165 QCURVE SMOOTH",
"150 0 OFFCURVE",
"265 0 QCURVE SMOOTH",
"370 0 OFFCURVE",
"550 220 OFFCURVE",
"550 490 QCURVE SMOOTH",
"550 650 LINE",
"704 650 LINE",
"704 850 LINE",
"550 850 LINE",
"550 946 LINE SMOOTH"
);
}
);
width = 850;
}
);
note = uni17DB;
unicode = 17DB;
},
{
glyphname = uni17DC;
layers = (
{
layerId = "BB6B0684-34D4-4B80-99D1-F5F29B570554";
paths = (
{
closed = 1;
nodes = (
"1150 182 OFFCURVE",
"1150 359 QCURVE SMOOTH",
"1150 513 OFFCURVE",
"914 658 OFFCURVE",
"675 658 QCURVE SMOOTH",
"576 658 OFFCURVE",
"455 684 OFFCURVE",
"388 764 OFFCURVE",
"388 842 QCURVE SMOOTH",
"388 941 OFFCURVE",
"534 1055 OFFCURVE",
"675 1055 QCURVE SMOOTH",
"817 1055 OFFCURVE",
"963 979 OFFCURVE",
"963 910 QCURVE SMOOTH",
"963 851 OFFCURVE",
"922 851 QCURVE SMOOTH",
"862 851 OFFCURVE",
"862 793 QCURVE SMOOTH",
"862 734 OFFCURVE",
"922 734 QCURVE SMOOTH",
"1001 734 OFFCURVE",
"1099 763 OFFCURVE",
"1150 840 OFFCURVE",
"1150 910 QCURVE SMOOTH",
"1150 1057 OFFCURVE",
"911 1210 OFFCURVE",
"675 1210 QCURVE SMOOTH",
"440 1210 OFFCURVE",
"200 1019 OFFCURVE",
"200 842 QCURVE SMOOTH",
"200 688 OFFCURVE",
"436 543 OFFCURVE",
"675 543 QCURVE SMOOTH",
"775 543 OFFCURVE",
"895 518 OFFCURVE",
"963 438 OFFCURVE",
"963 360 QCURVE SMOOTH",
"963 260 OFFCURVE",
"817 146 OFFCURVE",
"675 146 QCURVE SMOOTH",
"533 146 OFFCURVE",
"388 222 OFFCURVE",
"388 292 QCURVE SMOOTH",
"388 350 OFFCURVE",
"429 350 QCURVE SMOOTH",
"458 350 OFFCURVE",
"489 380 OFFCURVE",
"489 408 QCURVE SMOOTH",
"489 468 OFFCURVE",
"429 468 QCURVE SMOOTH",
"350 468 OFFCURVE",
"251 439 OFFCURVE",
"200 363 OFFCURVE",
"200 293 QCURVE SMOOTH",
"200 145 OFFCURVE",
"438 -10 OFFCURVE",
"675 -10 QCURVE SMOOTH",
"910 -10 OFFCURVE"
);
}
);
userData = {
assembly = "NPUSHB[ ]	/* 86 values pushed */\0120 8 5 7 5 8 7 128 0 9 6 4 6 9 4 128 0 4 1 6 4 1 126 0 3 2 0 2 3 0 128 0 7 0 6 9 7 6 105 0 1 0 2 3 1 2 105 0 5 5 0 97 10 1 0 0 19 0 78 1 0 54 52 47 45 42 40 38 36 31 29 25 23 18 16 13 11 8 6 0 58 1 58 11 7 22 \012CALL[ ]	/* CallFunction */";
};
width = 1350;
}
);
note = uni17DC;
unicode = 17DC;
},
